<svg width="64" height="64" fill="none" xmlns="http://www.w3.org/2000/svg"><path d="M32.101 0c-7.787-.004-15.568 2.498-21.935 7.505-2.385 1.866-3.82 4.64-3.959 7.603-.297 6.36-.212 12.718-.126 19.079.04 3.008.081 6.016.081 9.024 0 6.869 10.501 14.185 18.852 20.003l.386.269c1.886 1.314 4.542-.028 4.542-2.313v-3.375c1.407.182 2.922.182 4.33 0v3.375c0 2.285 2.656 3.627 4.541 2.313l.386-.27c8.351-5.817 18.852-13.133 18.852-20.002 0-3.008.04-6.016.081-9.024.086-6.36.171-12.72-.126-19.078-.139-2.963-1.574-5.738-3.959-7.604C47.68 2.498 39.9-.004 32.112 0h-.01Z" fill="url(#a)"/><path d="M11.91 9.678c-1.734 1.36-2.76 3.36-2.917 5.54-.217 2.996-.214 5.697-.21 8.495.003 3.42.037 6.84.091 10.26v.001c.046 2.866.091 5.745.091 9.237 0 1.029.404 2.28 1.38 3.787.972 1.5 2.405 3.088 4.193 4.735 3.55 3.273 7.541 6.048 11.506 8.806l.97.674c.067.04.133.015.133-.043V37.806l-8.74.571c-3.46.226-6.392-2.494-6.392-5.931v-5.34c0-3.508 3.05-6.253 6.573-5.917l10.37.99c2.088.2 4.214.2 6.303 0l10.368-.99c3.524-.336 6.574 2.409 6.574 5.917v5.34c0 3.437-2.933 6.157-6.393 5.931l-8.739-.571V61.17c0 .058.066.084.133.043l.961-.669.008-.005c3.966-2.758 7.956-5.533 11.507-8.806 1.788-1.647 3.22-3.235 4.193-4.735.976-1.507 1.38-2.758 1.38-3.787 0-3.492.045-6.37.09-9.237v-.002c.055-3.42.089-6.839.093-10.259.002-2.798.005-5.5-.21-8.494-.158-2.18-1.184-4.18-2.918-5.54C40.7.548 23.514.551 11.91 9.678Z" fill="#fff"/><path d="M22.815 25.62c-1.473 0-2.666 1.183-2.666 2.642v3.364c0 1.105.953 1.973 2.064 1.88l2.758-.23c.38-.032.735-.204.994-.483.258-.278.401-.643.401-1.021v-3.51c0-1.46-1.193-2.642-2.666-2.642h-.885Zm17.689 0c-1.472 0-2.666 1.183-2.666 2.642v3.523c0 .376.142.739.397 1.017.255.278.606.451.983.487l2.754.257a1.898 1.898 0 0 0 2.084-1.878v-3.406c0-1.46-1.194-2.642-2.666-2.642h-.886Z" fill="#fff"/><defs><linearGradient id="a" x1="32.107" y1="0" x2="32.107" y2="64" gradientUnits="userSpaceOnUse"><stop stop-color="#000428"/><stop offset=".635" stop-color="#004E92"/><stop offset="1" stop-color="#0173B3"/></linearGradient></defs></svg>