<svg width="64" height="64" fill="none" xmlns="http://www.w3.org/2000/svg"><g clip-path="url(#a)"><path d="M38.433 5.048c-1.039 1.038-2.82 1.353-3.856.315L30.064.853a2.922 2.922 0 0 0-4.128 0l-4.512 4.51c-1.037 1.038-2.818.723-3.857-.315a8.854 8.854 0 0 0-12.52 12.518c1.04 1.039 1.355 2.82.316 3.856l-4.51 4.512a2.921 2.921 0 0 0 0 4.128l4.51 4.512c1.039 1.037 2.82.72 3.856-.316A8.854 8.854 0 0 1 21.74 46.776c-1.038 1.039-1.353 2.82-.315 3.856l4.51 4.513a2.922 2.922 0 0 0 4.13 0l4.51-4.513c1.04-1.036 2.82-.72 3.858.317a8.854 8.854 0 0 0 12.52-12.518c-1.04-1.039-1.355-2.82-.316-3.856l4.51-4.513a2.921 2.921 0 0 0 0-4.128l-4.51-4.512c-1.038-1.037-.723-2.817.315-3.856a8.853 8.853 0 0 0-12.52-12.518Z" fill="#7075E9"/></g><defs><clipPath id="a"><path fill="#fff" d="M0 0h56v56H0z"/></clipPath></defs></svg>