<svg width="30" height="30" xmlns="http://www.w3.org/2000/svg"><g fill="none" fill-rule="evenodd"><path fill="#000" d="M5.008 24.735.923 14.87l4.085-9.863L14.872.923l9.863 4.085 4.085 9.863-4.085 9.864-9.863 4.085z"/><path d="M14.871 0 4.355 4.356 0 14.87l4.355 10.516 10.516 4.356 10.516-4.356 4.356-10.516-4.356-10.515L14.871 0Zm-9.21 24.083L1.844 14.87l3.815-9.21 9.211-3.816 9.211 3.815 3.816 9.211-3.816 9.212-9.21 3.815-9.212-3.815Z" fill="#A8A8A8"/><path fill="#A8A8A8" d="m11.775 8.067-1.069-.286V9.56l3.4 5.309-3.4 5.309v1.778l1.07-.287 4.355-6.8z"/><path fill="#FFF" d="m10.706 9.315 4.319-1.788 4.772 1.977V7.659l-4.772-1.977-4.319 1.788zM19.797 20.353l-4.772 1.977-4.319-1.79v1.846l4.319 1.789 4.772-1.977z"/></g></svg>