<svg width="30" height="30" fill="none" xmlns="http://www.w3.org/2000/svg"><mask id="a" mask-type="alpha" maskUnits="userSpaceOnUse" x="0" y="0" width="30" height="30"><path fill="#2E3035" d="M0 0h30v30H0z"/></mask><g mask="url(#a)"><path fill-rule="evenodd" clip-rule="evenodd" d="M30 15 15 0 0 15l15 15 15-15Zm-14.463 9.616h-1.289v-1.869c-2.557-.226-4.673-1.74-4.748-4.243h1.87c.191 1.334 1.01 2.35 2.844 2.563a4.126 4.126 0 0 0 1.556-.007c1.825-.206 2.539-1.155 2.539-2.341 0-1.182-.58-1.934-2.707-2.45l-.065-.01c-.385-.129-.87-.24-1.468-.358l-.068-.018c-2.675-.645-4.114-1.837-4.114-3.953 0-2.31 1.815-3.835 4.361-4.06V6h1.29v1.858c2.48.226 4.414 1.794 4.49 4.168h-1.87c-.14-1.45-1.17-2.298-2.62-2.481v.01a3.722 3.722 0 0 0-1.29.025v-.024c-1.633.215-2.492 1.203-2.492 2.245 0 1.023.61 1.823 2.341 2.282.382.13.86.248 1.44.325v.025l.333.075c2.76.666 4.308 1.805 4.308 4.06 0 2.59-2.106 3.996-4.64 4.19v1.858Z" fill="#05B595"/><mask id="b" mask-type="alpha" maskUnits="userSpaceOnUse" x="-1" y="0" width="32" height="17"><path fill-rule="evenodd" clip-rule="evenodd" d="M7.57 12.662c-2.07-.03-4.536.557-7.704 2.451-.268-.334.82-1.27.634-1.613.001-.498 2-1.73 2-2C7.5 8 13 .5 15 0c2.99 2.579 8.271 8.158 14 12 .008.194-.003.208 0 .501 0 .5.502.854.5 1.5-.748-.823 1.177.662 1.172.745-3.365 1.743-6.196 2.296-8.75 2.138-2.846-.176-5.225-1.238-7.377-2.2l-.245-.109c-2.27-1.011-4.314-1.878-6.73-1.913Z" fill="#2E3035"/></mask><g mask="url(#b)"><path fill-rule="evenodd" clip-rule="evenodd" d="M30 15 15 0 0 15l15 15 15-15Zm-14.463 9.616h-1.289v-1.869c-2.556-.226-4.673-1.74-4.748-4.243h1.87c.193 1.343 1.02 2.363 2.878 2.567v-.016a3.895 3.895 0 0 0 1.65-.01c1.731-.237 2.41-1.168 2.41-2.326 0-1.182-.58-1.934-2.706-2.45l-.065-.01c-.385-.129-.87-.24-1.468-.358l-.068-.018c-2.675-.645-4.114-1.837-4.114-3.953 0-2.31 1.815-3.835 4.361-4.06V6h1.29v1.858c2.48.226 4.414 1.794 4.49 4.168h-1.87c-.14-1.45-1.17-2.298-2.62-2.481a4.389 4.389 0 0 0-1.29.029v-.018c-1.632.215-2.492 1.203-2.492 2.245 0 .988.567 1.767 2.163 2.232.403.157.937.301 1.618.387v.013l.333.075c2.761.666 4.308 1.805 4.308 4.06 0 2.59-2.105 3.996-4.64 4.19v1.858Z" fill="#00FEB5"/></g></g></svg>