<svg width="512" height="512" fill="none" xmlns="http://www.w3.org/2000/svg"><circle cx="256" cy="256" r="256" fill="#7EE989"/><path fill-rule="evenodd" clip-rule="evenodd" d="M396.211 359.648c-31.761 42.894-82.737 70.701-140.208 70.701-96.288 0-174.346-78.057-174.346-174.346 0-5.173.226-10.294.667-15.353H50.22a209.299 209.299 0 0 0-.563 15.353c0 113.962 92.385 206.346 206.346 206.346 76.182 0 142.722-41.284 178.467-102.701h-38.259Zm33.552-89.248c.388-4.748.586-9.549.586-14.397 0-96.288-78.057-174.346-174.346-174.346-60.956 0-114.606 31.283-145.771 78.669h-37.1c34.49-65.787 103.439-110.669 182.871-110.669 113.962 0 206.346 92.384 206.346 206.346 0 4.84-.167 9.64-.494 14.397h-32.092Z" fill="#2E3A59"/><path d="m203.143 171.064 53.433 145.093 52.878-145.093h40.353l-74.863 188.673H237.93l-75.141-188.673h40.354Z" fill="#2E3A59"/><path fill-rule="evenodd" clip-rule="evenodd" d="M132.558 240.65h-73.38v29.749h73.38V240.65Zm252.715 29.749h68.086V240.65h-68.086v29.749Z" fill="#2E3A59"/></svg>