<svg width="316" height="316" fill="none" xmlns="http://www.w3.org/2000/svg"><path fill="#EDF0F4" d="M0 0h316v316H0z"/><path d="m158.5 58 87.5 50v100l-87.5 50L71 208V108l87.5-50Z" fill="#fff"/><path d="M138.674 137.592v40.625h-3.495l-23.596-34.71v34.71h-3.468v-40.625h3.468l23.652 34.71v-34.71h3.439ZM152.629 137.592v40.625h-3.468v-40.625h3.468Zm19.113 18.694v2.958h-20.269v-2.958h20.269Zm2.848-18.694v2.957h-23.117v-2.957h23.117ZM195.958 137.592v40.625h-3.439v-40.625h3.439Zm14.068 0v2.957H178.48v-2.957h31.546Z" fill="#EDF0F4"/></svg>