<svg width="250" height="250" fill="none" xmlns="http://www.w3.org/2000/svg"><circle cx="125" cy="125" r="125" fill="#FBFF43"/><path d="M75.382 149.934a6.464 6.464 0 0 0-3.688-2.511l-.692-.172a8.365 8.365 0 0 0-2.035-.251H64.48c-1.317 0-2.63-.13-3.922-.388L57.5 146l-2.807-.561A16.725 16.725 0 0 1 50.5 144l-7.5-5-1.71-1.426a19.999 19.999 0 0 1-2.382-2.348L37 133l-5-5-3.258-3.258a5.949 5.949 0 0 1-1.646-5.27L28 114.5l2-10 1.595-5.983c.27-1.009.64-1.988 1.107-2.921l.871-1.742a9.575 9.575 0 0 1 6.684-5.105L44 88l19-6 16-6 2.337-1.169a20.007 20.007 0 0 1 3.45-1.342L90 72l13-2 27-8 25-8 3.924-1.57a19.996 19.996 0 0 1 7.428-1.43h2.847a20 20 0 0 1 5.494.77l.807.23 7.5 2 6 1.5.983.206c.935.195 1.888.294 2.843.294h1.328c.889 0 1.77-.17 2.596-.5l.833-.333a2.336 2.336 0 0 1 1.91.08l.567.283c.62.31 1.169.745 1.613 1.277l3.337 4.005a20.05 20.05 0 0 1 1.786 2.514L212 72l4 9 6.354 11.8a5.407 5.407 0 0 1-.262 5.562L222 98.5l-3.707 6.302a19.992 19.992 0 0 1-3.096 4.001L208 116l-7.5 7.5-8.5 7.5a3.506 3.506 0 0 0-1.026 2.414l-.858 47.184A13.637 13.637 0 0 1 185 191l-4 3-1.48.888a20.007 20.007 0 0 1-7.588 2.667L154 200h-40.41c-1.058 0-2.115-.084-3.16-.251L99.5 198l-6.103-1.628a20.01 20.01 0 0 1-2.726-.941l-4.24-1.817a14.41 14.41 0 0 1-8.72-12.653l-1.132-27.539a6.46 6.46 0 0 0-1.197-3.488Z" fill="#292C30"/></svg>