<svg fill="none" height="56" width="56" xmlns="http://www.w3.org/2000/svg"><path d="M0 0h56v56H0z" fill="#000"/><g fill="#ffcf32"><path d="m28 18.136-6.991 6.991-4.068-4.068L28 10l11.063 11.063-4.068 4.068zM14.068 32.068 10 28l4.068-4.068L18.136 28zm2.867 2.867 4.074-4.062L28 37.864l6.995-6.997 4.068 4.068v.002L28 46 16.94 34.94zm24.997-2.867L37.864 28l4.068-4.068L46 28z"/><path d="M32.127 27.996h-.001v.002l.003.002-.002.002-4.129 4.127-4.122-4.124L23.87 28l.007-.005.722-.724.351-.351L28 23.87z"/></g></svg>