<svg fill="none" height="24" width="24" xmlns="http://www.w3.org/2000/svg"><path d="M12 24c6.65 0 12-5.35 12-12S18.65 0 12 0 0 5.35 0 12s5.35 12 12 12z" fill="#ffb208"/><path clip-rule="evenodd" d="M7.5 6.5V10H6v1.3h1.5v1.4H6V14h1.5v3.5H13s3.582-.358 4.682-3.5H19v-1.3h-1.035a6.941 6.941 0 0 0 0-1.4H19V10h-1.318C16.582 6.858 13 6.5 13 6.5zm9.155 6.2c.03-.22.046-.453.046-.7 0-.248-.016-.48-.046-.7H8.801v1.4zM8.801 14v2.2h4.138s2.33-.237 3.323-2.2zm0-4h7.461c-.992-1.964-3.323-2.2-3.323-2.2H8.8z" fill="#fff" fill-rule="evenodd"/></svg>