<svg height="30" width="30" xmlns="http://www.w3.org/2000/svg"><g fill="none"><circle cx="15" cy="15" fill="#008de4" r="15"/><path d="M18.207 6.608c6.617 0 7.788 3.61 6.85 8.685-.63 3.407-2.205 6.019-4.852 7.24-1.193.55-2.32.86-4.97.86h-7.51l.626-3.49 6.604.003c3.97.006 5.03-1.718 5.546-3.226.194-.567.639-2.313.655-3.347.029-2.014-.96-3.23-4.308-3.23l-6.795-.009.624-3.486zM7.428 13.25h7.709s-.08.41-.325 1.429c-.184.776-.467 2.061-2.44 2.061H4.664s.08-.41.324-1.428c.185-.776.468-2.062 2.44-2.062z" fill="#fff"/></g></svg>