<svg width="233" height="285" fill="none" xmlns="http://www.w3.org/2000/svg"><path d="M217.143 120V75h-15.51V45h-15.511V30h-15.51V15h-31.02V0h-46.53v15H62.04v15H46.53v15H31.02v30H15.51v45H0v90h15.51v30h15.51v15h15.51v15h31.021v15h77.551v-15h31.02v-15h15.511v-15h15.51v-30h15.51v-90h-15.51Z" fill="#05F"/><path d="M177.251 104.761V71.462h-11.716v-22.2h-11.716V38.164h-11.717v-11.1H118.67V6.591H97.58v11.716H80.006v8.756H67.118v11.1H50.715v11.1h-14.06v31.14H24.94v45.694H13.223v45.262h11.716v22.199h11.717v11.1h11.716v11.1h23.433v11.099h58.581v-11.099h23.433v-11.1h11.716v-11.1h11.716v-22.199h11.717v-66.598h-11.717Z" fill="#6B9DFF"/><path d="M82.193 94.463v-7.03h4.686V78.06h3.828V66.59H87.27l-.39-6.104h-3.047V56.97H79.85v-3.515H69.305v3.515h-6.092v6.413h-6.874v3.207h-5.624v6.413h-2.343v9.62h-2.343v19.239h3.436v6.413h3.437v3.207h3.437v3.206h3.593v3.207h6.717v-3.207h2.656v-3.206h3.515v-2.96l3.671-.247v-6.413h3.359v-7.4h2.343Z" fill="#fff"/></svg>