<svg height="197.48" width="190.745" xmlns="http://www.w3.org/2000/svg"><linearGradient id="a" gradientUnits="objectBoundingBox" x1=".159" x2=".968" y1=".751" y2=".156"><stop offset="0" stop-color="#782767"/><stop offset=".331" stop-color="#a01a4f"/><stop offset=".778" stop-color="#d10a33"/><stop offset="1" stop-color="#e40428"/></linearGradient><path d="M408.47 408.676a44.41 44.41 0 0 0 .6-7.153V299.337a44.369 44.369 0 0 0-44.369-44.369H262.724a44.367 44.367 0 0 0-44.367 44.369v102.186c0 .187.026.367.028.554v6a44.368 44.368 0 0 0 44.368 44.369h101.982A44.368 44.368 0 0 0 409.1 408.08v-6.58a44.426 44.426 0 0 1-.63 7.176zm-40.634 37.039c.5-.035 1.02-.033 1.52-.085-.5.052-1.015.051-1.519.085zm4.06-.472c.717-.118 1.441-.215 2.146-.367-.705.151-1.428.25-2.142.367zm4.407-.948c.761-.207 1.523-.407 2.267-.652-.744.244-1.504.447-2.27.652zm4.3-1.4c.78-.3 1.555-.61 2.313-.952-.758.345-1.531.657-2.316.957zm4.122-1.823q1.192-.606 2.346-1.28-1.152.677-2.345 1.283zm3.9-2.223a44.79 44.79 0 0 0 2.4-1.667 44.099 44.099 0 0 1-2.4 1.67zm19.697-29.196c-.174.935-.4 1.851-.628 2.765.232-.918.455-1.83.628-2.765zm-2.249 7.871q-.473 1.218-1.011 2.4.538-1.183 1.012-2.4zm-1.625 3.674a45.312 45.312 0 0 1 0 .002zm-1.927 3.472c-.451.736-.9 1.469-1.4 2.175.496-.706.949-1.44 1.4-2.176zm-2.18 3.223c-.53.714-1.053 1.432-1.623 2.112.569-.68 1.094-1.398 1.623-2.112z" fill="url(#a)" transform="translate(-218.357 -254.968)"/><g fill="#0e1113" opacity=".15"><path d="M57.342 62.58a57.2 57.2 0 0 1 20.872-5.008l.961-.047h60.584a41.148 41.148 0 0 0 27.709-15.764h-99.7l-.574.028a41.117 41.117 0 0 0-38.38 49.048A57.492 57.492 0 0 1 57.342 62.58z"/><path d="M127.631 156.036h17.718v-16.027h-64.4a25.04 25.04 0 0 1-25.022-23.555 25.725 25.725 0 0 1-.051-1.521c0-.5.02-1.01.05-1.514a25.058 25.058 0 0 1 23.84-23.529l.208-.011 56.852-.028a41.136 41.136 0 0 0 30.645-16.007h-87.9l-.573.029a40.93 40.93 0 0 0-14.943 3.58 41.241 41.241 0 0 0-10.842 7.137q-.688.628-1.348 1.289a41.033 41.033 0 0 0-11.825 24.956 41.53 41.53 0 0 0-.2 4.1 41.2 41.2 0 0 0 1.832 12.149 40.712 40.712 0 0 0 1.412 3.864q.773 1.827 1.719 3.57a41.187 41.187 0 0 0 16.564 16.566q1.739.943 3.568 1.717a41.092 41.092 0 0 0 16.017 3.242h46.68z"/></g><g fill="#fff"><path d="M54.96 59.238a57.185 57.185 0 0 1 20.872-5.008l.962-.048h60.584a41.149 41.149 0 0 0 27.711-15.763h-99.7l-.573.028a41.117 41.117 0 0 0-38.38 49.048 57.489 57.489 0 0 1 28.525-28.257z"/><path d="M125.248 152.694h17.719v-16.026h-64.4a25.044 25.044 0 0 1-25.019-23.558c-.03-.506-.05-1.012-.05-1.52 0-.506.019-1.011.05-1.515a25.06 25.06 0 0 1 23.84-23.529l.207-.01 56.852-.027a41.13 41.13 0 0 0 30.644-16.007H77.193l-.573.028q-1.934.09-3.849.362t-3.793.721q-1.877.451-3.707 1.076t-3.595 1.423a41.218 41.218 0 0 0-10.841 7.136q-.688.628-1.347 1.288a41.041 41.041 0 0 0-11.826 24.956c-.136 1.36-.2 2.729-.2 4.1a41.148 41.148 0 0 0 1.832 12.15 40.653 40.653 0 0 0 1.411 3.862q.774 1.828 1.719 3.571a41.21 41.21 0 0 0 16.563 16.564q1.741.944 3.57 1.718a40.862 40.862 0 0 0 5.842 1.969q1.991.506 4.027.814a41.174 41.174 0 0 0 6.148.46h46.674z"/></g></svg>