<svg xmlns="http://www.w3.org/2000/svg" width="2000" height="1999.92"><path d="m382.11 1631.61 627.52 251.91 621.85-265.58 252-627.52-265.59-621.85-627.52-251.95-622 265.67-251.9 627.47Zm628.14 368.31a55.94 55.94 0 0 1-20.83-4L318.86 1726.7a55.27 55.27 0 0 1-30.52-29.94L4.53 1032.23a55.53 55.53 0 0 1-.46-42.84l269.2-670.56a55.56 55.56 0 0 1 29.94-30.56L967.74 4.49a56 56 0 0 1 42.88-.49l670.52 269.2a55.56 55.56 0 0 1 30.56 29.94l283.77 664.4a55.63 55.63 0 0 1 .46 42.88L1726.73 1681a55.09 55.09 0 0 1-29.94 30.51l-664.44 283.82a54.84 54.84 0 0 1-22.1 4.59Z"/><path d="m1144.3 989.45-268.75 295.97h423.55v127.53H700.95v-127.53l266.24-294.74L702.14 714.5V586.97h596.96V714.5H881.71l262.59 274.95z"/></svg>