<svg height="30" width="30" xmlns="http://www.w3.org/2000/svg"><g fill="none"><path d="M15 0C6.716 0 0 6.716 0 15s6.716 15 15 15 15-6.716 15-15S23.284 0 15 0z" fill="#029fe4"/><path d="M9.134 12.708H7.648a.111.111 0 0 0-.106.08l-.537 1.79a.112.112 0 0 0 .017.099.11.11 0 0 0 .089.045h1.584a7.363 7.363 0 0 0-.023.524c0 .227.017.457.038.687H7.648a.111.111 0 0 0-.106.079l-.537 1.791a.111.111 0 0 0 .106.143h2.085c1.098 2.722 3.788 4.547 6.722 4.547 1.647 0 3.26-.568 4.54-1.6a.11.11 0 0 0 .017-.155l-1.123-1.396a.11.11 0 0 0-.156-.017 5.173 5.173 0 0 1-3.278 1.154 5.236 5.236 0 0 1-4.47-2.533h5.336a.11.11 0 0 0 .104-.073l.657-1.791a.112.112 0 0 0-.013-.102.11.11 0 0 0-.091-.047h-6.708a5.265 5.265 0 0 1-.048-.687c0-.173.014-.349.031-.524h6.068a.11.11 0 0 0 .104-.073l.657-1.791a.11.11 0 0 0-.104-.15h-6.087a5.21 5.21 0 0 1 4.564-2.695c1.207 0 2.34.4 3.278 1.154a.11.11 0 0 0 .156-.017l1.123-1.395a.111.111 0 0 0-.017-.157A7.264 7.264 0 0 0 15.918 8a7.271 7.271 0 0 0-6.784 4.708z" fill="#fff"/></g></svg>