<svg width="30" height="30" fill="none" xmlns="http://www.w3.org/2000/svg"><mask id="a" mask-type="alpha" maskUnits="userSpaceOnUse" x="0" y="0" width="30" height="30"><path fill="#2E3035" d="M0 0h30v30H0z"/></mask><g mask="url(#a)"><path fill-rule="evenodd" clip-rule="evenodd" d="M30 15 15 0 0 15l15 15 15-15ZM8.707 17.424h-1.89v-1.289h1.707c-.021-.29-.032-.59-.032-.891 0-.322.01-.634.043-.935H6.816V13.02h1.902c.752-3.427 3.276-5.543 6.703-5.543 3.276 0 5.661 1.998 6.134 4.673H19.62c-.483-1.633-2.073-2.879-4.2-2.879-2.256 0-3.996 1.418-4.673 3.75h6.23v1.288H10.5c-.021.3-.043.613-.043.935 0 .311.01.601.043.891h6.478v1.29h-6.242c.645 2.373 2.396 3.802 4.695 3.802 2.191 0 3.641-1.02 4.19-2.514h1.933c-.688 2.643-2.804 4.308-6.134 4.308-3.47 0-5.983-2.116-6.714-5.597Z" fill="#DD9323"/><mask id="b" mask-type="alpha" maskUnits="userSpaceOnUse" x="-1" y="0" width="32" height="17"><path fill-rule="evenodd" clip-rule="evenodd" d="M7.57 12.662c-2.07-.03-4.536.557-7.704 2.451-.268-.334.82-1.27.634-1.613.001-.498 2-1.73 2-2C7.5 8 13 .5 15 0c2.99 2.579 8.271 8.158 14 12 .008.194-.003.208 0 .501 0 .5.502.854.5 1.5-.748-.823 1.177.662 1.172.745-3.365 1.743-6.196 2.296-8.75 2.138-2.846-.176-5.225-1.238-7.377-2.2l-.245-.109c-2.27-1.011-4.314-1.878-6.73-1.913Z" fill="#2E3035"/></mask><g mask="url(#b)"><path fill-rule="evenodd" clip-rule="evenodd" d="M30 15 15 0 0 15l15 15 15-15ZM8.707 17.424h-1.89v-1.289h1.708c-.022-.29-.032-.59-.032-.891 0-.322.01-.634.043-.935h-1.72V13.02h1.902c.752-3.427 3.277-5.543 6.703-5.543 3.277 0 5.661 1.998 6.134 4.673h-1.933c-.484-1.633-2.074-2.879-4.2-2.879-2.257 0-3.997 1.418-4.674 3.75h6.23v1.288h-6.477c-.021.3-.043.613-.043.935 0 .311.011.601.043.891h6.478v1.29h-6.241c.644 2.373 2.395 3.802 4.694 3.802 2.191 0 3.642-1.02 4.19-2.514h1.933c-.687 2.643-2.804 4.308-6.134 4.308-3.47 0-5.983-2.116-6.714-5.597Z" fill="#F8D12E"/></g></g></svg>