<svg xmlns="http://www.w3.org/2000/svg" width="24" height="24" fill="none"><path fill="#00DCDC" d="M12 24c6.65 0 12-5.35 12-12S18.65 0 12 0 0 5.35 0 12s5.35 12 12 12z"/><path fill="#0A181E" fill-rule="evenodd" d="M14.081 15.158V6h1.737v9.315s0 .553.158.711c.158.158.79.158.79.158h1.813V18h-2.287s-.869 0-1.58-.71c-.71-.711-.63-2.132-.63-2.132zM7.526 8.842v2.053H5v1.737h2.526V18h1.737v-5.368h3.316v-1.737H9.263v-2.21s0-.553.158-.711c.157-.158.79-.158.79-.158h2.367V6H9.736s-.868 0-1.579.71c-.71.711-.631 2.132-.631 2.132z" clip-rule="evenodd"/></svg>