<svg fill="none" height="24" width="24" xmlns="http://www.w3.org/2000/svg"><path d="M12 24c6.627 0 12-5.373 12-12S18.627 0 12 0 0 5.373 0 12s5.373 12 12 12z" fill="#8247e5"/><path d="M15.971 9.432a1.016 1.016 0 0 0-.978 0l-2.245 1.284-1.526.837-2.245 1.284a1.015 1.015 0 0 1-.979 0l-1.784-1.005c-.288-.167-.49-.474-.49-.809V9.042a.9.9 0 0 1 .49-.81l1.756-.976c.288-.168.662-.168.978 0l1.756.976c.288.168.49.475.49.81v1.283l1.525-.865V8.177a.9.9 0 0 0-.49-.81L8.977 5.525a1.016 1.016 0 0 0-.979 0l-3.31 1.842a.9.9 0 0 0-.489.81v3.711a.9.9 0 0 0 .49.81l3.31 1.841c.287.168.661.168.978 0l2.245-1.255 1.526-.866 2.245-1.255c.287-.168.662-.168.978 0l1.756.976c.288.168.49.475.49.81v1.981a.9.9 0 0 1-.49.81l-1.756 1.004a1.015 1.015 0 0 1-.978 0l-1.756-.977c-.288-.167-.49-.474-.49-.809v-1.284l-1.525.865v1.284a.9.9 0 0 0 .49.81l3.31 1.841c.287.168.661.168.978 0l3.31-1.842c.288-.167.49-.474.49-.809v-3.711a.9.9 0 0 0-.49-.81z" fill="#fff"/></svg>