<svg fill="none" height="512" width="512" xmlns="http://www.w3.org/2000/svg"><path d="M512 261.006c0 4.653 0 9.305-.542 13.957 0 4.071-.543 7.56-1.085 11.05a188.58 188.58 0 0 1-3.255 24.425c-.543 4.07-1.627 7.56-2.17 11.049-3.797 15.702-8.679 30.24-15.189 44.779-1.627 4.071-3.255 7.56-5.424 11.049-4.34 8.723-9.222 16.865-14.647 25.007-2.17 4.07-4.882 7.56-8.137 11.049-6.51 8.723-13.019 16.865-20.614 24.425-3.797 4.071-7.594 7.56-11.934 11.049-9.222 8.723-19.529 16.283-30.378 22.68-6.509 4.071-13.019 8.142-19.529 11.05-29.293 15.12-62.383 23.262-97.1 23.262h-52.077V14.431h52.077c37.43 0 73.232 9.887 104.695 27.333 6.51 3.49 12.477 6.979 18.444 11.05 10.849 6.978 20.613 15.12 29.835 24.424 3.798 3.49 7.595 7.56 10.85 11.05 11.934 12.794 22.241 27.332 31.462 42.452 2.17 3.49 4.34 7.56 5.968 11.05 7.594 14.538 13.561 29.658 17.901 45.942 1.085 3.489 2.17 7.56 2.712 11.049 2.712 12.212 4.882 24.425 5.967 36.637.543 3.49.543 7.56 1.085 11.05C512 252.283 512 256.354 512 261.006z" fill="#cc9007"/><path d="M511.458 274.382c0 4.07-.542 7.56-1.085 11.049h-64.011v-11.049zm-4.341 36.056c-.542 4.071-1.627 7.56-2.169 11.05H426.29v-11.05zm-17.358 55.828c-1.627 4.07-3.255 7.56-5.424 11.049h-77.573v-11.049zm-20.071 36.055c-2.17 4.071-4.882 7.56-8.137 11.05h-80.284v-11.05zm-28.208 36.057c-3.797 4.071-7.594 7.56-11.934 11.049h-75.402v-11.049zm-41.77 33.729c-6.509 4.07-13.019 8.141-19.529 11.049h-64.553v-11.049zm111.748-223.895h-69.435v-11.049h68.35c.542 3.489 1.085 7.56 1.085 11.049zm-6.511-48.268h-70.52v-11.049h67.265c1.085 3.489 2.17 7.56 3.255 11.049zm-21.155-56.992h-70.52v-11.049h64.553c2.17 3.489 3.797 6.978 5.967 11.049zm-37.43-54.082h-78.657V77.82h67.808c3.797 3.49 7.594 6.979 10.849 11.05zm-40.685-35.475h-75.944v-11.05h58.043c5.425 2.908 11.934 6.98 17.901 11.05z" fill="#aa7a06"/><path d="M459.924 261.007c0 135.5-102.526 245.993-229.462 245.993C103.525 507 1 397.088 1 261.007c0-135.5 102.525-245.994 229.462-245.994 126.936 0 229.462 109.912 229.462 245.994z" fill="#ffd000"/><path d="M420.866 261.006c0 112.82-85.166 204.122-190.404 204.122S40.057 373.826 40.057 261.006c0-112.819 85.167-204.122 190.405-204.122s190.404 91.303 190.404 204.122z" fill="#fcbc00"/><path d="M246.193 447.683c-105.238 0-190.404-91.303-190.404-204.123 0-51.757 18.444-99.444 48.279-135.499-39.057 37.218-64.01 91.884-64.01 152.364 0 112.82 85.166 204.122 190.404 204.122 56.416 0 107.408-26.751 142.125-68.622-33.632 32.567-77.572 51.758-126.394 51.758z" fill="#c57f0c"/><path d="M223.086 309.2v-60.444c0-33.638 24.707-61.946 56.074-62.738 32.311-.821 58.84 27.119 58.84 61.584v53.233c0 4.622-3.492 8.365-7.803 8.365z" fill="#cc9007"/><path clip-rule="evenodd" d="M214.931 248.756V309.2h15.222l-.042.001H123v-60.445c0-33.637 24.707-61.946 56.074-62.738 19.443-.494 36.792 9.426 47.527 24.916-7.338 10.587-11.67 23.737-11.67 37.822z" fill="#cc9007" fill-rule="evenodd"/></svg>