<svg width="463" height="448" fill="none" xmlns="http://www.w3.org/2000/svg"><path d="M443.442 328.738a192.919 192.919 0 0 1-9.371 17.076 218.01 218.01 0 0 1-3.957 6.144c-7.544 11.283-16.284 21.738-25.998 31.271a156.68 156.68 0 0 1-5.634 5.346c-10.911 9.981-22.962 18.859-35.869 26.514a173.521 173.521 0 0 1-7.654 4.367c-15.502 8.422-32.157 15.121-49.561 19.902-3.644 1.021-7.312 1.917-11.008 2.745a241.046 241.046 0 0 1-82.247 4.084 236.587 236.587 0 0 1-26.42-4.72c-24.808-5.846-49.495-15.798-73.119-30.291L302.971 17.543c26.267 9.427 49.575 22.757 69.721 38.94a234.405 234.405 0 0 1 19.489 17.492c19.744 19.725 35.589 42.442 47.226 66.697a267.937 267.937 0 0 1 4.651 10.31c7.027 16.611 12.132 33.82 15.228 51.22.509 2.917.978 5.823 1.366 8.739 2.084 14.914 2.673 29.913 1.694 44.69a199.971 199.971 0 0 1-.636 7.756c-1.391 13.587-4.089 26.965-8.196 39.902a143.293 143.293 0 0 1-2.339 6.943 185.507 185.507 0 0 1-7.733 18.506Z" fill="#00B500"/><path opacity=".6" d="M392.181 73.976 274.214 16.92l3.161-6.534 95.317 46.096a234.465 234.465 0 0 1 19.489 17.493ZM444.058 150.982 253.866 59.004l3.156-6.538 182.385 88.206a268.63 268.63 0 0 1 4.651 10.31ZM460.652 210.941 233.509 101.087l3.165-6.542 222.612 107.657c.509 2.918.978 5.824 1.366 8.739ZM461.71 263.387 213.153 143.176l3.161-6.536 246.032 118.991a199.971 199.971 0 0 1-.636 7.756ZM451.175 310.232 192.8 185.269l3.158-6.529 257.556 124.549a143.293 143.293 0 0 1-2.339 6.943ZM434.071 345.814a215.818 215.818 0 0 1-3.958 6.144L172.452 227.35l3.159-6.536 258.46 125ZM404.117 383.23a158.398 158.398 0 0 1-5.634 5.345L152.098 269.42l3.169-6.534 248.85 120.344ZM362.614 415.088a174.681 174.681 0 0 1-7.654 4.367L131.746 311.506l3.165-6.544 227.703 110.126ZM305.399 439.358c-3.645 1.021-7.312 1.917-11.009 2.745l-183.006-88.498 3.167-6.544 190.848 92.297ZM212.144 446.187a236.645 236.645 0 0 1-26.421-4.72L91.04 395.674l3.158-6.527 117.946 57.04Z" fill="#008700"/><path d="M417.394 315.572C364.652 424.616 233.487 470.274 124.43 417.53 15.377 364.788-30.27 233.629 22.472 124.589 75.215 15.516 206.369-30.134 315.428 22.609c109.056 52.739 154.706 183.9 101.966 292.963Z" fill="#00C800"/><path d="M411.32 312.639c-51.121 105.712-178.255 149.953-283.957 98.837-105.699-51.123-149.95-178.249-98.825-283.955C79.656 21.817 206.794-22.445 312.493 28.681c105.698 51.113 149.948 178.255 98.827 283.958Z" fill="#00B500"/><path d="M384.104 296.592c-.186.391-.382.788-.602 1.146-43.287 87.932-150.535 124.06-240.153 80.718-89.64-43.358-127.9-149.847-85.851-238.377.162-.389.353-.792.54-1.186C98.942 54.319 198.784 17.044 286.012 51.466a158.026 158.026 0 0 1 8.54 3.62c1.412.63 2.82 1.29 4.23 1.973 1.404.686 2.794 1.378 4.171 2.09a166.625 166.625 0 0 1 8.138 4.442c81.123 47.009 113.919 148.435 73.014 233.001Z" fill="#090"/><path d="M382.97 298.926c-43.539 90.041-151.858 127.712-241.874 84.178-90.047-43.55-127.73-151.825-84.188-241.871.189-.381.38-.783.59-1.154-42.05 88.53-3.788 195.019 85.852 238.377 89.618 43.342 196.866 7.214 240.153-80.718-.15.408-.343.801-.533 1.188Z" fill="#008700"/><path d="m227.051 191.46-48.144-90.86h-58.175v86.73h-25.37v31.27h56.05v-86.73h8.817l48.144 90.27h132.429v-30.68H227.051ZM278.852 287.036l-34.805-52.506H95.362v31.27h132.16l43.119 64.31h39.481V265.8h30.68v-31.27h-61.95v52.506Z" fill="#fff"/><path d="M152.002 274.65h-30.68v55.46h30.68v-55.46ZM309.532 104.14h-31.27v77.88h31.27v-77.88Z" fill="#fff"/></svg>