<svg width="30" height="30" fill="none" xmlns="http://www.w3.org/2000/svg"><mask id="a" mask-type="alpha" maskUnits="userSpaceOnUse" x="0" y="0" width="30" height="30"><path fill="#2E3035" d="M0 0h30v30H0z"/></mask><g mask="url(#a)"><path fill-rule="evenodd" clip-rule="evenodd" d="M30 15 15 0 0 15l15 15 15-15Zm-18.8-3.857V22H9.5v-6.7H6V14h3.5V8h1.671l7.477 10.895h.152V8h1.7v6H24v1.3h-3.5V22h-1.671l-7.477-10.857H11.2Z" fill="#5428DB"/><mask id="b" mask-type="alpha" maskUnits="userSpaceOnUse" x="-1" y="0" width="32" height="17"><path fill-rule="evenodd" clip-rule="evenodd" d="M7.57 12.662c-2.07-.03-4.536.557-7.704 2.451-.268-.334.82-1.27.634-1.613.001-.498 2-1.73 2-2C7.5 8 13 .5 15 0c2.99 2.579 8.271 8.158 14 12 .008.194-.003.208 0 .501 0 .5.502.854.5 1.5-.748-.823 1.177.662 1.172.745-3.365 1.743-6.196 2.296-8.75 2.138-2.846-.176-5.225-1.238-7.377-2.2l-.245-.109c-2.27-1.011-4.314-1.878-6.73-1.913Z" fill="#2E3035"/></mask><g mask="url(#b)"><path fill-rule="evenodd" clip-rule="evenodd" d="M30 15 15 0 0 15l15 15 15-15Zm-18.8-3.857V22H9.5v-6.7H6V14h3.5V8h1.671l7.477 10.895h.153V8h1.7v6H24v1.3h-3.5V22h-1.672l-7.476-10.857H11.2Z" fill="#6A53F3"/></g></g></svg>