<svg width="56" height="56" fill="none" xmlns="http://www.w3.org/2000/svg"><path fill="#7075E9" d="M0 0h56v56H0z"/><path d="M35.02 14.156c-.649.649-1.762.846-2.41.197l-2.82-2.818a1.826 1.826 0 0 0-2.58 0l-2.82 2.818c-.648.649-1.761.452-2.41-.197a5.533 5.533 0 0 0-7.824 7.824c.649.649.846 1.762.197 2.41l-2.818 2.82a1.826 1.826 0 0 0 0 2.58l2.818 2.82c.649.648 1.762.45 2.41-.198a5.533 5.533 0 0 1 7.825 7.824c-.649.649-.846 1.762-.197 2.41l2.818 2.82a1.826 1.826 0 0 0 2.582 0l2.818-2.82c.65-.648 1.762-.45 2.411.198a5.533 5.533 0 0 0 7.824-7.824c-.649-.649-.846-1.762-.197-2.41l2.818-2.82a1.826 1.826 0 0 0 0-2.58l-2.818-2.82c-.649-.648-.452-1.761.197-2.41a5.533 5.533 0 0 0-7.824-7.824Z" fill="#fff"/></svg>