<svg fill="none" height="836" width="836" xmlns="http://www.w3.org/2000/svg"><circle cx="418" cy="418" fill="#d52626" r="418"/><circle cx="418" cy="418" r="346" stroke="#fff" stroke-width="60"/><path d="M506.789 492.16c23.847-11.418 42.813-28.156 56.899-50.213 14.085-22.057 21.122-47.854 21.111-77.391 0-21.269-3.713-40.764-11.139-58.485-7.427-17.72-17.887-32.884-31.382-45.492-13.492-12.6-29.425-22.347-47.801-29.24S455.962 221 434.059 221h-131.05L238 319.654h196.076c14.078 0 25.614 4.432 34.608 13.294s13.492 20.777 13.492 35.744-4.498 26.88-13.492 35.738c-8.994 8.859-20.53 13.29-34.608 13.294H303.009L238 507.522h155.021L469.271 605H603l-96.194-112.84z" fill="#fff"/></svg>