<svg fill="none" height="24" width="24" xmlns="http://www.w3.org/2000/svg"><clipPath id="a"><path d="M0 0h23.73v24H0z"/></clipPath><g clip-path="url(#a)"><path d="M17.375 2.111a15.275 15.275 0 0 0-1.686 2.001l-.16-.052c-.916-.3-1.867-.484-2.825-.547a22.106 22.106 0 0 0-1.716 0c-1.06.07-1.874.23-2.799.551-.037.015-.07.026-.103.037a15.053 15.053 0 0 0-1.742-1.986 12.107 12.107 0 0 1 10.883-.078zm5.724 14.027a11.547 11.547 0 0 1-2.07 3.631 12.864 12.864 0 0 1-1.62 1.587 11.95 11.95 0 0 1-4.671 2.304 12.241 12.241 0 0 1-5.74 0 11.926 11.926 0 0 1-4.67-2.304 12.867 12.867 0 0 1-1.62-1.587A11.413 11.413 0 0 1 .638 8.646c.25-.707.565-1.387.942-2.034.174-.296.389-.629.492-.766.355 1.528.792 2.87.954 3.354a.836.836 0 0 1-.04.082c-.862 1.745-1.328 3.428-1.439 5.218 0 .022-.004.048-.004.07-.03.536-.014.791.074 1.128.278 1.054 1.132 2.215 2.47 3.354 2.194 1.864 5.167 3.21 7.419 3.365 2.348.16 5.813-1.213 8.12-3.217.363-.322.703-.662 1.021-1.025.23-.266.57-.724.544-.724-.007 0 0-.008.015-.015.01-.008.022-.019.014-.026-.003-.004.004-.015.015-.019s.019-.01.015-.018 0-.015.015-.019c.01-.003.015-.014.01-.022s0-.015.008-.015.015-.01.015-.018.008-.019.015-.019.015-.007.015-.014c.01-.03.03-.06.048-.085.055-.085.277-.481.307-.548.21-.477.344-.902.407-1.327.029-.204.048-.577.033-.666-.004-.015-.004-.04-.008-.081-.007-.074-.01-.185-.018-.296-.007-.166-.022-.4-.033-.514-.16-1.679-.588-3.05-1.402-4.504a1.296 1.296 0 0 1-.081-.156c-.008-.01-.011-.022-.015-.03.115-.343.584-1.782.958-3.427l.007.007.056.074c.096.13.35.514.466.7.52.85.928 1.763 1.216 2.717a11.54 11.54 0 0 1-.17 7.008z" fill="#f00500"/><g fill="#000"><path d="M18.299 11.719c-.012.059-.185.237-.36.366-.51.373-1.423.721-2.351.887-.529.097-1.058.111-1.217.034-.103-.052-.118-.093-.081-.226.078-.277.329-.58.721-.865.2-.144 1.01-.636 1.387-.843.621-.34 1.124-.544 1.464-.592.107-.015.237-.018.278 0 .066.026.14.222.17.459.014.125.007.68-.011.78zm-8.713 1.224c-.023.044-.133.092-.26.11a4.18 4.18 0 0 1-.728-.018c-.784-.103-1.616-.344-2.222-.64-.34-.166-.584-.332-.766-.513l-.103-.108-.011-.14c-.019-.244-.015-.629.014-.766.019-.114.06-.225.115-.325.03-.037.03-.037.163-.037.163 0 .3.026.521.096.455.14 1.132.48 1.956.976.68.407.936.607 1.132.88.133.17.222.41.189.485zm5.237 5.147c0 .012-.044.19-.1.4s-.1.38-.1.388c-.04.004-.077.008-.118.004h-.118l-.163.384c-.089.211-.17.407-.181.437l-.022.052-.078-.126-.078-.126V18.48l-.03.007c-.062.015-.51.074-.706.093-.81.081-1.623.063-2.43-.052-.129-.019-.24-.033-.243-.03s0 .24.007.533l.011.525-.063.096c-.033.052-.066.096-.066.1-.011.011-.048-.048-.133-.218a2.503 2.503 0 0 1-.208-.562l-.025-.108-.115.008-.115.011-.03-.137a3.911 3.911 0 0 1-.04-.251l-.011-.119-.096-.085a3.413 3.413 0 0 0-.122-.103c-.019-.015-.026-.04-.026-.063v-.045l.462.004.462.004.015.048.015.048.159.007c.089.004.37.011.621.019l.462.011.119-.185.122-.185h.155l-.004-.384-.003-.385-.204-.089c-.654-.288-1.039-.617-1.183-1.017-.03-.081-.03-.11-.037-.48-.004-.367-.004-.4.022-.481a.537.537 0 0 1 .381-.377c.063-.019.23-.019 1.102-.019l1.028.004.115.055c.137.067.2.115.277.218.089.119.115.211.115.437 0 .322-.022.599-.056.71a1.534 1.534 0 0 1-.214.425 1.97 1.97 0 0 1-.829.58l-.088.034.003.388.004.389.081.007.082.007.11.167.108.166h.495c.274 0 .515.004.537.008.037.007.044.003.081-.06l.044-.066h.426c.318-.015.414-.007.414.004z"/><path d="M12.87 19.152c-.07.04-.118.059-.129.052-.011-.004-.063-.049-.118-.09l-.1-.08-.104.11c-.225.244-.233.256-.3.26-.103.01-.125-.008-.25-.197-.067-.096-.12-.177-.12-.177s-.047-.008-.103-.011l-.103-.011-.048.1-.048.1-.085-.027a1.807 1.807 0 0 1-.196-.077l-.111-.056v-.21l.983.003.984.004.004.1c.003.118.007.114-.156.207z"/></g><path d="M22.115 14.64c-.004-.015-.004-.04-.007-.081a7.864 7.864 0 0 0-5.773 1.786s-.758-3.476-4.308-3.476-4.867 3.476-4.867 3.476c-1.99-2.141-4.652-1.986-5.613-1.845 0 .022-.004.048-.004.07-.03.536-.015.791.074 1.128.277 1.054 1.132 2.215 2.47 3.354 2.193 1.864 5.166 3.21 7.419 3.365 2.348.16 5.813-1.213 8.12-3.217.363-.322.703-.662 1.021-1.024.23-.267.57-.725.544-.725-.008 0 0-.008.014-.015.012-.007.023-.019.015-.026-.003-.004.004-.015.015-.018s.019-.011.015-.019 0-.015.015-.018c.01-.004.014-.015.01-.023s0-.014.008-.014.015-.012.015-.019.007-.018.015-.018.014-.008.014-.015a9.422 9.422 0 0 0 .355-.633 5.1 5.1 0 0 0 .407-1.327c.022-.204.04-.577.026-.666zm-9.245 4.512c-.07.04-.118.059-.13.052-.01-.004-.062-.048-.118-.09l-.1-.08-.103.11c-.226.245-.233.256-.3.26-.103.01-.125-.008-.251-.197-.067-.096-.118-.177-.118-.177s-.048-.008-.104-.011l-.103-.011-.048.1-.049.1-.085-.027a1.807 1.807 0 0 1-.196-.077l-.11-.056v-.21l.983.003.984.004.003.1c.004.118.008.114-.155.207zm1.85-.666c-.056.21-.1.381-.1.388-.041.004-.078.008-.12.004h-.117l-.16.388c-.088.211-.17.407-.18.437l-.023.052-.077-.126-.078-.126V18.48l-.03.007c-.063.015-.51.074-.706.093-.81.081-1.623.063-2.43-.052-.129-.019-.24-.033-.244-.03s0 .24.008.533l.01.525-.062.096c-.033.052-.067.096-.067.1-.01.011-.048-.048-.133-.218a2.493 2.493 0 0 1-.207-.562l-.026-.108-.114.008-.115.01-.03-.136a3.895 3.895 0 0 1-.04-.252l-.011-.118-.096-.085a3.413 3.413 0 0 0-.123-.103c-.018-.015-.025-.041-.025-.063v-.045l.462.004.462.004.015.048.015.048.159.007c.088.004.37.011.62.019l.463.01.119-.184.122-.185h.155l-.004-.385-.003-.384-.204-.089c-.654-.288-1.039-.617-1.183-1.017-.03-.081-.03-.11-.037-.48-.004-.367-.004-.4.022-.481a.538.538 0 0 1 .38-.377c.064-.019.23-.019 1.103-.019l1.028.004.115.055a.65.65 0 0 1 .277.218c.089.119.115.211.115.437 0 .322-.023.599-.056.71a1.53 1.53 0 0 1-.215.425 1.97 1.97 0 0 1-.828.58l-.089.034.004.388.004.389.081.007.082.007.11.167.108.166h.495c.274 0 .514.004.536.008.037.007.045.003.082-.06l.044-.066h.425c.33 0 .426.004.426.015-.011-.004-.06.177-.115.384z" fill="#fff"/><path d="M22.085 14.263a12.49 12.49 0 0 0-.033-.514c-.16-1.679-.588-3.05-1.402-4.504a1.267 1.267 0 0 1-.081-.155l-.015-.03c.115-.344.584-1.782.958-3.428.507-2.234.828-4.844-.155-5.628 0 0-1.701-.126-3.98 2.107a15.276 15.276 0 0 0-1.686 2.001l-.159-.052c-.917-.3-1.867-.484-2.825-.547a22.106 22.106 0 0 0-1.716 0c-1.061.07-1.875.23-2.8.551-.036.015-.07.026-.103.037a15.053 15.053 0 0 0-1.742-1.986C3.976-.13 2.212 0 2.212 0c-1.043.81-.688 3.539-.148 5.846.355 1.528.792 2.87.954 3.355a.831.831 0 0 1-.04.08C2.116 11.028 1.65 12.71 1.539 14.5c.965-.14 3.624-.3 5.617 1.845 0 0 1.317-3.476 4.867-3.476s4.308 3.476 4.308 3.476a7.882 7.882 0 0 1 5.773-1.786 20.98 20.98 0 0 0-.019-.296zM3.717 7.806S2.334 4.35 2.69 2.374c.06-.333.17-.625.344-.847 0 0 1.568.156 4.097 2.966 0 0-.48.233-1.124.728 0 0-.003.004-.007.004a8.89 8.89 0 0 0-2.282 2.581zm5.869 5.137c-.022.044-.133.092-.259.11a4.18 4.18 0 0 1-.728-.018c-.784-.103-1.616-.344-2.223-.64-.34-.166-.584-.332-.765-.513l-.104-.108-.011-.14c-.019-.244-.015-.629.015-.766.018-.114.059-.225.114-.325.03-.037.03-.037.163-.037.163 0 .3.026.521.096.455.14 1.132.48 1.957.976.68.407.935.607 1.131.88.133.17.222.41.189.485zm8.712-1.224c-.01.059-.184.237-.358.366-.51.373-1.424.721-2.352.887-.53.097-1.058.111-1.217.034-.103-.052-.118-.093-.081-.226.077-.277.329-.58.72-.865.2-.144 1.01-.636 1.388-.843.62-.34 1.124-.544 1.464-.592.107-.015.237-.018.277 0 .067.026.14.222.17.459.015.125.008.68-.01.78zm-.613-6.498-.008-.003c-.621-.496-1.087-.729-1.087-.729 2.444-2.81 3.957-2.966 3.957-2.966.166.226.273.515.333.847.344 1.975-.991 5.436-.991 5.436a8.808 8.808 0 0 0-2.204-2.585z" fill="#ffa409"/><path d="M20.883 2.37c-.288-.037-1.653-.044-3.199 2.851l-.007-.003c-.621-.496-1.087-.729-1.087-.729 2.444-2.81 3.957-2.966 3.957-2.966.17.226.277.514.336.847z" fill="#ff9300"/><path d="M19.891 7.806a8.774 8.774 0 0 0-2.207-2.584c1.545-2.896 2.906-2.889 3.198-2.852.344 1.979-.99 5.436-.99 5.436zm1.047-5.425-.055-.01z" fill="#ff8300"/><path d="M7.13 4.49s-.48.232-1.124.728c0 0-.003.003-.007.003-1.601-2.899-3.01-2.888-3.313-2.85.059-.334.17-.626.343-.848.004 0 1.572.156 4.102 2.966z" fill="#ff9300"/><path d="M6.003 5.222a8.864 8.864 0 0 0-2.286 2.584S2.334 4.35 2.69 2.37c.3-.037 1.712-.044 3.314 2.852zM2.69 2.37l-.06.011z" fill="#ff8300"/><path d="M16.15 9.726s-1.184.074-1.036-.85c.148-.925 1.073-1.036 1.332-1 .258.038 1.294.407 1.109 1.184s-.444.629-.592.666c-.148.037-.813 0-.813 0zm-8.727 0s-1.183.074-1.035-.85 1.072-1.036 1.331-1 1.294.407 1.11 1.184-.444.629-.592.666-.814 0-.814 0z" fill="#fff"/></g></svg>