<svg fill="none" height="68" width="60" xmlns="http://www.w3.org/2000/svg"><path d="M14.718 59.203.538 51.01V18.114l.233.141c.127.077 3.048 1.766 6.49 3.752l11.552 6.667c2.91 1.68 6.393 3.688 7.74 4.461l2.446 1.406.003 16.432c.002 9.038-.022 16.43-.051 16.427-.03-.003-6.435-3.691-14.233-8.197zM3.634 17.604c-1.11-.637-2.011-1.182-2.003-1.21.009-.029 2.784-1.65 6.167-3.603l13.578-7.838c4.086-2.358 7.505-4.31 7.56-4.33.085-.033.068.327.067 2.315l-.002 2.35-1.983 1.14a27446.936 27446.936 0 0 0-21.08 12.168l-.286.167z" fill="#6952f1"/><path d="M31.042 51.6c0-8.714.009-12.279.019-7.922s.01 11.486 0 15.843c-.01 4.356-.019.792-.019-7.922zm14.356-9.906a5481.417 5481.417 0 0 1-14.18-8.202c-.14-.094-.142-.198-.123-7.695l.02-7.599 14.121 8.153c7.768 4.484 14.148 8.179 14.18 8.211s.05 3.474.04 7.648l-.018 7.59zm-.122-17.672-14.161-8.176-.019-7.624-.018-7.624.161.084c.089.046 2.962 1.7 6.384 3.675l13.947 8.046c4.249 2.45 7.765 4.492 7.815 4.537.07.066.085 1.659.071 7.67l-.018 7.588zm-29.483.585-2.019-1.168 7.575-4.373c4.166-2.405 7.593-4.373 7.616-4.373s.034 1.049.023 2.33l-.019 2.33-5.507 3.184a856.748 856.748 0 0 1-5.579 3.21c-.04.015-.98-.498-2.09-1.14zm-6.028-3.483c-1.082-.626-1.967-1.168-1.967-1.207 0-.038 4.63-2.743 10.29-6.01 5.66-3.269 10.432-6.024 10.604-6.125l.313-.183v2.349l-.002 2.349-8.237 4.756a6499.964 6499.964 0 0 1-8.636 4.982l-.398.225z" fill="#5327da"/><path d="M31.079 51.598c0-8.7.026-15.807.058-15.794s6.193 3.565 13.69 7.892c10.106 5.833 13.61 7.888 13.549 7.947-.056.054-25.802 14.93-27.243 15.741-.03.017-.054-7.087-.054-15.786zm-3.54-20.208c-.787-.455-1.456-.852-1.488-.883-.03-.03.62-.446 1.449-.922l1.505-.866v1.749c0 .962-.009 1.748-.018 1.748-.01 0-.662-.372-1.449-.826zm-5.661-3.265-2.013-1.162.189-.115c.316-.19 8.617-4.976 8.79-5.066l.16-.085v2.345l-.002 2.345-2.478 1.43c-1.363.787-2.513 1.44-2.556 1.45-.042.01-.983-.504-2.09-1.142z" fill="#371990"/></svg>