<svg fill="none" height="56" width="56" xmlns="http://www.w3.org/2000/svg"><path d="M0 0h56v56H0z" fill="#333438"/><path d="M24.666 23.985a6.478 6.478 0 0 1-.312-.274c-.944-.887-1.415-1.988-1.415-3.303 0-1.601.436-2.845 1.308-3.732.872-.886 2.102-1.33 3.689-1.33 1.744 0 3.08.53 4.01 1.588s1.394 2.552 1.394 4.482h3.946c0-1.744-.386-3.346-1.158-4.804a8.338 8.338 0 0 0-3.303-3.41c-1.43-.83-3.06-1.244-4.89-1.244-2.673 0-4.84.801-6.498 2.402-1.644 1.602-2.466 3.639-2.466 6.112 0 1.302.237 2.473.71 3.513h-3.348v3.569H32.25c-1.006-.532-2.18-1.02-3.52-1.463-1.767-.627-3.121-1.33-4.063-2.106zm8.087 9.059c.391.723.587 1.615.587 2.677 0 1.53-.436 2.738-1.308 3.624-.872.886-2.173 1.33-3.903 1.33-1.859 0-3.332-.536-4.418-1.609-1.072-1.072-1.609-2.573-1.609-4.504h-3.946c0 1.86.436 3.51 1.309 4.955.886 1.43 2.094 2.544 3.624 3.345 1.544.786 3.224 1.18 5.04 1.18 2.83 0 5.068-.758 6.712-2.274 1.645-1.53 2.467-3.56 2.467-6.09 0-.95-.104-1.827-.312-2.634h2.67v-3.569H26.854c.213.081.43.161.654.24 2.202.787 3.724 1.595 4.568 2.424.269.265.495.566.678.905z" fill="#ffc700"/></svg>