<svg width="400" height="400" fill="none" xmlns="http://www.w3.org/2000/svg"><path fill="#fff" d="M0 0h400v400H0z"/><path d="M317.988 149.153c-7.739-2.45-10.719-1.457-17.34 9.798-5.313 9.03-8.397 13.468-10.427 11.368" stroke="#1BC6EC" stroke-width="2"/><path d="M70.34 232.528s-6 38.154 37.44 38.154c43.439 0 68.066-69.734 86.352-106.909C212.444 126.567 244.464 100 275.09 100c30.626 0 52.727 25.099 59.199 38.948 6.473 13.849 5.447 31.489 1.789 42.74-3.657 11.25-16.944 29.899-21.469 24.64-4.526-5.258 5.683-12.351 5.683-37.297 0-24.947-9.893-22.715-14.208-18.771-6.314 6.756-11.735 24.396-16.365 20.972-4.236-3.149 10.051-34.791-13.261-34.21-21.706.551-49.254 69.154-42.123 77.408 7.13 8.285 24.205-17.885 29.757-11.434 5.552 6.451-31.626 59.03-67.171 79.421-35.546 20.391-62.646 15.897-80.433 13.635-17.786-2.262-47.175-11.613-53.752-35.887-6.578-24.274 7.603-27.637 7.603-27.637Z" fill="url(#a)"/><mask id="c" style="mask-type:alpha" maskUnits="userSpaceOnUse" x="35" y="219" width="70" height="58"><path d="M80.395 222.43c-8.08-9.346-26.4 5.607-27.477 1.869-.538 0-15.839 10.654-17.778 15.888-1.94 5.233 25.052 24.299 28.284 30.841l41.215 5.607c.27-1.557-.969-5.42-8.081-8.411-8.89-3.738-8.081-36.448-16.163-45.794Z" fill="url(#b)"/></mask><g mask="url(#c)"><path opacity=".5" d="M70.339 232.528s-5.999 38.154 37.44 38.154 68.066-69.734 86.352-106.91C212.443 126.567 244.464 100 275.09 100c30.625 0 52.726 25.099 59.199 38.948 6.472 13.849 5.446 31.489 1.789 42.739-3.657 11.251-16.944 29.9-21.47 24.641-4.525-5.258 5.683-12.351 5.683-37.297 0-24.947-9.892-22.715-14.207-18.771-6.315 6.756-11.735 24.396-16.366 20.972-4.236-3.149 10.051-34.791-13.26-34.21-21.707.551-49.254 69.153-42.124 77.408 7.13 8.285 24.206-17.885 29.758-11.434 5.551 6.451-31.626 59.03-67.172 79.421-35.546 20.391-62.646 15.897-80.432 13.635-17.786-2.262-47.175-11.613-53.753-35.887-6.578-24.274 7.604-27.637 7.604-27.637Z" fill="url(#d)"/></g><g style="mix-blend-mode:overlay" opacity=".45"><mask id="f" style="mask-type:alpha" maskUnits="userSpaceOnUse" x="209" y="90" width="129" height="140"><path d="M259.932 154.206c19.68-21.794 55.651-29.797 77.432-36.029L259.932 90.84l-50.025 34.796 14.407 104.285c10.261-20.509 26.349-65.451 35.618-75.715Z" fill="url(#e)"/></mask><g mask="url(#f)"><path d="M70.339 232.528s-5.999 38.154 37.44 38.154 68.066-69.734 86.352-106.909C212.443 126.567 244.464 100 275.09 100c30.625 0 52.726 25.099 59.199 38.948 6.472 13.849 5.446 31.489 1.789 42.74-3.657 11.25-16.944 29.899-21.47 24.64-4.525-5.258 5.683-12.351 5.683-37.297 0-24.947-9.892-22.715-14.207-18.771-6.315 6.756-11.735 24.396-16.366 20.972-4.236-3.149 10.051-34.791-13.26-34.21-21.707.551-49.254 69.154-42.124 77.408 7.13 8.285 24.206-17.885 29.758-11.434 5.551 6.451-31.626 59.03-67.172 79.421-35.546 20.391-62.646 15.897-80.432 13.635-17.786-2.262-47.175-11.613-53.753-35.887-6.578-24.274 7.604-27.637 7.604-27.637Z" fill="url(#g)" style="mix-blend-mode:darken"/></g></g><mask id="h" style="mask-type:alpha" maskUnits="userSpaceOnUse" x="60" y="100" width="279" height="199"><path d="M70.338 232.528s-5.998 38.154 37.441 38.154 68.066-69.734 86.352-106.909C212.443 126.567 244.463 100 275.089 100c30.626 0 52.727 25.099 59.199 38.948 6.473 13.849 5.447 31.489 1.789 42.74-3.657 11.25-16.944 29.899-21.469 24.64-4.526-5.258 5.683-12.351 5.683-37.297 0-24.947-9.893-22.715-14.208-18.771-6.314 6.756-11.735 24.396-16.365 20.972-4.236-3.149 10.051-34.791-13.261-34.21-21.706.551-49.254 69.154-42.123 77.408 7.13 8.285 24.206-17.885 29.757-11.434 5.552 6.451-31.626 59.03-67.171 79.421-35.546 20.391-62.646 15.897-80.433 13.635-17.786-2.262-47.175-11.613-53.752-35.887-6.578-24.274 7.603-27.637 7.603-27.637Z" fill="#65E3FF"/></mask><g mask="url(#h)"><path d="M329.787 125.333c-17.223-16.232-59.267-16.7-81.781 24.68-22.513 41.38-21.092 55.49-13.646 64.417" stroke="#1BC6EC" stroke-width="2"/></g><path d="M244.365 155.972c-7.946 17.545-15.23 43.035-9.601 60.58" stroke="#1BC6EC" stroke-width="2"/><path d="M107.806 270.682c43.465 0 68.066-69.734 86.352-106.909C212.444 126.567 244.464 100 275.09 100c30.626 0 45.518 20.361 45.518 20.361s-21.566-15.345-52.096 5.044c-30.529 20.389-41.597 80.098-34.151 89.025 6.998 8.407 24.206-17.885 29.757-11.434 5.552 6.451-22.89 52.492-64.146 79.486-30.681 20.076-62.76 21.292-83.21 18.365-20.451-2.926-47.568-15.826-54.146-40.099-1.464-5.404-1.565-10.274-1.565-10.274s3.29 20.208 46.755 20.208Z" fill="url(#i)"/><path d="M107.806 270.682c43.465 0 68.066-69.734 86.352-106.909C212.444 126.567 244.464 100 275.09 100c30.626 0 45.518 20.361 45.518 20.361s-21.566-15.345-52.096 5.044c-30.529 20.389-41.597 80.098-34.151 89.025 6.998 8.407 24.206-17.885 29.757-11.434 5.552 6.451-22.89 52.492-64.146 79.486-30.681 20.076-62.76 21.292-83.21 18.365-20.451-2.926-47.568-15.826-54.146-40.099-1.464-5.404-1.565-10.274-1.565-10.274s3.29 20.208 46.755 20.208Z" fill="url(#j)" style="mix-blend-mode:overlay" opacity=".7"/><ellipse cx="304.949" cy="216.5" rx="4.198" ry="4.5" fill="#23A7ED"/><defs><linearGradient id="a" x1="164.442" y1="81.308" x2="226.247" y2="313.775" gradientUnits="userSpaceOnUse"><stop offset=".068" stop-color="#384BD9"/><stop offset=".568" stop-color="#23A6ED"/></linearGradient><linearGradient id="b" x1="67.465" y1="332.71" x2="197.247" y2="180.519" gradientUnits="userSpaceOnUse"><stop offset=".155" stop-color="#2C3A9E"/><stop offset=".451" stop-color="#24AAF2" stop-opacity="0"/></linearGradient><linearGradient id="d" x1="25.725" y1="293.116" x2="371.88" y2="203.819" gradientUnits="userSpaceOnUse"><stop offset=".004" stop-color="#2C3A9E"/><stop offset=".323" stop-color="#24AAF2"/></linearGradient><linearGradient id="e" x1="251.404" y1="79.914" x2="329.057" y2="209.023" gradientUnits="userSpaceOnUse"><stop offset=".115" stop-color="#2C3A9E"/><stop offset=".438" stop-color="#24AAF2" stop-opacity="0"/></linearGradient><linearGradient id="i" x1="82.531" y1="141.538" x2="231.689" y2="339.278" gradientUnits="userSpaceOnUse"><stop stop-color="#20D6B5"/><stop offset=".59" stop-color="#24AAF2"/><stop offset="1" stop-color="#384BD9"/></linearGradient><linearGradient id="j" x1="291.889" y1="63.5" x2="12.869" y2="208.208" gradientUnits="userSpaceOnUse"><stop stop-color="#fff" stop-opacity="0"/><stop offset=".208" stop-color="#FDFDFD" stop-opacity=".84"/><stop offset=".989" stop-color="#fff" stop-opacity="0"/></linearGradient><radialGradient id="g" cx="0" cy="0" r="1" gradientUnits="userSpaceOnUse" gradientTransform="rotate(75.036 77.382 206.604) scale(219.474 196.455)"><stop offset=".221" stop-color="#29379E"/></radialGradient></defs></svg>