<svg fill="none" height="24" width="24" xmlns="http://www.w3.org/2000/svg"><clipPath id="a"><path d="M4 3h16v18H4z"/></clipPath><path d="M12 24c6.627 0 12-5.373 12-12S18.627 0 12 0 0 5.373 0 12s5.373 12 12 12z" fill="#fff"/><g clip-path="url(#a)" fill="#ff007a"><path d="M10.274 7.094c-.2-.028-.21-.037-.114-.047.18-.027.599.01.894.075.684.158 1.302.566 1.958 1.28l.171.196.247-.037c1.056-.167 2.14-.038 3.042.37.248.112.637.335.685.39.019.02.048.14.067.26.066.437.038.762-.105 1.013-.076.139-.076.176-.029.297.038.093.153.158.257.158.228 0 .466-.353.58-.845l.048-.195.085.093c.485.529.865 1.262.922 1.782l.02.14-.086-.121a1.584 1.584 0 0 0-.457-.474c-.323-.213-.665-.278-1.568-.325-.818-.046-1.284-.111-1.74-.26-.78-.25-1.179-.575-2.1-1.773-.41-.529-.666-.817-.923-1.058-.561-.53-1.122-.808-1.854-.92z"/><path d="M17.358 8.273c.02-.353.067-.585.171-.799.038-.083.076-.158.086-.158s-.01.065-.038.14c-.076.204-.086.492-.038.817.066.417.095.473.551.928.21.213.457.483.552.594l.161.204-.161-.148c-.2-.186-.656-.539-.76-.585-.068-.037-.077-.037-.125.01-.038.036-.047.092-.047.361-.01.418-.067.678-.21.947-.075.14-.085.112-.018-.046.047-.121.057-.177.057-.576 0-.808-.095-1.002-.675-1.327a7.16 7.16 0 0 0-.532-.27 2.12 2.12 0 0 1-.257-.12c.019-.019.58.139.798.232.333.13.39.14.428.13.029-.028.048-.102.057-.334zm-6.693 1.383c-.399-.538-.655-1.374-.598-1.996l.018-.195.096.019c.17.028.465.14.608.223.38.222.551.529.713 1.29.048.223.114.483.143.566.047.14.228.464.38.669.104.148.038.223-.2.204-.361-.037-.846-.362-1.16-.78zm6.207 4.038c-1.882-.743-2.548-1.383-2.548-2.47 0-.157.01-.287.01-.287.01 0 .076.056.161.12.38.298.808.428 1.997.595.694.102 1.093.176 1.454.297 1.15.371 1.864 1.132 2.035 2.163.047.297.019.863-.057 1.16-.067.232-.257.66-.304.669-.01 0-.029-.047-.029-.121-.019-.39-.219-.761-.551-1.05-.4-.333-.913-.584-2.168-1.076zM15.541 14a2.158 2.158 0 0 0-.095-.39l-.047-.138.085.102c.124.139.219.306.304.538.067.177.067.232.067.52 0 .279-.01.343-.067.501a1.672 1.672 0 0 1-.399.622c-.342.344-.789.53-1.426.613-.114.01-.437.037-.722.056-.713.037-1.189.111-1.617.26-.057.018-.114.037-.123.027-.02-.018.276-.185.513-.297.333-.157.675-.24 1.426-.37.371-.057.751-.13.846-.168.942-.288 1.407-1.003 1.255-1.875z"/><path d="M16.405 15.495c-.247-.529-.304-1.03-.171-1.504.019-.046.038-.093.057-.093s.076.028.133.065c.114.075.352.205.96.53.77.408 1.208.724 1.512 1.086.266.315.428.677.504 1.123.047.25.019.854-.048 1.105-.209.789-.684 1.42-1.378 1.782-.105.056-.19.093-.2.093s.029-.093.086-.204c.228-.474.256-.929.085-1.44-.104-.315-.323-.696-.76-1.336-.523-.743-.647-.938-.78-1.207zm-7.08 2.841c.703-.576 1.568-.984 2.367-1.114.342-.056.913-.037 1.226.046.504.13.96.409 1.198.752.228.334.333.622.437 1.263.038.25.086.51.096.566.076.334.228.594.418.733.295.214.808.223 1.312.037.085-.027.161-.055.161-.046.02.019-.237.186-.408.27a1.38 1.38 0 0 1-.685.157c-.456 0-.846-.232-1.16-.696a5.193 5.193 0 0 1-.313-.613c-.333-.752-.504-.975-.894-1.225-.342-.214-.78-.26-1.112-.102-.438.204-.552.751-.248 1.086.124.139.352.25.542.278a.575.575 0 0 0 .656-.566c0-.223-.085-.353-.313-.455-.305-.13-.637.019-.628.306 0 .121.057.195.18.251.077.037.077.037.02.028-.276-.056-.343-.39-.124-.604.266-.26.827-.148 1.017.214.076.149.086.446.02.631-.162.409-.619.622-1.084.502-.314-.084-.447-.168-.827-.548-.666-.669-.923-.799-1.873-.938l-.181-.028z"/><path d="M4.324 3.4c2.215 2.626 5.628 6.71 5.799 6.934.142.185.085.362-.152.492a1.483 1.483 0 0 1-.542.148.694.694 0 0 1-.456-.195c-.086-.083-.457-.612-1.293-1.884a120.069 120.069 0 0 0-1.19-1.792c-.038-.018-.038-.018 1.122 2.005.732 1.272.97 1.727.97 1.783 0 .12-.038.185-.19.352-.257.279-.371.594-.457 1.254-.095.733-.351 1.253-1.084 2.135-.427.52-.494.612-.598.826-.134.26-.172.408-.19.743-.02.352.018.575.123.91.095.296.2.491.456.872.219.334.352.585.352.678 0 .074.02.074.361 0 .818-.186 1.493-.502 1.864-.892.228-.24.285-.37.285-.705 0-.214-.01-.26-.067-.39-.095-.204-.275-.371-.665-.631-.514-.344-.732-.622-.79-.994-.047-.315.01-.529.296-1.114.294-.603.37-.854.418-1.466.028-.39.076-.548.19-.669.124-.13.228-.176.523-.213.485-.065.798-.186 1.046-.418a.865.865 0 0 0 .323-.678l.01-.213-.124-.13C10.218 9.647 4.029 3 4 3c-.01 0 .143.176.324.4zm2.918 13.2a.378.378 0 0 0-.123-.51c-.162-.103-.41-.056-.41.083 0 .037.02.074.077.093.085.046.095.092.028.195-.066.102-.066.195.02.26.133.102.313.046.408-.121zm3.849-4.884c-.228.066-.446.307-.513.548-.038.149-.019.418.048.502.104.13.2.167.465.167.523 0 .97-.223 1.018-.492.047-.223-.152-.53-.428-.669a.989.989 0 0 0-.59-.056zm.609.465c.076-.112.047-.232-.095-.316-.257-.158-.647-.028-.647.214 0 .12.2.25.39.25.124 0 .295-.074.352-.148z" clip-rule="evenodd" fill-rule="evenodd"/></g></svg>