<svg fill="none" height="24" width="24" xmlns="http://www.w3.org/2000/svg"><clipPath id="a"><path d="M0 0h24v24H0z"/></clipPath><g clip-path="url(#a)"><g fill="#00a87a"><path d="M19.699 12.703a7.697 7.697 0 0 1-1.76 4.243l2.983 2.981c1.732-1.947 2.916-4.458 3.078-7.224z" opacity=".3"/><path d="m3.078 19.927 2.982-2.981a7.704 7.704 0 0 1-1.76-4.243H0c.162 2.766 1.345 5.277 3.078 7.224z" opacity=".7"/><path d="M12.703 0v4.301a7.744 7.744 0 0 1 6.996 6.996H24C23.647 5.267 18.732.353 12.703 0z" opacity=".17"/><path d="M0 11.297h4.301a7.744 7.744 0 0 1 6.996-6.996V0C5.267.353.353 5.268 0 11.297z"/><path d="m7.055 17.94-2.982 2.982C6.185 22.8 8.958 24 12 24c3.043 0 5.815-1.2 7.928-3.078l-2.982-2.982c-1.342 1.119-3.066 1.794-4.946 1.794s-3.604-.675-4.945-1.794z" opacity=".5"/></g><path clip-rule="evenodd" d="M12 18a6 6 0 1 0 0-12 6 6 0 0 0 0 12zm.326-1h-.613v-.948C10.198 15.96 9.04 15.117 9 13.707h1.323c.102.641.522 1.103 1.39 1.19v-2.34l-.312-.075c-1.459-.34-2.253-1.01-2.253-2.218 0-1.335 1.072-2.207 2.565-2.305v-.96h.613v.96c1.493.11 2.526.993 2.577 2.334h-1.322c-.08-.688-.556-1.086-1.255-1.173v2.247l.347.081c1.515.358 2.327.982 2.327 2.23 0 1.438-1.152 2.27-2.674 2.374zm-.613-7.886c-.783.093-1.197.526-1.197 1.034 0 .503.34.85 1.197 1.075zm.613 5.783c.903-.07 1.312-.497 1.312-1.075 0-.56-.318-.872-1.312-1.12z" fill="#03dfa3" fill-rule="evenodd"/></g></svg>