<svg fill="none" height="512" width="512" xmlns="http://www.w3.org/2000/svg"><circle cx="256" cy="256" fill="#7ee989" r="256"/><g fill="#2e3a59"><path clip-rule="evenodd" d="M396.211 359.648c-31.761 42.894-82.737 70.701-140.208 70.701-96.288 0-174.346-78.057-174.346-174.346 0-5.173.226-10.294.667-15.353H50.22a209.299 209.299 0 0 0-.563 15.353c0 113.962 92.385 206.346 206.346 206.346 76.182 0 142.722-41.284 178.467-102.701zm33.552-89.248c.388-4.748.586-9.549.586-14.397 0-96.288-78.057-174.346-174.346-174.346-60.956 0-114.606 31.283-145.771 78.669h-37.1c34.49-65.787 103.439-110.669 182.871-110.669 113.962 0 206.346 92.384 206.346 206.346 0 4.84-.167 9.64-.494 14.397z" fill-rule="evenodd"/><path d="m203.143 171.064 53.433 145.093 52.878-145.093h40.353l-74.863 188.673H237.93l-75.141-188.673z"/><path clip-rule="evenodd" d="M132.558 240.65h-73.38v29.749h73.38zm252.715 29.749h68.086V240.65h-68.086z" fill-rule="evenodd"/></g></svg>