<svg width="30" height="30" xmlns="http://www.w3.org/2000/svg"><g fill="none" fill-rule="evenodd"><path d="M15 30c8.284 0 15-6.716 15-15 0-2.678-.702-5.193-1.932-7.37-2.46 4.505-7.844 10.923-13.45 10.923-5.549 0-8.76-4.97-12.606-11.061A14.93 14.93 0 0 0 0 15c0 8.284 6.716 15 15 15Z" fill="#0096DC"/><path d="M.074 16.5A15.18 15.18 0 0 1 0 15c0-2.756.743-5.338 2.04-7.557a1.37 1.37 0 0 1 1.307.316l3.575 3.309c.983.91 2.493.91 3.476 0l3.576-3.309c.53-.49 1.341-.49 1.871 0l3.577 3.309c.982.91 2.493.91 3.475 0l3.575-3.309c.23-.212.513-.333.802-.363a1.36 1.36 0 0 1 .699.114.28.28 0 0 1 .042.028A14.931 14.931 0 0 1 30 15c0 .424-.018.844-.052 1.26l-2.553 2.552-9.718 9.718a3.952 3.952 0 0 1-5.572 0l-9.843-9.843L.074 16.5Z" fill="#0096DC"/><path d="M26.732 5.653c-.05.08-.111.156-.182.226l-2.668 2.669-1.788 1.653c-.53.49-1.34.49-1.87 0l-3.577-3.308a2.555 2.555 0 0 0-3.475 0L9.596 10.2c-.53.49-1.341.49-1.871 0L5.937 8.547 3.251 5.86a1.315 1.315 0 0 1-.08-.086A14.974 14.974 0 0 1 15 0c4.75 0 8.984 2.208 11.732 5.653Z" fill="#E6E6E6"/><path d="M7.492 20.445c0-.18.06-.325.182-.437a.645.645 0 0 1 .455-.168.65.65 0 0 1 .459.168.568.568 0 0 1 .182.437.56.56 0 0 1-.18.432.653.653 0 0 1-.461.166.647.647 0 0 1-.457-.166.56.56 0 0 1-.18-.432Zm3.545-3.672.035.489c.302-.378.707-.567 1.215-.567.448 0 .781.132 1 .395.219.263.33.656.336 1.18V21h-1.13v-2.703c0-.24-.051-.414-.155-.522-.105-.108-.278-.162-.52-.162a.777.777 0 0 0-.715.407V21H9.974v-4.227h1.063Zm5.627 4.305c-.62 0-1.125-.19-1.514-.57-.39-.38-.584-.887-.584-1.52v-.11c0-.424.082-.803.246-1.138.164-.334.397-.592.697-.773.301-.181.644-.272 1.03-.272.578 0 1.033.183 1.365.547.332.365.498.882.498 1.551v.46H15.71c.037.277.147.498.33.665.184.167.417.25.698.25.435 0 .775-.158 1.02-.473l.554.621c-.17.24-.398.427-.687.561-.29.134-.61.201-.961.201Zm-.13-3.469a.707.707 0 0 0-.544.227c-.14.151-.229.367-.268.648h1.57v-.09c-.005-.25-.072-.443-.203-.58-.13-.136-.315-.205-.554-.205Zm4.1-1.875v1.04h.723v.828h-.723v2.109c0 .156.03.268.09.336s.174.101.344.101a1.8 1.8 0 0 0 .332-.027v.856c-.222.067-.45.101-.684.101-.792 0-1.195-.4-1.21-1.2v-2.276h-.618v-.829h.617v-1.039h1.13Z" fill="#FFF"/></g></svg>