<svg fill="none" height="24" width="24" xmlns="http://www.w3.org/2000/svg"><path clip-rule="evenodd" d="M12 0c6.626 0 12 5.374 12 12s-5.374 12-12 12S0 18.626 0 12 5.374 0 12 0z" fill="#006ae3" fill-rule="evenodd"/><g fill="#fff"><path d="M11.506 17.06V7.074h1.087v9.984z"/><path d="m17.04 10.402-3.358.89-.749-3.485.999-.225.393 1.65s.907-1.487-.302-3.028c-.713-.792-1.051-.826-1.85-.95-.704-.101-2.338.136-2.826 2.044-.206 1.23.027 2.139 1.61 3.33l-.088 1.324S9.1 10.706 8.644 9.832c-.353-.69-.957-2.056.135-3.957.588-.95 1.747-1.862 3.79-1.766 1.026.043 3.534 1.298 3.146 4.231-.068.55-.353 1.282-.353 1.282l1.377-.308zm-1.917 7.811c-.615.934-1.798 1.815-3.835 1.666-1.028-.07-3.5-1.392-3.034-4.313.082-.547.386-1.27.386-1.27l-1.384.27-.272-1.092 3.382-.802.658 3.504-1.006.2-.35-1.664s-.946 1.462.22 3.036c.692.811 1.028.852 1.827.998.698.12 2.34-.076 2.877-1.97.238-1.222.03-2.138-1.521-3.372l.125-1.322s1.735 1.29 2.167 2.176c.331.704.9 2.086-.24 3.956z"/></g></svg>