<svg height="18" width="18" xmlns="http://www.w3.org/2000/svg" xmlns:xlink="http://www.w3.org/1999/xlink"><defs><path id="a" d="M.005.458h1.11v.555a.555.555 0 1 1-1.11 0V.458z"/><mask id="b" fill="#fff"><use fill-rule="evenodd" xlink:href="#a"/></mask></defs><g fill="none" fill-rule="evenodd"><path d="M0 0h18v18H0z"/><path d="M0 6h18v6H0z" fill="#fcd116"/><path d="m6.84 9.013.246-.847c.023-.078-.054-.152-.159-.152h-.173c-.105 0-.182.074-.16.152z" fill="#c8414b" fill-rule="nonzero"/><path d="M6.56 8.569h1v1.888h-1z" fill="#f5f5f5" fill-rule="nonzero"/><path d="M6.448 8.347h1v1h-1z" fill="#fab446" fill-rule="nonzero"/><g fill="#c8414b" fill-rule="nonzero"><path d="M6.005 9.014h1.11v1h-1.11z"/><path d="m7.115 9.958-.666-.25v-.25l.666.25zm-3.607-.945.246-.847c.023-.078-.055-.152-.16-.152h-.172c-.104 0-.182.074-.159.152l.246.847z"/></g><path d="M4.449 8.125h1.333v1H4.449z" fill="#fab446" fill-rule="nonzero"/><path d="M4.227 8.347c-.123 0-.222.1-.222.222v1.444c0 .27.252.777 1.11.777.86 0 1.111-.507 1.111-.777V8.569c0-.123-.1-.222-.222-.222z" fill="#f5f5f5" fill-rule="nonzero"/><path d="M5.116 9.458H4.005v-.89c0-.122.1-.221.222-.221h.889v1.11zm0 0h1.11v.555a.555.555 0 1 1-1.11 0z" fill="#c8414b" fill-rule="nonzero"/><g transform="translate(4 9)"><use fill="#fab446" fill-rule="nonzero" xlink:href="#a"/><path d="M0 .354h.227v1.213H0zm.4 0h.227v1.213H.4zm.4 0h.227v1.213H.8z" fill="#c8414b" mask="url(#b)"/></g><g fill-rule="nonzero" transform="translate(3 7)"><path d="M.227 1.569h1v1.888h-1z" fill="#f5f5f5"/><path d="M.117 3.346h1v1h-1zm0-1.999h1v1h-1z" fill="#fab446"/><path d="M.005 3.568h1v1h-1z" fill="#5064aa"/><path d="M3.56 3.346h1v1h-1z" fill="#fab446"/><path d="M3.44 3.568h1v1h-1z" fill="#5064aa"/><path d="M2.005.458h1v1h-1z" fill="#ffb441"/><g fill="#fab446"><path d="M1.893.791a.334.334 0 1 1 .001-.667.334.334 0 0 1 0 .667zm0-.444a.111.111 0 1 0 0 .222.111.111 0 0 0 0-.222z"/><path d="M2.338.791a.334.334 0 1 1 0-.667.334.334 0 0 1 0 .667zm0-.444a.111.111 0 1 0 0 .222.111.111 0 0 0 0-.222z"/><path d="M2.782 1.014a.334.334 0 1 1 0-.668.334.334 0 0 1 0 .668zm0-.445a.111.111 0 1 0 0 .223.111.111 0 0 0 0-.223zm-1.332.445a.334.334 0 1 1 0-.668.334.334 0 0 1 0 .668zm0-.445a.111.111 0 1 0 0 .223.111.111 0 0 0 0-.223z"/></g><path d="M2.782 2.902v.11a.111.111 0 0 1-.222 0v-.11zm.222-.222h-.666v.333a.334.334 0 0 0 .666 0z" fill="#fab446"/><path d="M2.699 2.235c-.138 0-.25-.1-.25-.222v-.222c0-.123.112-.222.25-.222s.25.1.25.222v.222c0 .123-.112.222-.25.222z" fill="#ffa0d2"/><path d="M1.45 1.125 1.226.902l.13-.13a1.073 1.073 0 0 1 1.517 0l.13.13-.222.223z" fill="#c8414b"/><g fill="#c8414b"><path d="M.117 2.013H2.1v1H.117z"/><path d="m.116 2.958.667-.25v-.25l-.667.25z"/></g><path d="M1.23 1.5h1v1h-1z" fill="#ffb441"/><circle cx="2.116" cy="2.457" fill="#5064aa" r="1"/></g><path d="M0 3h18v3H0zm0 9h18v3H0z" fill="#e74c3c"/></g></svg>