<svg xmlns="http://www.w3.org/2000/svg" width="18" height="18" viewBox="0 0 18 18">
    <g fill="none" fill-rule="evenodd">
        <path fill="none" d="M0 0h18v18H0z"/>
        <path fill="#FFF" fill-rule="nonzero" stroke="#DAE1E9" d="M.5 3.5h17v11H.5z"/>
        <path fill="#000" fill-rule="nonzero" d="M12.328 5.103l.763 1.144-.416.278-.763-1.144.416-.278zm.902 1.353l.762 1.144-.416.277-.762-1.144.416-.277zm-.278-1.769l1.664 2.497-.416.277-1.664-2.496.416-.278zm.624-.416l.763 1.144-.416.278-.763-1.144.416-.278zm.902 1.352l.762 1.145-.416.277-.762-1.144.416-.278zm-10.054 4.75l1.664 2.496-.416.278-1.664-2.497.416-.277zm-.624.416l.762 1.144-.416.278-.762-1.145.416-.277zm.901 1.352l.763 1.144-.416.278-.763-1.144.416-.278zm-1.525-.936l1.664 2.496-.416.278-1.664-2.497.416-.277zM4.008 7.6l1.664-2.497.416.278-1.664 2.496-.416-.277zm-.624-.416l1.664-2.497.416.278L3.8 7.46l-.416-.277zm-.624-.416L4.424 4.27l.416.278-1.664 2.496-.416-.277zm9.152 6.101l.763-1.144.416.278-.763 1.144-.416-.278zm.902-1.352l.762-1.144.416.277-.762 1.144-.416-.277zm-.278 1.768l.763-1.144.416.278-.763 1.144-.416-.278zm.902-1.352l.762-1.144.416.277-.762 1.145-.416-.278zm-.278 1.768l.763-1.144.416.278-.763 1.144-.416-.278zm.902-1.352l.762-1.144.416.277-.762 1.145-.416-.278z"/>
        <path fill="#C60C30" fill-rule="nonzero" d="M11.496 10.79a3 3 0 0 0-4.992-3.33 2.25 2.25 0 0 0 3.744 2.497"/>
        <path fill="#1F5AF6" fill-rule="nonzero" d="M6.504 7.46A1.5 1.5 0 1 0 9 9.126a1.5 1.5 0 0 1 2.496 1.664 3 3 0 1 1-4.992-3.328"/>
    </g>
</svg>
