<svg height="28" width="28" xmlns="http://www.w3.org/2000/svg"><g fill="none"><circle cx="13.997" cy="13.99" fill="#2daae1" r="13.976"/><path d="M22.29 9.746c-.588.26-1.22.436-1.883.515a3.281 3.281 0 0 0 1.442-1.809 6.563 6.563 0 0 1-2.083.794 3.279 3.279 0 0 0-2.394-1.032 3.274 3.274 0 0 0-3.194 4.015 9.32 9.32 0 0 1-6.76-3.417 3.266 3.266 0 0 0 1.015 4.366 3.272 3.272 0 0 1-1.485-.409v.042a3.274 3.274 0 0 0 2.63 3.206 3.271 3.271 0 0 1-1.481.057 3.282 3.282 0 0 0 3.063 2.27 6.59 6.59 0 0 1-4.855 1.354 9.3 9.3 0 0 0 5.027 1.47c6.031 0 9.33-4.983 9.33-9.304a8.5 8.5 0 0 0-.01-.423 6.671 6.671 0 0 0 1.638-1.695z" fill="#fff"/></g></svg>