<svg xmlns="http://www.w3.org/2000/svg" viewBox="0 0 100 100">
    <defs/>
    <path fill="#4C75A3"
          d="M50 3.8a46.2 46.2 0 100 92.4 46.2 46.2 0 000-92.4zm24.8 63.7c-2 1.2-10 1.6-11.9.2l-3-2.7-1.9-1.6-1.2-1.8c-.8-1-2-1.8-3-.6-1.5 1.7.2 5.1-1.8 6.4-.7.5-1.3.6-2.1.5L48 68c-1 0-2.7 0-4-.2-1.3-.2-2.5-1-3.7-1.5-2.3-1-4.6-2.4-6.2-4.4a71 71 0 01-13.3-19.4c-.5-1.3-1.8-4-.5-5.2 1.7-1.3 10-1.6 11.2.3.5.7.9 1.9 1.3 2.7.4 1.1.7 2.2 1.4 3.1l1.6 2.7c.5 1 1 2 1.7 3 .5.7 1.7 2 2.5 2 1.8.3 1.7-4.2 1.6-5.3-.1-1.1-.2-2.2-.1-3.3 0-1 0-2.3-.5-3-.9-1.2-2.9-.3-3-2 .3-.4.2-.9 2.4-1.6a9 9 0 014-.4c2.3.1 4.8-.5 7 .3 2.2.7 1.8 3.7 1.8 5.6v7.4c0 1.1 0 2.3 1.3 2.2 1.3-.1 1.5-1.2 2.1-2.1l2.6-3.9c1.2-1.7 1.5-3.6 2.7-5.4.4-.6.7-2 1.3-2.4.5-.4 1.4-.2 2-.2h4.5c1.5 0 3.2-.3 4.7 0 6.6.9-8.2 14.9-7.4 17.4.5 1.7 3.9 3.6 5 5 1.7 2 6.7 5.7 2.8 8.1z"/>
</svg>
