<svg xmlns="http://www.w3.org/2000/svg" viewBox="0 0 473.9 473.9">
    <defs/>
    <circle cx="237" cy="237" r="237" fill="#d42428"/>
    <path fill="#cc202d" d="M404.5 69.4A237 237 0 0169.4 404.5L404.5 69.4z"/>
    <path fill="#ba202e" d="M469.2 284.4L351.9 167.1 213.6 183l-83.7 129.5 156.3 156.4a237.2 237.2 0 00183-184.4z"/>
    <path fill="#fff"
          d="M361 191.2a36 36 0 00-36-36H156.4a36 36 0 00-36 36v96.5a36 36 0 0036 36H325a36 36 0 0036-36v-96.5zm-144.4 89v-90.6l68.7 45.3-68.7 45.2z"/>
</svg>
