<svg xmlns="http://www.w3.org/2000/svg" width="102" height="16" viewBox="0 0 102 16">
    <g fill="none" fill-rule="evenodd">
        <path fill="none" d="M0 0h102v16H0z"/>
        <path fill="#000" d="M61.35 8.07l4.8-4.87h1.128l-4.013 4.071 4.157 5.42h-1.075L62.648 7.9 61.35 9.222v3.469h-.879V3.2h.88v4.87zm6.4 1.126c0-2.278 1.416-3.666 3.305-3.666 1.993 0 3.252 1.676 3.147 3.875H68.59c.026 1.702 1.102 2.71 2.544 2.71 1.102 0 1.876-.563 2.151-1.532h.853c-.341 1.453-1.509 2.278-3.056 2.278-2.072 0-3.331-1.48-3.331-3.665zm.865-.537h4.695c0-1.191-.852-2.396-2.268-2.396-1.312 0-2.256.838-2.427 2.396zm6.518.537c0-2.278 1.417-3.666 3.305-3.666 1.993 0 3.252 1.676 3.147 3.875h-5.612c.026 1.702 1.101 2.71 2.544 2.71 1.101 0 1.875-.563 2.15-1.532h.853c-.341 1.453-1.508 2.278-3.056 2.278-2.072 0-3.33-1.48-3.33-3.665zM76 8.659h4.695c0-1.191-.853-2.396-2.27-2.396-1.31 0-2.255.838-2.425 2.396zm10.203 4.202c-1.036 0-1.889-.484-2.387-1.335v3.747h-.813V5.648h.813v1.204c.498-.837 1.35-1.322 2.387-1.322 1.626 0 2.95 1.322 2.95 3.666 0 2.33-1.324 3.665-2.95 3.665zm-.17-.733c1.31 0 2.242-1.06 2.242-2.932 0-1.872-.931-2.933-2.243-2.933-1.062 0-2.269.851-2.269 2.933 0 2.081 1.207 2.932 2.27 2.932zm4.078-2.932c0-2.278 1.416-3.666 3.305-3.666 1.993 0 3.252 1.676 3.147 3.875h-5.613c.026 1.702 1.102 2.71 2.544 2.71 1.102 0 1.876-.563 2.15-1.532h.853c-.34 1.453-1.508 2.278-3.055 2.278-2.072 0-3.331-1.48-3.331-3.665zm.865-.537h4.695c0-1.191-.852-2.396-2.269-2.396-1.311 0-2.255.838-2.426 2.396zm10.098-2.186c-.13-.013-.249-.013-.367-.013-1.456 0-1.928 1.047-1.928 2.54v3.69h-.8V5.649h.774v1.283c.315-.825 1.233-1.335 2.085-1.335.066 0 .158 0 .236.013v.864z"/>
        <path fill="none" d="M0 0h56.829v13.091H0z"/>
        <path fill="#1F5AF6" d="M53.806.541l3.014 3.014-3.019 3.018-3.013-3.013z"/>
        <g fill="#000" fill-rule="nonzero">
            <path d="M13.256 3.736h-1.672l-.175.157L9.694 9.93h-.011L7.759 3.893l-.175-.157H5.836l-.175.157-1.912 6.003-.033-.022-.011-.012-1.716-5.969-.175-.157H.11L0 3.893l2.678 8.5.185.168h1.683l.186-.168 1.913-6.08h.043l1.924 6.08.185.168h1.705l.186-.168 2.678-8.5zM32.174 3.736H30.49l-.186.157-2.35 6.283-.022.011-2.327-6.294-.186-.157h-1.716l-.11.157 3.356 8.5.197.168h1.551l.197-.168 3.388-8.5zM40.851 8.62l.164-.158v-.257c0-1.378-.383-2.565-1.137-3.393-.754-.83-1.77-1.255-3.016-1.255-1.202 0-2.208.46-2.983 1.355-.776.896-1.159 1.983-1.159 3.214 0 1.31.404 2.408 1.202 3.27.798.863 1.847 1.3 3.115 1.3.918 0 1.705-.224 2.339-.683.634-.448 1.3-1.188 1.53-2.195l-.12-.168h-1.574l-.219.168c-.393.806-.994 1.187-1.989 1.187a2.41 2.41 0 0 1-1.705-.695c-.459-.436-.721-.963-.787-1.713l6.339.022zm-6.23-1.569c.274-1.041 1.126-1.814 2.241-1.814 1.475 0 2.087 1.075 2.262 1.814h-4.502zM20.863 3.736l-.164.168v.874l-.033.034a3.06 3.06 0 0 0-1.115-.896c-.47-.235-1.005-.347-1.584-.347-1.082 0-2.033.447-2.82 1.321-.787.874-1.18 1.971-1.18 3.259 0 1.288.393 2.385 1.18 3.259.787.873 1.738 1.321 2.82 1.321.579 0 1.103-.112 1.573-.347.088-.045.186-.09.274-.146.338-.212.622-.447.841-.727.01-.012.044.01.055 0v.907l.164.168h1.431l.164-.168V3.893l-.164-.168h-1.442v.011zm-.886 6.518c-.48.527-1.06.784-1.76.784-.677 0-1.18-.257-1.671-.795-.492-.526-.732-1.232-.732-2.117 0-.873.251-1.579.732-2.116.492-.526.983-.795 1.672-.795.688 0 1.268.257 1.76.784.316.347.524.761.644 1.265v1.702c-.11.527-.328.952-.645 1.288zM46.916 7.455s-.94-.202-1.715-.381c-.71-.168-1.071-.381-1.071-.896 0-.549.513-1.008 1.617-1.008 1.082 0 1.683.493 1.683.93l.186.167h1.574l.12-.156c0-1.154-.973-2.531-3.52-2.531-2.655 0-3.486 1.601-3.486 2.631 0 .863.306 1.882 2.34 2.363l1.748.404c.885.201 1.257.515 1.257 1.041 0 .482-.47 1.064-1.694 1.064-1.137 0-1.825-.56-1.858-1.22l-.197-.169h-1.606l-.12.168c.141 1.479 1.212 2.867 3.77 2.867 2.896 0 3.486-1.814 3.486-2.766 0-1.277-.71-2.105-2.514-2.508z"/>
        </g>
    </g>
</svg>
