<svg xmlns="http://www.w3.org/2000/svg" width="18" height="18" viewBox="0 0 18 18">
    <g fill="none" fill-rule="nonzero">
        <path fill="none" d="M0 0h18v18H0z"/>
        <path fill="#1F5AF6" d="M16.48 4.635c.086 4.522.204 10.716-7.276 13.33a.62.62 0 0 1-.409 0c-7.479-2.614-7.361-8.807-7.276-13.33.01-.486.018-.945.018-1.39 0-.347.28-.63.625-.63 2.672 0 4.706-.774 6.402-2.437a.621.621 0 0 1 .871 0c1.696 1.663 3.73 2.437 6.403 2.437.345 0 .625.283.625.63 0 .445.009.904.018 1.39zm-4.752 1.62L7.96 10.111 6.35 8.466a.768.768 0 0 0-1.104 0 .813.813 0 0 0 0 1.13l2.16 2.21a.77.77 0 0 0 1.105 0l4.32-4.421a.812.812 0 0 0 0-1.13.768.768 0 0 0-1.104 0z"/>
    </g>
</svg>
