<svg xmlns="http://www.w3.org/2000/svg" width="18" height="18" viewBox="0 0 18 18">
    <g fill="none" fill-rule="nonzero">
        <path fill="none" d="M0 0h18v18H0z"/>
        <path fill="#9BA6B2" d="M16.48 4.635c-.008-.486-.017-.945-.017-1.39 0-.347-.28-.63-.625-.63-2.672 0-4.707-.774-6.403-2.437a.621.621 0 0 0-.87 0c-1.697 1.663-3.73 2.437-6.403 2.437a.627.627 0 0 0-.625.63c0 .445-.008.904-.018 1.39-.085 4.523-.203 10.716 7.276 13.33a.62.62 0 0 0 .41 0c7.479-2.614 7.361-8.808 7.276-13.33zM9 16.7C2.586 14.352 2.683 9.205 2.769 4.66c.005-.273.01-.537.013-.797C5.285 3.756 7.286 2.992 9 1.486c1.713 1.505 3.715 2.27 6.218 2.376.003.26.008.524.013.797.086 4.546.183 9.693-6.231 12.042zm2.728-10.447L7.96 10.112 6.35 8.466a.768.768 0 0 0-1.104 0 .813.813 0 0 0 0 1.13l2.16 2.21a.77.77 0 0 0 1.105 0l4.32-4.421a.812.812 0 0 0 0-1.13.768.768 0 0 0-1.104 0z"/>
    </g>
</svg>
