<svg fill="none" height="18" width="18" xmlns="http://www.w3.org/2000/svg"><g fill="#05f"><path clip-rule="evenodd" d="M5.428 3.6c0 1.988 1.599 3.6 3.571 3.6s3.572-1.612 3.572-3.6S10.97 0 8.999 0 5.428 1.612 5.428 3.6zm6.79 5.913a3.857 3.857 0 0 0 3.209 6.982v.785c0 .398-.32.72-.714.72H3.285a.717.717 0 0 1-.714-.72v-2.16c.004-3.577 2.88-6.476 6.428-6.48a6.367 6.367 0 0 1 3.22.873z" fill-rule="evenodd"/><path d="M12.27 12.158h1.173v-1.173c0-.385.315-.7.7-.7.384 0 .698.315.698.7v1.173h1.174c.384 0 .699.315.699.7a.701.701 0 0 1-.7.698h-1.172v1.173a.701.701 0 0 1-.7.7.701.701 0 0 1-.699-.7v-1.173H12.27a.701.701 0 0 1-.699-.699c0-.384.315-.699.699-.699z"/></g></svg>