<svg height="14" width="14" xmlns="http://www.w3.org/2000/svg"><g fill="none" fill-rule="evenodd"><path d="M0 0h14v14H0z"/><g fill="#9ba6b2" fill-rule="nonzero"><path d="M7 0a7 7 0 1 0 0 14A7 7 0 0 0 7 0zm0 12.727A5.724 5.724 0 0 1 1.273 7 5.724 5.724 0 0 1 7 1.273 5.724 5.724 0 0 1 12.727 7 5.724 5.724 0 0 1 7 12.727z"/><path d="M9.705 6.364H7.636V4.295A.638.638 0 0 0 7 3.66a.638.638 0 0 0-.636.636v2.069H4.295A.638.638 0 0 0 3.66 7c0 .35.286.636.636.636h2.069v2.069c0 .35.286.636.636.636s.636-.286.636-.636V7.636h2.069c.35 0 .636-.286.636-.636a.638.638 0 0 0-.636-.636z"/></g></g></svg>