<svg height="42" width="135" xmlns="http://www.w3.org/2000/svg"><g fill="none" fill-rule="evenodd"><g fill-rule="nonzero"><rect fill="#000" height="42" rx="4" width="135"/><path d="M47.288 28.755h-4.982l-1.196 3.533H39l4.719-13.07h2.192l4.719 13.07h-2.146zm-4.466-1.63h3.95l-1.947-5.733h-.055zm17.999.399c0 2.96-1.585 4.863-3.977 4.863a3.23 3.23 0 0 1-2.998-1.667H53.8v4.72h-1.956V22.759h1.893v1.585h.036a3.38 3.38 0 0 1 3.034-1.685c2.418 0 4.013 1.912 4.013 4.865zm-2.01 0c0-1.93-.998-3.198-2.519-3.198-1.494 0-2.5 1.295-2.5 3.198 0 1.92 1.006 3.205 2.5 3.205 1.521 0 2.518-1.259 2.518-3.205zm12.497 0c0 2.96-1.585 4.863-3.976 4.863a3.23 3.23 0 0 1-2.998-1.667h-.046v4.72h-1.956V22.759h1.894v1.585h.036a3.38 3.38 0 0 1 3.034-1.685c2.418 0 4.012 1.912 4.012 4.865zm-2.01 0c0-1.93-.997-3.198-2.518-3.198-1.495 0-2.5 1.295-2.5 3.198 0 1.92 1.005 3.205 2.5 3.205 1.521 0 2.518-1.259 2.518-3.205zm8.942 1.122c.145 1.296 1.404 2.147 3.125 2.147 1.648 0 2.834-.85 2.834-2.02 0-1.014-.715-1.621-2.409-2.038l-1.694-.408c-2.4-.58-3.514-1.702-3.514-3.523 0-2.255 1.965-3.804 4.756-3.804 2.762 0 4.655 1.549 4.719 3.804h-1.975c-.118-1.304-1.196-2.092-2.772-2.092-1.576 0-2.654.797-2.654 1.956 0 .924.689 1.468 2.373 1.884l1.44.354c2.682.634 3.796 1.711 3.796 3.623 0 2.445-1.948 3.976-5.045 3.976-2.899 0-4.856-1.495-4.982-3.859zm12.246-8.142v2.255h1.812v1.549h-1.812v5.253c0 .816.363 1.196 1.16 1.196.215-.004.43-.019.643-.045v1.54a5.371 5.371 0 0 1-1.086.09c-1.93 0-2.682-.725-2.682-2.573v-5.461h-1.385v-1.55h1.385v-2.254zm2.862 7.02c0-2.998 1.766-4.882 4.52-4.882 2.762 0 4.52 1.884 4.52 4.882 0 3.006-1.749 4.882-4.52 4.882-2.772 0-4.52-1.876-4.52-4.882zm7.047 0c0-2.057-.943-3.27-2.528-3.27s-2.526 1.222-2.526 3.27c0 2.065.941 3.27 2.526 3.27s2.528-1.205 2.528-3.27zM104 22.759h1.866v1.622h.045a2.273 2.273 0 0 1 2.292-1.722c.225 0 .45.024.67.073v1.83a2.734 2.734 0 0 0-.879-.119 1.97 1.97 0 0 0-2.038 2.193v5.652H104zm13.891 6.73c-.263 1.73-1.948 2.917-4.103 2.917-2.772 0-4.493-1.857-4.493-4.837 0-2.989 1.73-4.927 4.41-4.927 2.637 0 4.295 1.81 4.295 4.7v.67h-6.73v.118a2.482 2.482 0 0 0 2.563 2.7 2.156 2.156 0 0 0 2.2-1.341zm-6.612-2.844h4.764a2.292 2.292 0 0 0-2.337-2.419 2.412 2.412 0 0 0-2.427 2.419zM41.182 10.298a2.672 2.672 0 0 1 2.842 3.001c0 1.93-1.043 3.04-2.842 3.04H39v-6.041zm-1.244 5.186h1.14a1.9 1.9 0 0 0 1.991-2.173 1.904 1.904 0 0 0-1.992-2.16h-1.139zm5.146-1.427a2.16 2.16 0 1 1 4.3 0 2.16 2.16 0 1 1-4.3 0zm3.374 0c0-.988-.443-1.566-1.223-1.566-.782 0-1.221.578-1.221 1.566 0 .996.44 1.57 1.221 1.57.78 0 1.223-.578 1.223-1.57zm6.641 2.281h-.933l-.942-3.357h-.071l-.939 3.357h-.924l-1.257-4.558h.913l.817 3.478h.067l.937-3.478h.863l.937 3.478h.071l.813-3.478h.9zm2.309-4.558h.866v.724h.067c.234-.533.78-.86 1.36-.812a1.483 1.483 0 0 1 1.578 1.695v2.951h-.9v-2.725c0-.733-.318-1.097-.983-1.097a1.046 1.046 0 0 0-1.089 1.155v2.667h-.9zM62.713 10h.9v6.338h-.9zm2.15 4.057a2.16 2.16 0 1 1 4.3 0 2.16 2.16 0 1 1-4.3 0zm3.374 0c0-.988-.444-1.566-1.223-1.566-.782 0-1.222.578-1.222 1.566 0 .996.44 1.57 1.222 1.57.78 0 1.223-.578 1.223-1.57zm1.873.992c0-.82.611-1.294 1.696-1.36l1.235-.072v-.393c0-.482-.319-.754-.934-.754-.502 0-.85.185-.95.507h-.87c.091-.783.828-1.285 1.862-1.285 1.143 0 1.787.569 1.787 1.532v3.114h-.866v-.64H73a1.534 1.534 0 0 1-1.37.715 1.377 1.377 0 0 1-1.52-1.364zm2.93-.39v-.38l-1.112.07c-.628.043-.913.256-.913.658 0 .41.356.65.845.65a1.075 1.075 0 0 0 1.18-.997zm2.079-.602c0-1.44.74-2.353 1.892-2.353a1.502 1.502 0 0 1 1.398.8h.067V10h.9v6.338h-.862v-.72h-.071c-.292.51-.844.817-1.432.795-1.16 0-1.892-.912-1.892-2.356zm.93 0c0 .967.455 1.549 1.217 1.549.759 0 1.227-.59 1.227-1.545 0-.95-.473-1.549-1.227-1.549-.757 0-1.218.586-1.218 1.545zm7.05 0a2.16 2.16 0 1 1 4.299 0 2.16 2.16 0 1 1-4.3 0zm3.374 0c0-.988-.444-1.566-1.223-1.566-.782 0-1.222.578-1.222 1.566 0 .996.44 1.57 1.222 1.57.779 0 1.223-.578 1.223-1.57zm2.132-2.277h.866v.724h.067c.234-.533.78-.86 1.36-.812a1.483 1.483 0 0 1 1.579 1.695v2.951h-.9v-2.725c0-.733-.318-1.097-.984-1.097a1.046 1.046 0 0 0-1.088 1.155v2.667h-.9zm8.955-1.135V11.8h.988v.758h-.988v2.344c0 .478.197.687.645.687.115 0 .23-.007.343-.02v.748a2.952 2.952 0 0 1-.49.046c-1 0-1.398-.352-1.398-1.23v-2.575h-.724V11.8h.724v-1.155zM99.777 10h.892v2.512h.07a1.404 1.404 0 0 1 1.39-.816 1.502 1.502 0 0 1 1.57 1.699v2.943h-.9v-2.721c0-.728-.339-1.097-.975-1.097a1.065 1.065 0 0 0-1.147 1.156v2.662h-.9zm9.169 5.107a1.85 1.85 0 0 1-1.976 1.32 2.07 2.07 0 0 1-2.106-2.354 2.103 2.103 0 0 1 2.102-2.381c1.269 0 2.034.866 2.034 2.298v.314h-3.22v.05a1.205 1.205 0 0 0 1.215 1.306c.44.053.869-.165 1.085-.553zm-3.165-1.469h2.302a1.1 1.1 0 0 0-1.122-1.18 1.166 1.166 0 0 0-1.18 1.18z" fill="#fff"/></g><path d="M10 9h24v24H10z"/><path d="M28.309 21.763a5.27 5.27 0 0 0 3.217 4.849 12.082 12.082 0 0 1-1.674 3.408c-.985 1.475-2.019 2.915-3.66 2.942-1.593.037-2.129-.938-3.957-.938-1.845 0-2.416.911-3.945.975-1.562.057-2.756-1.574-3.778-3.035-2.041-2.983-3.631-8.407-1.5-12.097a5.858 5.858 0 0 1 4.93-3.007c1.564-.032 3.016 1.056 3.977 1.056.943 0 2.737-1.301 4.588-1.107a5.58 5.58 0 0 1 4.399 2.378 5.454 5.454 0 0 0-2.597 4.576zm-3.011-8.916a4.518 4.518 0 0 1-3.567 1.687 5.11 5.11 0 0 1 1.26-3.705A5.464 5.464 0 0 1 26.526 9a5.37 5.37 0 0 1-1.228 3.847z" fill="#fff"/></g></svg>