<svg xmlns="http://www.w3.org/2000/svg" width="18" height="18" viewBox="0 0 18 18">
    <g fill="none" fill-rule="evenodd">
        <path fill="none" d="M0 0h18v18H0z"/>
        <path fill="#000" fill-rule="nonzero" d="M16.8 9.012a.71.71 0 0 0-.703-.719H3.695l.363-.345 3.675-3.486a.728.728 0 0 0 .227-.698.712.712 0 0 0-.49-.536.696.696 0 0 0-.699.188L1.425 8.484a.726.726 0 0 0 0 1.053l5.346 5.07c.284.27.727.255.992-.034a.73.73 0 0 0-.035-1.018L3.694 9.73h12.403a.71.71 0 0 0 .703-.718z"/>
    </g>
</svg>
