<svg xmlns="http://www.w3.org/2000/svg" width="18" height="18"><path d="M0 17.5v-.496c0-1.235.474-2.158 1.275-2.755.78-.581 1.816-.815 2.89-.815 1.075 0 2.11.234 2.891.815.802.597 1.275 1.519 1.275 2.755v.496H0zm6.461-2.456c-.548-.408-1.345-.617-2.295-.617s-1.749.209-2.297.617c-.427.32-.738.785-.84 1.461h6.272c-.102-.676-.412-1.142-.84-1.46zm3.847.044-1.207-1.205a.496.496 0 0 1 0-.702l1.207-1.205a.497.497 0 0 1 .703.702l-.359.358h1.107a2.564 2.564 0 0 0 2.565-2.561.497.497 0 0 1 .994 0 3.558 3.558 0 0 1-3.56 3.553h-1.106l.36.359a.496.496 0 1 1-.704.701zm-8.496-4.851a2.352 2.352 0 0 1 2.353-2.35 2.352 2.352 0 0 1 2.353 2.35 2.352 2.352 0 0 1-2.353 2.349 2.352 2.352 0 0 1-2.353-2.35zm3.712 0a1.359 1.359 0 0 0-2.718 0 1.358 1.358 0 0 0 2.718 0zm6.155-2.498v-.496c0-.934.36-1.645.978-2.106.597-.445 1.381-.617 2.177-.617h.01c.796 0 1.58.172 2.177.617.619.461.979 1.171.979 2.106v.496h-6.321zm5.26-.992-.036-.137c-.1-.3-.272-.517-.487-.677a1.856 1.856 0 0 0-.728-.324l-.32-.06a1.296 1.296 0 0 0-.083-.011l-.431-.025h-.013c-.668 0-1.214.148-1.579.42-.214.16-.387.377-.486.677l-.037.137h4.2zM3.588 6.2a3.558 3.558 0 0 1 3.56-3.553h1.105l-.359-.358a.496.496 0 1 1 .703-.702l1.207 1.205a.496.496 0 0 1 0 .702L8.597 4.7a.497.497 0 0 1-.703-.7l.36-.359H7.146a2.564 2.564 0 0 0-2.565 2.561.497.497 0 0 1-.994 0zm11.67-.667.027.004h.008a1.26 1.26 0 0 1-.034-.004zM12.993 2.34a1.841 1.841 0 0 1 3.684 0 1.841 1.841 0 0 1-1.842 1.839 1.84 1.84 0 0 1-1.842-1.839zm2.69 0a.848.848 0 0 0-1.696 0 .847.847 0 0 0 1.696 0z" fill="#1f5af6"/></svg>