<svg xmlns="http://www.w3.org/2000/svg" width="18" height="18" viewBox="0 0 18 18">
    <g fill="none" fill-rule="evenodd">
        <path fill="none" d="M0 0h18v18H0z"/>
        <path fill="#E5494D" fill-rule="nonzero" d="M16.354 3.679h-4.053V1.594A.6.6 0 0 0 11.694 1H6.308a.6.6 0 0 0-.607.594v2.085H1.646a.6.6 0 0 0-.607.594c0 .326.273.593.607.593h1.5l.962 11.588c.027.308.29.546.605.546h8.574a.6.6 0 0 0 .605-.546l.963-11.588h1.5a.6.6 0 0 0 .606-.594.6.6 0 0 0-.607-.593zm-9.44-1.492h4.173v1.492H6.915V2.187zm5.814 13.626H5.274l-.91-10.947h9.273l-.909 10.947z"/>
        <path fill="#E5494D" fill-rule="nonzero" d="M10.48 13.505a.6.6 0 0 1-.607-.594V7.67a.6.6 0 0 1 .607-.594.6.6 0 0 1 .607.594v5.24a.6.6 0 0 1-.607.595zM7.52 13.505a.6.6 0 0 1-.607-.594V7.67a.6.6 0 0 1 .608-.594.6.6 0 0 1 .607.594v5.24a.6.6 0 0 1-.607.595z"/>
    </g>
</svg>
