<svg xmlns="http://www.w3.org/2000/svg" width="14" height="14" viewBox="0 0 14 14">
    <g fill="none" fill-rule="evenodd">
        <path fill="#D8D8D8" fill-opacity="0" d="M0 0h14v14H0z"/>
        <path fill="#FFF" fill-rule="nonzero" d="M7.538 9.051l3.31-3.33c.326-.32.301-.73 0-1.024-.303-.298-.731-.323-1.06 0L8.644 5.82c-.417.41-.897.215-.897-.368V.974A.737.737 0 0 0 7 .25a.738.738 0 0 0-.747.724v4.479c0 .585-.48.778-.897.368L4.212 4.697c-.329-.323-.757-.298-1.06 0-.301.295-.326.705.001 1.025l3.342 3.333a.735.735 0 0 0 1.043-.004zm4.712 2.669a.58.58 0 0 1-.583.577H2.333a.577.577 0 0 1-.583-.577V9.767c0-.4-.334-.726-.75-.726a.739.739 0 0 0-.75.726V12.7c0 .577.485 1.051 1.083 1.051h11.334c.597 0 1.083-.472 1.083-1.05V9.766c0-.4-.334-.726-.75-.726a.739.739 0 0 0-.75.726v1.953z"/>
    </g>
</svg>
