<svg xmlns="http://www.w3.org/2000/svg" width="18" height="18"><g fill="none" fill-rule="evenodd"><path d="M0 0h18v18H0z"/><path fill="#EF4829" fill-rule="nonzero" d="M9 13.625a.974.974 0 0 1-.653-.268c-.18-.168-.258-.414-.269-.651a.93.93 0 0 1 .269-.651.957.957 0 0 1 .65-.269l.023-.002-.245.033a.352.352 0 0 0 .059-.016l-.219.092a.217.217 0 0 0 .035-.02c-.063.047-.123.095-.186.143a.23.23 0 0 0 .043-.042l-.144.185a.19.19 0 0 0 .02-.034c-.03.071-.06.145-.092.218a.216.216 0 0 0 .017-.058l-.033.244c.002-.028.002-.015 0-.042l.033.244a.352.352 0 0 0-.017-.058l.092.218c-.005-.013-.013-.024-.02-.035l.144.186A.23.23 0 0 0 8.464 13l.186.143a.217.217 0 0 0-.035-.02l.219.092a.215.215 0 0 0-.059-.017l.245.034c-.028-.002-.015-.002-.043 0l.245-.034a.352.352 0 0 0-.059.017l.219-.092a.217.217 0 0 0-.035.02L9.533 13a.23.23 0 0 0-.043.042l.144-.186a.151.151 0 0 0-.02.035l.091-.218a.216.216 0 0 0-.016.058l.033-.244c-.002.027-.002.014 0 .042l-.033-.244c.004.02.01.038.016.058a9.395 9.395 0 0 0-.092-.218l.02.034-.143-.185a.23.23 0 0 0 .043.042l-.186-.143a.217.217 0 0 0 .035.02l-.219-.092c.02.01.037.013.059.016l-.245-.033c.008.002.015.002.022.002.254.013.466.1.651.269.18.167.258.413.269.65a.93.93 0 0 1-.269.652c-.158.156-.423.28-.65.268-.308-.017-.584-.114-.799-.344a1.148 1.148 0 0 1-.312-.772c-.011-.293.128-.59.333-.795a1.126 1.126 0 0 1 .78-.318c.16 0 .292.035.433.096.136.057.254.13.36.237a1.125 1.125 0 0 1 .319.782 1.16 1.16 0 0 1-.333.794 1.12 1.12 0 0 1-.782.32zm-.92-8.674c0-.25.105-.47.268-.65.168-.18.414-.258.651-.27a.93.93 0 0 1 .651.27.957.957 0 0 1 .269.65v4.832c0 .25-.103.471-.269.652-.167.18-.413.257-.65.268a.93.93 0 0 1-.652-.268.957.957 0 0 1-.268-.651V4.952zm8.081 4.051c0-.25.103-.47.267-.654.167-.18.414-.258.65-.269a.93.93 0 0 1 .652.269.957.957 0 0 1 .268.65c0 .497-.051.99-.127 1.48a8.815 8.815 0 0 1-.84 2.579 8.911 8.911 0 0 1-1.543 2.177 8.957 8.957 0 0 1-2.098 1.624 8.791 8.791 0 0 1-2.539.95 8.939 8.939 0 0 1-2.799.138 9.53 9.53 0 0 1-1.472-.274 9.559 9.559 0 0 1-1.363-.507 8.914 8.914 0 0 1-2.23-1.47A8.973 8.973 0 0 1 .024 8.37a8.82 8.82 0 0 1 .613-2.687 9.63 9.63 0 0 1 .638-1.305c.244-.409.53-.795.833-1.163A8.98 8.98 0 0 1 9.323.007a8.897 8.897 0 0 1 2.707.52c.845.31 1.645.726 2.362 1.276.38.29.741.594 1.074.938.333.346.636.723.914 1.112A8.933 8.933 0 0 1 18 9.003a.945.945 0 0 1-.268.65c-.168.18-.414.258-.651.269a.93.93 0 0 1-.651-.269.957.957 0 0 1-.269-.65 8.812 8.812 0 0 0-.073-1.1l.033.244a8.104 8.104 0 0 0-.554-2.03l.092.219a8.182 8.182 0 0 0-1.048-1.798l.144.185a8.213 8.213 0 0 0-1.479-1.478l.186.143a8.11 8.11 0 0 0-1.798-1.048c.071.03.145.06.218.092a8.103 8.103 0 0 0-2.03-.553l.245.033a8.293 8.293 0 0 0-2.197 0l.244-.033a8.103 8.103 0 0 0-2.03.553l.22-.092a8.182 8.182 0 0 0-1.8 1.048l.187-.143a8.213 8.213 0 0 0-1.479 1.478l.144-.185a8.11 8.11 0 0 0-1.048 1.798c.029-.072.06-.145.092-.219a8.104 8.104 0 0 0-.554 2.03l.033-.244a8.294 8.294 0 0 0 0 2.197l-.033-.245c.096.697.281 1.381.554 2.03l-.092-.218a8.182 8.182 0 0 0 1.048 1.798l-.144-.186c.427.554.925 1.05 1.479 1.479l-.186-.144a8.11 8.11 0 0 0 1.798 1.048 9.445 9.445 0 0 1-.219-.092c.65.273 1.333.458 2.03.554l-.244-.033a8.33 8.33 0 0 0 2.197 0l-.244.033a8.103 8.103 0 0 0 2.03-.554l-.22.092a8.182 8.182 0 0 0 1.799-1.048l-.186.144a8.213 8.213 0 0 0 1.479-1.479l-.144.186a8.11 8.11 0 0 0 1.048-1.798c-.03.071-.06.145-.092.218a8.125 8.125 0 0 0 .554-2.03l-.033.245c.047-.364.073-.73.073-1.098z"/></g></svg>