<svg xmlns="http://www.w3.org/2000/svg" width="14" height="14" viewBox="0 0 14 14">
    <g fill="none" fill-rule="evenodd">
        <path fill="none" d="M0 0h14v14H0z"/>
        <path fill="#000" fill-rule="nonzero" d="M10.56 3.39L9.293 2.125a.6.6 0 1 1 .849-.848l2.29 2.29a.6.6 0 0 1 0 .85l-2.29 2.29a.6.6 0 1 1-.849-.848L10.56 4.59H1.99a.6.6 0 1 1 0-1.2h8.57zm-7.121 7.2l1.266 1.268a.6.6 0 0 1-.848.848l-2.291-2.29a.6.6 0 0 1 0-.85l2.29-2.29a.6.6 0 0 1 .85.848L3.438 9.391h8.57a.6.6 0 1 1 0 1.2h-8.57z"/>
    </g>
</svg>
