<svg xmlns="http://www.w3.org/2000/svg" width="14" height="14" viewBox="0 0 14 14">
    <g fill="none" fill-rule="evenodd">
        <path fill="none" d="M0 0h14v14H0z"/>
        <path fill="#000" fill-rule="nonzero" d="M10.788 10.212L8.647 8.025c.303-.596.454-1.087.454-1.474a2.55 2.55 0 1 0-2.55 2.55c.387 0 .878-.15 1.474-.454l2.14 2.187L6.997 14 0 7.003 6.997 0 14 7.003l-3.212 3.21zM4.88 6.551c0-.922.75-1.671 1.67-1.671.922 0 1.671.75 1.671 1.67 0 .922-.75 1.672-1.67 1.672-.922 0-1.671-.75-1.671-1.671z"/>
    </g>
</svg>
