<svg width="14" height="14" viewBox="0 0 14 14" fill="none" xmlns="http://www.w3.org/2000/svg">
    <rect width="14" height="14" fill="#D8D8D8" fill-opacity="0.01"/>
    <path fill-rule="evenodd" clip-rule="evenodd" d="M7 2C3.81818 2 1.10091 3.866 0 6.5C1.10091 9.134 3.81818 11 7 11C10.1818 11 12.8991 9.134 14 6.5C12.8991 3.866 10.1818 2 7 2ZM7 9.5C5.24364 9.5 3.81818 8.156 3.81818 6.5C3.81818 4.844 5.24364 3.5 7 3.5C8.75636 3.5 10.1818 4.844 10.1818 6.5C10.1818 8.156 8.75636 9.5 7 9.5ZM7 4.7C5.94364 4.7 5.09091 5.504 5.09091 6.5C5.09091 7.496 5.94364 8.3 7 8.3C8.05636 8.3 8.90909 7.496 8.90909 6.5C8.90909 5.504 8.05636 4.7 7 4.7Z" fill="#DAE1E9"/>
</svg>
