<svg height="42" width="135" xmlns="http://www.w3.org/2000/svg"><linearGradient id="a" x1="91.49%" x2="-38.317%" y1="4.96%" y2="71.909%"><stop offset="0" stop-color="#00a0ff"/><stop offset=".007" stop-color="#00a1ff"/><stop offset=".26" stop-color="#00beff"/><stop offset=".512" stop-color="#00d2ff"/><stop offset=".76" stop-color="#00dfff"/><stop offset="1" stop-color="#00e3ff"/></linearGradient><linearGradient id="b" x1="107.586%" x2="-130.492%" y1="50.016%" y2="50.016%"><stop offset="0" stop-color="#ffe000"/><stop offset=".409" stop-color="#ffbd00"/><stop offset=".775" stop-color="orange"/><stop offset="1" stop-color="#ff9c00"/></linearGradient><linearGradient id="c" x1="86.238%" x2="-50.131%" y1="117.851%" y2="294.785%"><stop offset="0" stop-color="#ff3a44"/><stop offset="1" stop-color="#c31162"/></linearGradient><linearGradient id="d" x1="-18.801%" x2="42.094%" y1="-154.171%" y2="-75.137%"><stop offset="0" stop-color="#32a071"/><stop offset=".069" stop-color="#2da771"/><stop offset=".476" stop-color="#15cf74"/><stop offset=".801" stop-color="#06e775"/><stop offset="1" stop-color="#00f076"/></linearGradient><g fill="none" fill-rule="evenodd"><rect fill="#000" fill-rule="nonzero" height="42" rx="4" width="135"/><path d="M44.08 13.847c0 .828-.251 1.49-.745 1.984-.567.586-1.307.88-2.213.88-.865 0-1.605-.299-2.211-.89-.608-.599-.911-1.335-.911-2.215 0-.88.303-1.616.91-2.21.607-.596 1.347-.896 2.212-.896.431 0 .842.088 1.235.251.39.165.709.388.94.663l-.524.523c-.403-.47-.95-.701-1.65-.701-.632 0-1.18.218-1.644.657-.46.441-.69 1.012-.69 1.713s.23 1.277.69 1.718a2.332 2.332 0 0 0 1.643.657c.67 0 1.235-.223 1.68-.662.293-.291.46-.693.503-1.205h-2.183v-.716h2.912c.035.155.046.305.046.45zm4.62-2.481h-2.736v1.882h2.466v.716h-2.466v1.882h2.735v.73h-3.51v-5.94h3.51zm3.26 5.21h-.775v-5.21h-1.678v-.73h4.132v.73h-1.68zm4.668 0v-5.94h.773v5.94zm4.2 0h-.768v-5.21h-1.684v-.73h4.136v.73h-1.684zm9.505-.764c-.592.6-1.327.9-2.202.9-.881 0-1.615-.3-2.208-.9-.592-.6-.886-1.335-.886-2.206 0-.87.294-1.606.886-2.206.593-.6 1.327-.9 2.208-.9.87 0 1.605.3 2.197.905.597.605.891 1.335.891 2.2 0 .872-.294 1.607-.886 2.207zm-3.837-.498c.446.444.988.667 1.635.667.641 0 1.189-.223 1.63-.667.445-.445.67-1.016.67-1.708s-.225-1.263-.67-1.708a2.213 2.213 0 0 0-1.63-.667c-.647 0-1.19.223-1.635.667-.445.445-.67 1.016-.67 1.708s.225 1.263.67 1.708zm5.81 1.262v-5.94h.94l2.921 4.62h.034l-.034-1.142v-3.478h.773v5.94h-.806l-3.06-4.847h-.034l.034 1.146v3.7z" fill="#fff"/><path d="M65.16 23.063c-2.355 0-4.278 1.77-4.278 4.214 0 2.424 1.923 4.213 4.278 4.213 2.36 0 4.283-1.79 4.283-4.213 0-2.443-1.924-4.214-4.283-4.214zm0 6.768c-1.292 0-2.403-1.054-2.403-2.554 0-1.52 1.111-2.555 2.403-2.555s2.408 1.035 2.408 2.555c0 1.5-1.116 2.554-2.408 2.554zm-9.334-6.768c-2.36 0-4.277 1.77-4.277 4.214 0 2.424 1.918 4.213 4.277 4.213 2.358 0 4.278-1.79 4.278-4.213 0-2.443-1.92-4.214-4.278-4.214zm0 6.768c-1.293 0-2.408-1.054-2.408-2.554 0-1.52 1.115-2.555 2.408-2.555 1.292 0 2.404 1.035 2.404 2.555 0 1.5-1.112 2.554-2.404 2.554zM44.72 24.354v1.791h4.326c-.126 1-.464 1.736-.983 2.249-.632.62-1.615 1.307-3.343 1.307-2.663 0-4.748-2.124-4.748-4.756s2.085-4.755 4.748-4.755c1.44 0 2.487.556 3.26 1.276l1.277-1.262c-1.081-1.02-2.52-1.804-4.537-1.804-3.651 0-6.72 2.936-6.72 6.545s3.069 6.545 6.72 6.545c1.973 0 3.456-.639 4.62-1.838 1.195-1.18 1.567-2.84 1.567-4.18 0-.416-.035-.798-.098-1.118zm45.416 1.389c-.352-.943-1.439-2.68-3.652-2.68-2.192 0-4.018 1.707-4.018 4.214 0 2.36 1.807 4.213 4.229 4.213a4.238 4.238 0 0 0 3.553-1.868l-1.453-.957c-.485.701-1.145 1.166-2.1 1.166-.949 0-1.629-.43-2.065-1.277l5.702-2.332zm-5.814 1.403c-.05-1.625 1.277-2.457 2.226-2.457.745 0 1.376.367 1.587.894zm-4.635 4.088h1.874V18.85h-1.874zM76.617 24h-.062c-.421-.493-1.225-.938-2.242-.938-2.135 0-4.087 1.852-4.087 4.228 0 2.361 1.952 4.199 4.087 4.199 1.017 0 1.82-.45 2.242-.957h.062v.604c0 1.611-.87 2.477-2.275 2.477-1.146 0-1.856-.817-2.15-1.505l-1.63.673c.47 1.117 1.715 2.491 3.78 2.491 2.197 0 4.052-1.278 4.052-4.387v-7.567h-1.777zm-2.144 5.83c-1.292 0-2.373-1.07-2.373-2.54 0-1.485 1.081-2.569 2.373-2.569 1.273 0 2.277 1.084 2.277 2.569 0 1.47-1.004 2.54-2.277 2.54zm24.439-10.98h-4.484v12.384h1.87V26.54h2.614c2.076 0 4.112-1.485 4.112-3.846 0-2.36-2.041-3.845-4.112-3.845zm.048 5.969h-2.662v-4.247h2.662a2.161 2.161 0 0 1 2.193 2.123c0 .958-.797 2.124-2.193 2.124zm11.557-1.78c-1.35 0-2.756.59-3.333 1.896l1.659.687c.357-.687 1.013-.91 1.708-.91.97 0 1.953.576 1.968 1.593v.13c-.338-.193-1.062-.48-1.953-.48-1.787 0-3.608.973-3.608 2.787 0 1.66 1.464 2.728 3.109 2.728 1.258 0 1.952-.56 2.388-1.213h.064v.957h1.806v-4.75c0-2.196-1.66-3.425-3.808-3.425zm-.226 6.787c-.611 0-1.463-.3-1.463-1.05 0-.958 1.062-1.326 1.982-1.326.823 0 1.21.18 1.71.416a2.263 2.263 0 0 1-2.229 1.96zm10.612-6.516-2.149 5.369h-.064l-2.221-5.369h-2.017l3.338 7.503-1.904 4.174h1.953l5.144-11.677zm-16.852 7.924h1.875V18.85h-1.875z" fill="#fff" fill-rule="nonzero"/><path d="M10 9h24v24H10z"/><path d="M2.109 23.035c-.26-.27-.411-.69-.411-1.233V2.42c0-.543.15-.963.41-1.232l.065-.06 10.989 10.857v.257L2.173 23.098z" fill="url(#a)" transform="matrix(1 0 0 -1 10 33.227)"/><path d="m16.82 8.365-3.658 3.62v.257l3.663 3.62.082-.047 4.339-2.44c1.238-.692 1.238-1.831 0-2.528l-4.339-2.435z" fill="url(#b)" transform="matrix(1 0 0 -1 10 33.227)"/><path d="m16.907 19.685-3.745 3.701L2.109 12.461c.411-.427 1.082-.479 1.844-.052z" fill="url(#c)" transform="matrix(1 0 0 -1 10 44.5)"/><path d="M16.907 4.546 3.953 11.821c-.762.423-1.433.372-1.844-.055L13.162.844z" fill="url(#d)" transform="matrix(1 0 0 -1 10 21.958)"/></g></svg>