<svg xmlns="http://www.w3.org/2000/svg" width="14" height="14" viewBox="0 0 14 14">
    <g fill="none" fill-rule="evenodd">
        <path fill="#D8D8D8" fill-opacity="0" d="M0 0h14v14H0z"/>
        <path fill="#000" fill-rule="nonzero" d="M14 7.878a1.57 1.57 0 0 0-.749-1.335V4.932A2.03 2.03 0 0 0 11.235 2.9h-.188c-.173-.943-.994-1.9-1.973-1.9H2.016C.907 1 0 2.146 0 3.263V10.97A2.03 2.03 0 0 0 2.016 13h9.219a2.03 2.03 0 0 0 2.016-2.032v-1.77c.447-.276.749-.769.749-1.32zm-1.57.362h-1.411a.358.358 0 0 1-.36-.362c0-.204.158-.363.36-.363h1.411c.202 0 .36.16.36.363.015.188-.158.362-.36.362zM9.074 2.073c.317 0 .59.552.735.827H3.025c-.375 0-.821-.043-.879-.174 0-.16.072-.653.994-.653h5.934zm2.16 9.723H2.017a.833.833 0 0 1-.82-.828V3.51c.043.058.1.116.158.174.562.508 1.405.42 1.772.42h8.109c.446 0 .82.378.82.828v1.364h-1.022c-.864 0-1.556.711-1.556 1.567s.706 1.567 1.556 1.567h1.023v1.538c0 .465-.36.828-.821.828z"/>
    </g>
</svg>
