<svg width="1075" height="701" fill="none" xmlns="http://www.w3.org/2000/svg"><path fill="#fff" d="M0 .427h1075v700H0z"/><path d="M396.755 283.118h21.774v52.892h19.959l30.211-52.892h25.13l-36.108 62.6 38.195 66.863h-25.493l-31.935-56.339h-19.959v56.339h-21.774V283.118ZM504.266 363.681c0-9.98 1.301-18.175 3.901-24.586 2.601-6.411 6.049-11.462 10.343-15.151 4.294-3.69 9.193-6.23 14.697-7.621a66.273 66.273 0 0 1 16.966-2.177c7.318 0 13.366.998 18.144 2.994 4.839 1.996 8.68 4.808 11.522 8.437 2.843 3.568 4.839 7.863 5.988 12.883 1.149 5.02 1.724 10.554 1.724 16.602 0 2.843-.121 5.776-.363 8.8a177.174 177.174 0 0 1-.817 9.345h-59.968c.06 4.294.514 7.923 1.361 10.887.907 2.903 2.359 5.292 4.355 7.167 2.056 1.815 4.747 3.145 8.074 3.992 3.387.786 7.591 1.179 12.611 1.179 4.233 0 8.195-.09 11.884-.272 3.69-.242 6.926-.514 9.708-.816 3.266-.303 6.23-.696 8.891-1.18v15.06c-3.085 1.15-6.442 2.178-10.07 3.085-3.085.786-6.684 1.482-10.797 2.087-4.112.665-8.497.998-13.155.998-7.137 0-13.487-.908-19.052-2.722-5.564-1.754-10.282-4.657-14.153-8.71-3.81-4.112-6.743-9.465-8.8-16.058-1.996-6.592-2.994-14.667-2.994-24.223Zm63.416-6.623v-3.447c0-3.629-.242-6.774-.725-9.436-.424-2.721-1.331-4.959-2.722-6.713-1.391-1.754-3.357-3.055-5.897-3.901-2.54-.847-5.928-1.27-10.161-1.27-4.536 0-8.256.544-11.159 1.633-2.843 1.028-5.081 2.6-6.714 4.717-1.572 2.057-2.661 4.627-3.266 7.712-.544 3.084-.816 6.653-.816 10.705h41.46ZM599.076 363.681c0-9.98 1.301-18.175 3.902-24.586 2.6-6.411 6.048-11.462 10.342-15.151 4.294-3.69 9.193-6.23 14.697-7.621a66.273 66.273 0 0 1 16.966-2.177c7.318 0 13.366.998 18.144 2.994 4.839 1.996 8.68 4.808 11.522 8.437 2.843 3.568 4.839 7.863 5.988 12.883 1.149 5.02 1.724 10.554 1.724 16.602 0 2.843-.121 5.776-.363 8.8a178.22 178.22 0 0 1-.816 9.345h-59.969c.061 4.294.514 7.923 1.361 10.887.907 2.903 2.359 5.292 4.355 7.167 2.056 1.815 4.748 3.145 8.074 3.992 3.387.786 7.591 1.179 12.611 1.179 4.233 0 8.195-.09 11.885-.272 3.689-.242 6.925-.514 9.707-.816 3.266-.303 6.23-.696 8.891-1.18v15.06c-3.085 1.15-6.441 2.178-10.07 3.085-3.085.786-6.684 1.482-10.797 2.087-4.112.665-8.497.998-13.155.998-7.136 0-13.487-.908-19.052-2.722-5.564-1.754-10.282-4.657-14.152-8.71-3.811-4.112-6.744-9.465-8.801-16.058-1.996-6.592-2.994-14.667-2.994-24.223Zm63.416-6.623v-3.447c0-3.629-.242-6.774-.725-9.436-.424-2.721-1.331-4.959-2.722-6.713-1.391-1.754-3.357-3.055-5.897-3.901-2.54-.847-5.927-1.27-10.161-1.27-4.536 0-8.256.544-11.159 1.633-2.843 1.028-5.081 2.6-6.714 4.717-1.572 2.057-2.661 4.627-3.266 7.712-.544 3.084-.816 6.653-.816 10.705h41.46ZM721.92 456.582h-21.501V316.867h15.786l2.631 7.077c3.326-1.815 6.955-3.448 10.886-4.899 3.387-1.21 7.258-2.329 11.613-3.357 4.415-1.028 9.163-1.542 14.244-1.542 5.08 0 9.496.967 13.245 2.903 3.75 1.875 6.865 4.869 9.345 8.982 2.54 4.052 4.415 9.284 5.625 15.695 1.27 6.35 1.905 14.002 1.905 22.953 0 9.496-.756 17.479-2.268 23.951-1.452 6.472-3.659 11.703-6.623 15.695-2.903 3.932-6.502 6.744-10.796 8.438-4.294 1.754-9.254 2.631-14.879 2.631-4.052 0-7.862-.333-11.431-.998-3.508-.666-6.593-1.422-9.254-2.268-3.084-.968-5.927-2.057-8.528-3.267v47.721Zm0-63.144c1.754.545 3.72.998 5.897 1.361 1.875.303 4.083.605 6.623.908 2.601.241 5.504.362 8.71.362 3.931 0 7.167-.362 9.707-1.088 2.601-.787 4.627-2.329 6.079-4.627 1.512-2.299 2.57-5.534 3.175-9.708.605-4.233.907-9.768.907-16.602 0-5.625-.242-10.373-.726-14.244-.423-3.931-1.27-7.106-2.54-9.526-1.21-2.48-2.933-4.264-5.171-5.352-2.178-1.089-4.99-1.634-8.438-1.634-3.145 0-6.169.242-9.072.726-2.903.424-5.474.877-7.711 1.361a93.722 93.722 0 0 0-7.44 1.996v56.067ZM800.672 363.681c0-9.98 1.301-18.175 3.901-24.586 2.601-6.411 6.049-11.462 10.343-15.151 4.294-3.69 9.193-6.23 14.697-7.621a66.27 66.27 0 0 1 16.965-2.177c7.319 0 13.367.998 18.145 2.994 4.839 1.996 8.679 4.808 11.522 8.437 2.843 3.568 4.839 7.863 5.988 12.883 1.149 5.02 1.724 10.554 1.724 16.602 0 2.843-.121 5.776-.363 8.8a178.246 178.246 0 0 1-.817 9.345h-59.968c.06 4.294.514 7.923 1.361 10.887.907 2.903 2.359 5.292 4.354 7.167 2.057 1.815 4.748 3.145 8.075 3.992 3.387.786 7.59 1.179 12.61 1.179 4.234 0 8.196-.09 11.885-.272 3.69-.242 6.926-.514 9.708-.816 3.266-.303 6.229-.696 8.891-1.18v15.06c-3.085 1.15-6.442 2.178-10.071 3.085-3.084.786-6.683 1.482-10.796 2.087-4.113.665-8.498.998-13.155.998-7.137 0-13.487-.908-19.052-2.722-5.564-1.754-10.282-4.657-14.153-8.71-3.81-4.112-6.744-9.465-8.8-16.058-1.996-6.592-2.994-14.667-2.994-24.223Zm63.416-6.623v-3.447c0-3.629-.242-6.774-.726-9.436-.423-2.721-1.33-4.959-2.721-6.713-1.391-1.754-3.357-3.055-5.897-3.901-2.541-.847-5.928-1.27-10.161-1.27-4.537 0-8.256.544-11.159 1.633-2.843 1.028-5.081 2.6-6.714 4.717-1.573 2.057-2.661 4.627-3.266 7.712-.544 3.084-.817 6.653-.817 10.705h41.461ZM902.014 316.867h18.599l1.27 10.434c4.718-3.085 10.01-5.625 15.877-7.621 5.866-1.996 12.459-3.175 19.777-3.538l-.181 22.318c-7.56.121-14.123.514-19.687 1.179-5.504.605-10.222 1.694-14.153 3.266v69.676h-21.502v-95.714Z" fill="#000"/><path d="M235.744 215.22c-33.043-.017-66.055 10.693-93.072 32.132-10.118 7.986-16.208 19.865-16.796 32.55-1.262 27.223-.899 54.448-.535 81.677v.001c.172 12.878.344 25.755.344 38.634 0 29.407 44.555 60.728 79.986 85.635L207.31 487c8.002 5.627 19.271-.117 19.271-9.899v-14.45c5.972.78 12.4.78 18.372 0v14.45c0 9.782 11.269 15.526 19.271 9.899l1.638-1.151c35.432-24.907 79.987-56.228 79.987-85.635 0-12.879.172-25.757.344-38.635v-.001c.364-27.228.727-54.454-.535-81.676-.588-12.685-6.678-24.564-16.796-32.55-27.017-21.439-60.029-32.149-93.072-32.132h-.046Z" fill="url(#a)"/><path d="M150.071 256.654c-7.354 5.825-11.708 14.387-12.376 23.72-.918 12.822-.906 24.386-.893 36.365v.001c.015 14.642.16 29.281.39 43.921v.008c.193 12.271.386 24.596.386 39.544 0 4.406 1.712 9.764 5.854 16.214 4.124 6.422 10.205 13.22 17.79 20.273 15.067 14.011 31.999 25.892 48.823 37.697l4.113 2.888c.285.174.564.065.564-.185V377.074l-37.079 2.446c-14.682.968-27.123-10.68-27.123-25.394v-22.859c0-15.02 12.939-26.772 27.889-25.332l43.995 4.239c8.863.854 17.882.854 26.745 0l43.995-4.239c14.95-1.44 27.89 10.312 27.89 25.332v22.859c0 14.714-12.442 26.362-27.124 25.394l-37.079-2.446V477.1c0 .25.279.359.565.185a4800.84 4800.84 0 0 1 4.078-2.864l.034-.024h.001c16.824-11.806 33.755-23.687 48.823-37.697 7.584-7.053 13.665-13.851 17.789-20.273 4.142-6.45 5.854-11.808 5.854-16.214 0-14.948.193-27.273.386-39.545v-.007c.23-14.64.375-29.279.391-43.921v-.001c.012-11.979.024-23.543-.893-36.365-.669-9.333-5.022-17.895-12.377-23.72-49.254-39.083-122.174-39.07-171.411 0Z" fill="#fff"/><path d="M196.342 324.903c-6.247 0-11.312 5.064-11.312 11.311v14.402c0 4.73 4.045 8.448 8.759 8.051l11.702-.987a6.463 6.463 0 0 0 5.92-6.441v-15.025c0-6.247-5.064-11.311-11.311-11.311h-3.758ZM271.397 324.903c-6.247 0-11.311 5.064-11.311 11.311v15.085a6.463 6.463 0 0 0 5.856 6.435l11.686 1.104c4.741.448 8.839-3.282 8.839-8.044v-14.58c0-6.247-5.064-11.311-11.312-11.311h-3.758Z" fill="#fff"/><defs><linearGradient id="a" x1="235.767" y1="215.22" x2="235.767" y2="489.216" gradientUnits="userSpaceOnUse"><stop stop-color="#000428"/><stop offset=".635" stop-color="#004E92"/><stop offset="1" stop-color="#0173B3"/></linearGradient></defs></svg>