<svg fill="none" height="14" width="14" xmlns="http://www.w3.org/2000/svg"><path clip-rule="evenodd" d="M10.4 0a3.638 3.638 0 0 0-2.48.97 3.43 3.43 0 0 0-.745 4.053L2.525 9.36l-1.503 1.402-.92.86a.301.301 0 0 0-.102.224c0 .042.005.086.02.125a.327.327 0 0 0 .072.104l1.073 1.094a.336.336 0 0 0 .23.095.332.332 0 0 0 .128-.02.336.336 0 0 0 .107-.07l.685-.636L3.659 13.9a.325.325 0 0 0 .23.1.332.332 0 0 0 .128-.02.335.335 0 0 0 .107-.07l1.502-1.402a.301.301 0 0 0 .102-.224.32.32 0 0 0-.02-.124.326.326 0 0 0-.071-.105l-1.344-1.362 4.415-4.118c1.336.7 3.036.518 4.19-.557A3.434 3.434 0 0 0 13 1.074 3.625 3.625 0 0 0 10.4 0zm.004 1.452a2.126 2.126 0 0 1 1.523.627c.8.813.767 2.11-.066 2.89a2.146 2.146 0 0 1-2.97-.06 2.01 2.01 0 0 1 .062-2.89v-.005c.404-.376.93-.56 1.451-.562z" fill="#dae1e9" fill-rule="evenodd"/></svg>