<svg xmlns="http://www.w3.org/2000/svg" width="14" height="14" viewBox="0 0 14 14">
    <g fill="none" fill-rule="nonzero">
        <path fill="#D8D8D8" fill-opacity="0" d="M0 0h14v14H0z"/>
        <g fill="#DAE1E9">
            <path d="M6.66 7.973c-.89-.867-1.675-1.629-2.12-3.385h3.118V3.277H4.56V1.542H3.224v1.756H.106V4.61h3.182s-.021.253-.064.444C2.78 6.788 2.248 7.888.106 8.967l.446 1.312C2.588 9.2 3.648 7.846 4.115 6.344c.446 1.143 1.21 2.073 2.079 2.92l.467-1.29zM10.776 3.721H8.994l-3.118 8.737h1.336l.891-2.623h3.564l.89 2.623h1.337L10.776 3.72zM8.548 8.523l1.337-3.49 1.336 3.511-2.673-.02z"/>
        </g>
    </g>
</svg>
