<svg height="48" width="48" xmlns="http://www.w3.org/2000/svg"><g fill="none"><path d="M0 0h48v48H0z"/><path d="M24.031 14.277c-5.506 5.505-16.096 8.025-16.096 8.025.335 3.965.928 7.9 1.709 11.815.46 2.306 1.304 4.466 2.874 6.343 2.82 3.378 6.588 5.509 10.876 6.925.417.137.985.092 1.415-.046 2.57-.823 4.965-1.973 7.132-3.5 2.33-1.638 4.212-3.61 5.313-6.155 1.449-3.356 1.906-6.898 2.307-10.448.186-1.648.35-3.299.504-4.95-.868-.214-10.772-2.748-16.034-8.009zm2.795 22.826a.701.701 0 0 1-.677.889h-4.293a.706.706 0 0 1-.536-.248.695.695 0 0 1-.157-.567l.743-6.226a3.88 3.88 0 0 1-1.819-3.278c0-2.145 1.756-3.888 3.914-3.888s3.914 1.743 3.914 3.888a3.88 3.88 0 0 1-1.818 3.278l.73 6.152z" fill="#1f5af6"/><path d="M17.94 15.46v-4.247c0-3.32 2.719-6.02 6.06-6.02 3.342 0 6.06 2.7 6.06 6.02v4.209c1.548.898 3.18 1.653 4.692 2.264v-6.473c0-5.89-4.824-10.68-10.752-10.68s-10.752 4.79-10.752 10.68v6.5c1.51-.608 3.142-1.359 4.692-2.253z" fill="#bacaf4"/></g></svg>