<svg xmlns="http://www.w3.org/2000/svg" width="18" height="18"><g fill="none" fill-rule="evenodd"><path d="M0 0h18v18H0z"/><path fill="#1F5AF6" d="M10.01 12.75a.75.75 0 0 0-.745.75V15H2.488V3h6.777v1.5c0 .412.335.75.744.75a.75.75 0 0 0 .744-.75V3c0-.825-.67-1.5-1.488-1.5H2.488C1.67 1.5 1 2.175 1 3v12c0 .825.67 1.5 1.488 1.5h6.777c.819 0 1.488-.675 1.488-1.5v-1.5a.75.75 0 0 0-.744-.75z"/><path fill="#1F5AF6" d="m16.777 8.475-3.07-3.056a.72.72 0 0 0-.54-.169.738.738 0 0 0-.502.263c-.242.28-.223.693.037 1.012l1.75 1.744H6.027a.75.75 0 0 0 0 1.5h8.405l-1.712 1.687a.79.79 0 0 0-.26.507.71.71 0 0 0 .167.543.78.78 0 0 0 .502.263h.056a.76.76 0 0 0 .484-.169.14.14 0 0 0 .056-.056l3.032-3.019A.743.743 0 0 0 16.981 9a.612.612 0 0 0-.204-.525z"/></g></svg>