<svg xmlns="http://www.w3.org/2000/svg" width="14" height="14" viewBox="0 0 14 14">
    <g fill="none" fill-rule="nonzero">
        <path fill="#D8D8D8" fill-opacity="0" d="M0 0h14v14H0z"/>
        <path fill="#DAE1E9" d="M7 0a7 7 0 1 0 0 14A7 7 0 0 0 7 0zm4.842 4.2H9.886c-.18-.914-.446-1.723-.774-2.383a5.628 5.628 0 0 1 2.73 2.383zM12.6 7c0 .484-.068.952-.184 1.4h-2.33a15.41 15.41 0 0 0 0-2.8h2.33c.116.448.184.916.184 1.4zM7 12.6c-.305 0-1.04-.976-1.453-2.8h2.906C8.04 11.624 7.305 12.6 7 12.6zM5.321 8.4a13.785 13.785 0 0 1 0-2.8H8.68a13.785 13.785 0 0 1 0 2.8H5.32zM1.4 7c0-.484.068-.952.184-1.4h2.33a15.41 15.41 0 0 0 0 2.8h-2.33A5.572 5.572 0 0 1 1.4 7zM7 1.4c.305 0 1.04.976 1.453 2.8H5.547C5.96 2.376 6.695 1.4 7 1.4zm-2.112.417c-.328.66-.594 1.469-.774 2.383H2.158a5.628 5.628 0 0 1 2.73-2.383zM2.158 9.8h1.956c.18.914.446 1.723.774 2.383A5.628 5.628 0 0 1 2.158 9.8zm6.954 2.383c.328-.66.594-1.469.774-2.383h1.956a5.628 5.628 0 0 1-2.73 2.383z"/>
    </g>
</svg>
