<svg xmlns="http://www.w3.org/2000/svg" width="14" height="14" viewBox="0 0 14 14">
    <g fill="none" fill-rule="nonzero">
        <path fill="none" d="M0 0h14v14H0z"/>
        <path fill="#000" d="M11.261 3.947L12.188 3c2.391 2.504 2.424 6.547.05 9l-.912-.947c1.822-1.912 1.806-5.16-.065-7.106zm-1.74 5.668c1.106-1.15 1.073-3.045-.065-4.23l.927-.964c1.643 1.689 1.665 4.441.049 6.158l-.911-.964zm-1.805-2.86l.91-.947a2.43 2.43 0 0 1 .71 1.678c.012.635-.22 1.249-.644 1.706l-.911-.948c.171-.2.264-.46.26-.727a1.224 1.224 0 0 0-.325-.761zm-4.977 4.298L1.812 12C-.58 9.496-.612 5.453 1.762 3l.912.947C.852 5.86.868 9.107 2.739 11.053zm.878-.474C1.974 8.89 1.952 6.138 3.568 4.42l.911.964c-1.106 1.15-1.073 3.045.065 4.23l-.927.964zm2.667-2.335l-.91.948a2.43 2.43 0 0 1-.71-1.678c-.012-.635.22-1.249.644-1.706l.911.948c-.171.2-.264.46-.26.727.018.286.133.556.325.761z"/>
    </g>
</svg>
