<svg xmlns="http://www.w3.org/2000/svg" width="14" height="14" viewBox="0 0 14 14">
    <g fill="none" fill-rule="nonzero">
        <path fill="#D8D8D8" fill-opacity="0" d="M0 0h14v14H0z"/>
        <path fill="#DAE1E9" d="M8.313 12.975h.15V14H3.35v-1.025H4.662V12.4h-3.2A1.464 1.464 0 0 1 0 10.938V1.462C0 .656.656.001 1.462.001L12.537 0C13.345 0 14 .656 14 1.462v3.501H12.825v-3.5a.288.288 0 0 0-.287-.288H1.463a.288.288 0 0 0-.288.287v8.013h7.288V10.65H1.175v.288c0 .158.129.287.287.287h7V12.4H5.838v.575h2.474zm-2.74-6.164l.104.107-.104.105-.618.619-.098.107-.115-.107-2.315-2.187h6.256v1.047h-3.42l.31.31zm2.321-3.023l-.31-.31-.115-.105.116-.107.618-.618.104-.102.108.102 2.316 2.165H4.475V3.788h3.42z"/>
        <path fill="#DAE1E9" d="M10 5.5h3a1 1 0 0 1 1 1V13a1 1 0 0 1-1 1h-3a1 1 0 0 1-1-1V6.5a1 1 0 0 1 1-1zm.5 1a.5.5 0 0 0-.5.5v5.554a.5.5 0 0 0 .5.5h2a.5.5 0 0 0 .5-.5V7a.5.5 0 0 0-.5-.5h-2zm0-.5h2v.5a.5.5 0 0 1-.5.5h-1a.5.5 0 0 1-.5-.5V6z"/>
    </g>
</svg>
