<svg xmlns="http://www.w3.org/2000/svg" width="14" height="14" viewBox="0 0 14 14">
    <g fill="none" fill-rule="evenodd">
        <path fill="none" d="M0 0h14v14H0z"/>
        <path fill="#DAE1E9" d="M6.705.106C5.082 1.617 3.385 1.617 1.54 1.617A.623.623 0 0 0 1 2.231v4.816c0 3.966 2.754 5.005 5.656 6.847a.61.61 0 0 0 .688 0C10.246 12.052 13 11.014 13 7.047V2.231a.623.623 0 0 0-.541-.614c-1.952 0-3.541-.303-5.164-1.51a.463.463 0 0 0-.59 0zm-.738 7.791l2.951-2.88c.541-.472 1.328.236.787.755L6.36 8.983c-.246.236-.59.236-.787.047L4.295 7.803c-.492-.52.246-1.228.787-.756l.885.85z"/>
    </g>
</svg>
