<svg height="28" width="14" xmlns="http://www.w3.org/2000/svg"><g fill="none" fill-rule="evenodd"><path d="M0 0h14v28H0z"/><g fill-rule="nonzero"><path d="M0 0h14v14H0z"/><path d="M7 0a7 7 0 1 0 0 14A7 7 0 0 0 7 0zm.76 11.468a.258.258 0 0 1-.258.257H6.421a.258.258 0 0 1-.258-.257v-.975c0-.141.116-.257.258-.257h1.081c.142 0 .258.116.258.257zm2.08-5.65c-.064.218-.15.406-.256.564-.107.158-.23.3-.366.424a32.89 32.89 0 0 1-.41.365c-.163.137-.312.269-.449.397a2.293 2.293 0 0 0-.359.43c-.108.172-.188.36-.237.557a2.93 2.93 0 0 0-.073.472c-.022.251-.16.31-.273.31h-.845a.27.27 0 0 1-.27-.277s.012-.417.05-.678c.039-.26.1-.489.187-.685.085-.197.19-.37.314-.52a3.6 3.6 0 0 1 .442-.442c.137-.12.267-.23.391-.333a2.28 2.28 0 0 0 .333-.34c.098-.124.176-.263.231-.417.056-.154.083-.337.083-.551a1.49 1.49 0 0 0-.134-.66 1.281 1.281 0 0 0-.737-.686 1.178 1.178 0 0 0-.385-.078c-.53 0-.921.174-1.173.52-.198.271-.301.617-.361 1.03-.043.296-.215.36-.32.36h-.882a.253.253 0 0 1-.256-.276s.05-.62.19-1.005c.141-.385.346-.714.616-.987.269-.274.594-.486.974-.635.38-.15.806-.225 1.276-.225.393 0 .758.058 1.097.174.337.115.632.282.884.5s.45.489.596.814.218.692.218 1.103c0 .298-.032.557-.096.775z" fill="#dae1e9"/></g><path d="M0 14h14v14H0z"/><path d="M7 14a7 7 0 1 0 0 14 7 7 0 0 0 0-14zm.76 11.468a.258.258 0 0 1-.258.257H6.421a.258.258 0 0 1-.258-.257v-.975c0-.141.116-.257.258-.257h1.081c.142 0 .258.116.258.257zm2.08-5.65c-.064.218-.15.406-.256.564-.107.158-.23.3-.366.424a32.89 32.89 0 0 1-.41.365c-.163.137-.312.269-.449.397a2.293 2.293 0 0 0-.359.43c-.108.172-.188.36-.237.557a2.93 2.93 0 0 0-.073.472c-.022.251-.16.31-.273.31h-.845a.27.27 0 0 1-.27-.277s.012-.417.05-.678c.039-.26.1-.489.187-.685.085-.197.19-.37.314-.52a3.6 3.6 0 0 1 .442-.442c.137-.12.267-.23.391-.333a2.28 2.28 0 0 0 .333-.34c.098-.124.176-.263.231-.417.056-.154.083-.337.083-.551a1.49 1.49 0 0 0-.134-.66 1.281 1.281 0 0 0-.737-.686 1.178 1.178 0 0 0-.385-.078c-.53 0-.921.174-1.173.52-.198.271-.301.617-.361 1.03-.043.296-.215.36-.32.36h-.882a.253.253 0 0 1-.256-.276s.05-.62.19-1.005c.141-.385.346-.714.616-.987.269-.274.594-.486.974-.635.38-.15.806-.225 1.276-.225.393 0 .758.058 1.097.174.337.115.632.282.884.5s.45.489.596.814.218.692.218 1.103c0 .298-.032.557-.096.775z" fill="#000" fill-rule="nonzero"/></g></svg>