<?xml version="1.0" encoding="UTF-8"?>
<svg width="14px" height="28px" viewBox="0 0 14 28" version="1.1" xmlns="http://www.w3.org/2000/svg" xmlns:xlink="http://www.w3.org/1999/xlink">
    <!-- Generator: Sketch 53.2 (72643) - https://sketchapp.com -->
    <title>question-sprite</title>
    <desc>Created with Sketch.</desc>
    <g id="Page-1" stroke="none" stroke-width="1" fill="none" fill-rule="evenodd">
        <g id="question-sprite">
            <rect id="ico-zone" fill-opacity="0" fill="#D8D8D8" x="0" y="0" width="14" height="28"></rect>
            <g id="question-14-basic-200" fill-rule="nonzero">
                <polygon id="Path" fill-opacity="0" fill="#D8D8D8" points="0 0 14 0 14 14 0 14"></polygon>
                <path d="M7,0 C3.13400675,-2.36723813e-16 4.73447626e-16,3.13400675 0,7 C-4.73447626e-16,10.8659932 3.13400675,14 7,14 C10.8659932,14 14,10.8659932 14,7 C14,3.13400675 10.8659932,2.36723813e-16 7,0 Z M7.76,11.468 C7.75944923,11.6100988 7.64409985,11.7250011 7.502,11.725 L6.421,11.725 C6.27890015,11.7250011 6.16355077,11.6100988 6.163,11.468 L6.163,10.493 C6.163,10.352 6.279,10.236 6.421,10.236 L7.502,10.236 C7.644,10.236 7.76,10.352 7.76,10.493 L7.76,11.468 L7.76,11.468 Z M9.84,5.818 C9.776,6.036 9.69,6.224 9.584,6.382 C9.477,6.54 9.354,6.682 9.218,6.806 C9.08235103,6.92880504 8.94567961,7.05047595 8.808,7.171 C8.645,7.308 8.496,7.44 8.359,7.568 C8.22220965,7.69612295 8.10164357,7.84053358 8,7.998 C7.89155652,8.16971144 7.81152816,8.35779497 7.763,8.555 C7.72586259,8.71008461 7.70144817,8.86794226 7.69,9.027 C7.668,9.278 7.53,9.337 7.417,9.337 L6.572,9.337 C6.49916205,9.33702448 6.42940398,9.30761925 6.37856304,9.25546021 C6.3277221,9.20330117 6.3001116,9.13281347 6.302,9.06 C6.302,9.06 6.314,8.643 6.352,8.382 C6.391,8.122 6.452,7.893 6.539,7.697 C6.624,7.5 6.729,7.327 6.853,7.177 C6.98723943,7.01713011 7.13513011,6.86923943 7.295,6.735 C7.432,6.615 7.562,6.505 7.686,6.402 C7.80855661,6.30059331 7.92016444,6.18663936 8.019,6.062 C8.117,5.938 8.195,5.799 8.25,5.645 C8.306,5.491 8.333,5.308 8.333,5.094 C8.33928923,4.86665643 8.29345182,4.64089009 8.199,4.434 C8.05726303,4.11432503 7.7910014,3.86648855 7.462,3.748 C7.33893679,3.7006351 7.20879441,3.67426859 7.077,3.67 C6.547,3.67 6.156,3.844 5.904,4.19 C5.706,4.461 5.603,4.807 5.543,5.22 C5.5,5.516 5.328,5.58 5.223,5.58 L4.341,5.58 C4.2691986,5.5811497 4.20029127,5.55173293 4.15145694,5.49908342 C4.10262261,5.44643391 4.07846256,5.37551241 4.085,5.304 C4.085,5.304 4.135,4.684 4.275,4.299 C4.416,3.914 4.621,3.585 4.891,3.312 C5.16,3.038 5.485,2.826 5.865,2.677 C6.245,2.527 6.671,2.452 7.141,2.452 C7.534,2.452 7.899,2.51 8.238,2.626 C8.575,2.741 8.87,2.908 9.122,3.126 C9.374,3.344 9.572,3.615 9.718,3.94 C9.864,4.265 9.936,4.632 9.936,5.043 C9.936,5.341 9.904,5.6 9.84,5.818 L9.84,5.818 Z" id="Shape" fill="#DAE1E9"></path>
            </g>
            <g id="question-14-black" transform="translate(0.000000, 14.000000)">
                <polygon id="Path" points="0 0 14 0 14 14 0 14"></polygon>
                <path d="M7,0 C3.13400675,-2.36723813e-16 4.73447626e-16,3.13400675 0,7 C-4.73447626e-16,10.8659932 3.13400675,14 7,14 C10.8659932,14 14,10.8659932 14,7 C14,3.13400675 10.8659932,2.36723813e-16 7,0 Z M7.76,11.468 C7.75944923,11.6100988 7.64409985,11.7250011 7.502,11.725 L6.421,11.725 C6.27890015,11.7250011 6.16355077,11.6100988 6.163,11.468 L6.163,10.493 C6.163,10.352 6.279,10.236 6.421,10.236 L7.502,10.236 C7.644,10.236 7.76,10.352 7.76,10.493 L7.76,11.468 L7.76,11.468 Z M9.84,5.818 C9.776,6.036 9.69,6.224 9.584,6.382 C9.477,6.54 9.354,6.682 9.218,6.806 C9.08235103,6.92880504 8.94567961,7.05047595 8.808,7.171 C8.645,7.308 8.496,7.44 8.359,7.568 C8.22220965,7.69612295 8.10164357,7.84053358 8,7.998 C7.89155652,8.16971144 7.81152816,8.35779497 7.763,8.555 C7.72586259,8.71008461 7.70144817,8.86794226 7.69,9.027 C7.668,9.278 7.53,9.337 7.417,9.337 L6.572,9.337 C6.49916205,9.33702448 6.42940398,9.30761925 6.37856304,9.25546021 C6.3277221,9.20330117 6.3001116,9.13281347 6.302,9.06 C6.302,9.06 6.314,8.643 6.352,8.382 C6.391,8.122 6.452,7.893 6.539,7.697 C6.624,7.5 6.729,7.327 6.853,7.177 C6.98723943,7.01713011 7.13513011,6.86923943 7.295,6.735 C7.432,6.615 7.562,6.505 7.686,6.402 C7.80855661,6.30059331 7.92016444,6.18663936 8.019,6.062 C8.117,5.938 8.195,5.799 8.25,5.645 C8.306,5.491 8.333,5.308 8.333,5.094 C8.33928923,4.86665643 8.29345182,4.64089009 8.199,4.434 C8.05726303,4.11432503 7.7910014,3.86648855 7.462,3.748 C7.33893679,3.7006351 7.20879441,3.67426859 7.077,3.67 C6.547,3.67 6.156,3.844 5.904,4.19 C5.706,4.461 5.603,4.807 5.543,5.22 C5.5,5.516 5.328,5.58 5.223,5.58 L4.341,5.58 C4.2691986,5.5811497 4.20029127,5.55173293 4.15145694,5.49908342 C4.10262261,5.44643391 4.07846256,5.37551241 4.085,5.304 C4.085,5.304 4.135,4.684 4.275,4.299 C4.416,3.914 4.621,3.585 4.891,3.312 C5.16,3.038 5.485,2.826 5.865,2.677 C6.245,2.527 6.671,2.452 7.141,2.452 C7.534,2.452 7.899,2.51 8.238,2.626 C8.575,2.741 8.87,2.908 9.122,3.126 C9.374,3.344 9.572,3.615 9.718,3.94 C9.864,4.265 9.936,4.632 9.936,5.043 C9.936,5.341 9.904,5.6 9.84,5.818 L9.84,5.818 Z" id="Shape" fill="#000000" fill-rule="nonzero"></path>
            </g>
        </g>
    </g>
</svg>