<svg xmlns="http://www.w3.org/2000/svg" width="14" height="14" viewBox="0 0 14 14">
    <g fill="none" fill-rule="nonzero">
        <path fill="none" d="M0 0h14v14H0z"/>
        <path fill="#9BA6B2" d="M5.195 3.283l-1.038-1.02A5.644 5.644 0 0 1 7 1.5c3.093 0 5.6 2.462 5.6 5.5H14l-2.1 2.406L9.8 7h1.4c0-2.275-1.884-4.125-4.2-4.125a4.21 4.21 0 0 0-1.805.408zm3.61 7.434l1.038 1.02A5.645 5.645 0 0 1 7 12.5c-3.093 0-5.6-2.462-5.6-5.5H0l2.1-2.406L4.2 7H2.8c0 2.275 1.884 4.125 4.2 4.125a4.21 4.21 0 0 0 1.805-.408z"/>
    </g>
</svg>
