<svg fill="none" height="18" width="18" xmlns="http://www.w3.org/2000/svg"><g fill="#1f5af6"><path clip-rule="evenodd" d="M2.857 3.6c0 1.988 1.6 3.6 3.572 3.6S10 5.588 10 3.6 8.401 0 6.429 0 2.857 1.612 2.857 3.6zm10 12.952A5.143 5.143 0 0 1 7.304 8.7a6.442 6.442 0 0 0-.875-.06C2.879 8.644.004 11.543 0 15.12v2.16c0 .398.32.72.714.72h11.429a.717.717 0 0 0 .714-.72z" fill-rule="evenodd"/><path d="M15.065 14.183H14.6l-.164-.158a3.823 3.823 0 1 0-.412.412l.159.164v.465L17.123 18l.877-.876zm-3.529 0a2.643 2.643 0 0 1-2.646-2.646 2.643 2.643 0 0 1 2.647-2.646 2.643 2.643 0 0 1 2.646 2.646 2.643 2.643 0 0 1-2.646 2.646z"/></g></svg>