<svg xmlns="http://www.w3.org/2000/svg" width="18" height="18"><g fill="none" fill-rule="evenodd"><path d="M0 0h18v18H0z"/><path fill="#000" fill-rule="nonzero" d="M16.47 8.215 15.21 8a.889.889 0 0 1-.738-.666 6.88 6.88 0 0 0-.428-1.047.956.956 0 0 1 .047-.976l.738-1.047a.472.472 0 0 0-.048-.618l-.428-.428a.472.472 0 0 0-.618-.048l-1.047.738c-.286.214-.666.214-.976.047a4.41 4.41 0 0 0-1.047-.428A.96.96 0 0 1 10 2.79l-.214-1.26a.484.484 0 0 0-.476-.405h-.618a.484.484 0 0 0-.476.404L8 2.79a.889.889 0 0 1-.666.738 6.88 6.88 0 0 0-1.047.428.956.956 0 0 1-.976-.047L4.265 3.17a.472.472 0 0 0-.618.048l-.428.428a.472.472 0 0 0-.048.618l.738 1.047c.214.286.214.666.047.976a4.41 4.41 0 0 0-.428 1.047A.96.96 0 0 1 2.79 8l-1.26.214a.484.484 0 0 0-.405.476v.618c0 .238.167.429.404.476L2.79 10a.89.89 0 0 1 .738.666c.119.381.262.714.428 1.047.167.31.143.69-.047.976l-.738 1.047a.472.472 0 0 0 .048.618l.428.428c.166.167.428.19.618.048l1.047-.738c.286-.214.666-.214.976-.047.333.19.69.333 1.047.428A.96.96 0 0 1 8 15.21l.214 1.26a.484.484 0 0 0 .476.405h.618a.484.484 0 0 0 .476-.404L10 15.21a.889.889 0 0 1 .666-.738 6.88 6.88 0 0 0 1.047-.428.956.956 0 0 1 .976.047l1.047.738a.47.47 0 0 0 .618-.048l.428-.428a.472.472 0 0 0 .048-.618l-.738-1.047c-.214-.286-.214-.666-.047-.976.19-.333.333-.69.428-1.047A.96.96 0 0 1 15.21 10l1.26-.214a.484.484 0 0 0 .405-.476v-.618a.484.484 0 0 0-.404-.476zm-7.446 5.067A4.295 4.295 0 0 1 4.74 9a4.295 4.295 0 0 1 4.283-4.282A4.295 4.295 0 0 1 13.306 9a4.295 4.295 0 0 1-4.282 4.282z"/></g></svg>