<svg xmlns="http://www.w3.org/2000/svg" width="14" height="14" viewBox="0 0 14 14">
    <g fill="none" fill-rule="evenodd">
        <path fill="#D8D8D8" fill-opacity="0" d="M0 0h14v14H0z"/>
        <path fill="#FFF" fill-rule="nonzero" d="M12.81 6.39l-.98-.167a.691.691 0 0 1-.574-.518 5.352 5.352 0 0 0-.333-.815.744.744 0 0 1 .037-.758l.574-.814a.367.367 0 0 0-.037-.482l-.333-.333a.367.367 0 0 0-.482-.037l-.814.574a.704.704 0 0 1-.758.037 3.43 3.43 0 0 0-.815-.333.747.747 0 0 1-.518-.574l-.166-.98a.376.376 0 0 0-.37-.315h-.482a.376.376 0 0 0-.37.315l-.166.98a.691.691 0 0 1-.518.574 5.352 5.352 0 0 0-.815.333.744.744 0 0 1-.758-.037l-.814-.574a.367.367 0 0 0-.482.037l-.333.333a.367.367 0 0 0-.037.482l.574.814a.704.704 0 0 1 .037.758 3.43 3.43 0 0 0-.333.815.747.747 0 0 1-.574.518l-.98.166a.376.376 0 0 0-.315.37v.482c0 .185.13.333.315.37l.98.166c.278.037.5.24.574.518.092.296.204.555.333.815.13.24.111.536-.037.758l-.574.814a.367.367 0 0 0 .037.482l.333.333c.13.13.334.148.482.037l.814-.574a.704.704 0 0 1 .758-.037c.26.148.537.259.815.333.259.074.462.296.518.574l.166.98a.376.376 0 0 0 .37.315h.482c.185 0 .333-.13.37-.315l.166-.98c.037-.278.24-.5.518-.574.296-.092.555-.204.815-.333a.744.744 0 0 1 .758.037l.814.574a.367.367 0 0 0 .482-.037l.333-.333a.367.367 0 0 0 .037-.482l-.574-.814a.704.704 0 0 1-.037-.758c.148-.26.259-.537.333-.815a.747.747 0 0 1 .574-.518l.98-.166a.376.376 0 0 0 .315-.37v-.482a.376.376 0 0 0-.315-.37zM7.02 10.33A3.34 3.34 0 0 1 3.688 7a3.34 3.34 0 0 1 3.33-3.33A3.34 3.34 0 0 1 10.35 7a3.34 3.34 0 0 1-3.33 3.33z"/>
    </g>
</svg>
