<svg xmlns="http://www.w3.org/2000/svg" width="48" height="48" viewBox="0 0 48 48">
    <g fill="none" fill-rule="evenodd">
        <circle cx="24" cy="24" r="24" fill="#FFF"/>
        <path fill="#1F5AF6" fill-rule="nonzero" d="M13.316 35A3.333 3.333 0 0 1 10 31.68V17.286C10 15.49 11.504 14 13.316 14h21.368C36.496 14 38 15.456 38 17.285v14.43C38 33.51 36.53 35 34.684 35H13.316zm-1.948-17.715v14.396c0 1.05.854 1.93 1.948 1.93h21.368c1.06 0 1.948-.846 1.948-1.93V17.285c0-1.05-.854-1.93-1.948-1.93H13.316c-1.06 0-1.948.847-1.948 1.93zm2.393 14.328c-.171 0-.342-.034-.445-.17-.307-.237-.307-.677-.068-.948l5.299-5.995c.068-.034.137-.102.205-.135L13.59 18.64a.683.683 0 0 1 .068-.948.698.698 0 0 1 .957.068l8.445 9.416c.513.474 1.367.474 1.88 0l8.513-9.382c.24-.305.684-.305.957-.068.308.237.308.677.069.948l-5.197 5.792c.103.034.205.068.274.17l4.957 5.554a.683.683 0 0 1-.069.949c-.136.101-.273.17-.444.17a.617.617 0 0 1-.513-.238l-4.923-5.555c-.034-.034-.068-.101-.102-.135l-2.496 2.743a2.702 2.702 0 0 1-1.915.78 2.702 2.702 0 0 1-1.914-.78l-.034-.034-2.462-2.71-.068.068-5.3 5.928a.617.617 0 0 1-.512.237z"/>
    </g>
</svg>
