<svg fill="none" height="80" width="80" xmlns="http://www.w3.org/2000/svg"><path clip-rule="evenodd" d="M20.096.098c-2.346.369-4.23 1.208-6.553 2.918-.83.611-1.59 1.11-1.692 1.11-.102 0-.687.252-1.3.56C7.909 6.008 6.14 8.854 6.14 11.778c0 1.637.317 2.674 1.604 5.246l1.126 2.25-.626.107c-.88.149-2.007.91-2.54 1.716-.407.617-.45.819-.45 2.093 0 1.31.034 1.46.488 2.107.63.898 1.727 1.573 2.753 1.695l.804.095.304 1.071c.798 2.817 2.704 5.395 5.205 7.04l.686.451v3.459l-5.927 2.459c-3.26 1.352-6.31 2.718-6.778 3.034-1.02.69-1.663 1.469-2.256 2.735l-.44.943-.047 9.646L0 67.572l.402.403.402.402h9.529v10.831l.396.396.396.396h57.762l.396-.396.396-.396V68.377h9.529l.396-.396.396-.397-.002-9.25c-.002-9.67-.027-10.072-.72-11.428a6.06 6.06 0 0 0-2.056-2.304c-.468-.316-3.518-1.683-6.777-3.038L64.518 39.1v-3.451l.686-.45c2.5-1.646 4.407-4.224 5.205-7.04l.303-1.072.805-.095c1.838-.218 3.187-1.707 3.292-3.636.05-.928-.002-1.184-.405-1.956-.535-1.025-1.6-1.844-2.625-2.017-.357-.06-.649-.133-.649-.16 0-.029.338-.84.75-1.803.909-2.125 1.152-2.998 1.276-4.576.22-2.786-.991-5.938-3.07-7.993-1.26-1.244-2.26-1.829-5.729-3.348C61.577.286 60.382.01 57.987.034c-3.198.033-5.375.813-8.32 2.982-.83.611-1.59 1.11-1.692 1.11-.585 0-2.516 1.215-3.404 2.141-1.7 1.773-2.415 3.701-2.256 6.093.05.754.141 1.54.202 1.744.103.343.077.362-.353.25-.664-.175-3.886-.128-4.702.068l-.69.165.125-.589c.203-.962.103-3.257-.192-4.383-.65-2.482-2.526-5.022-4.621-6.26-1.422-.838-5.76-2.71-6.968-3.005-1.364-.334-3.742-.453-5.02-.252zm4.588 2.818c1.501.389 5.926 2.478 6.855 3.235 2.182 1.78 3.279 4.547 2.845 7.178-.326 1.974-.52 2.28-2.218 3.504-1.663 1.199-1.685 1.212-3.472 2.051-3.38 1.588-5.204 5.524-4.253 9.178.131.504.748 1.936 1.371 3.181l1.133 2.264h-.828c-1.32 0-2.069.305-2.969 1.206-1.631 1.633-1.631 3.705 0 5.338.94.94 1.645 1.205 3.21 1.205.826 0 1.07.053 1.07.234 0 .543 1.045 3.064 1.681 4.054.817 1.27 2.384 2.9 3.584 3.728l.862.594v3.313l-.846.244c-.466.134-4.548 1.268-9.072 2.52-4.523 1.25-8.55 2.388-8.95 2.528-2.573.898-4.354 3.471-4.354 6.29v1.033H2.581l.046-8.516c.045-8.446.049-8.52.404-9.186.197-.369.618-.885.936-1.147.358-.295 3.08-1.517 7.111-3.192 4.214-1.75 6.615-2.831 6.764-3.045.18-.258.232-.974.232-3.246 0-3.357.01-3.33-1.413-4.133-.509-.288-1.443-1.046-2.076-1.684a10.075 10.075 0 0 1-2.737-5.16c-.339-1.742-.637-2.018-2.176-2.018-.982 0-1.179-.051-1.523-.396-.524-.524-.524-1.266 0-1.79.345-.347.54-.397 1.539-.397.999 0 1.193-.05 1.54-.396.335-.336.395-.55.397-1.413.002-.951-.088-1.2-1.41-3.914L8.8 13.264v-1.461c0-1.356.04-1.534.55-2.476.655-1.21 1.378-1.882 2.587-2.41 1.613-.702 1.846-.838 3.394-1.98 1.6-1.183 3.317-1.977 4.876-2.256 1.118-.2 3.225-.09 4.477.235zm36.124 0c1.5.389 5.926 2.478 6.855 3.235 1.592 1.299 2.503 2.902 2.862 5.038.257 1.53-.041 2.944-1.176 5.584-.843 1.962-.96 2.361-.96 3.276 0 .892.057 1.1.396 1.439.346.346.54.396 1.539.396 1 0 1.194.05 1.54.397.523.524.523 1.266 0 1.79-.345.345-.542.396-1.524.396-1.54 0-1.837.276-2.176 2.018a10.138 10.138 0 0 1-2.737 5.167c-.633.641-1.569 1.402-2.08 1.69-1.421.798-1.409.762-1.409 4.139 0 2.558.036 2.975.282 3.264.163.192 3.024 1.472 6.762 3.026 4.009 1.666 6.701 2.875 7.06 3.172.32.263.742.78.939 1.15.355.664.358.74.404 9.185l.045 8.516h-7.75v-1.035c0-2.516-1.435-4.888-3.659-6.046-.194-.101-4.548-1.35-9.676-2.773-5.127-1.424-9.45-2.628-9.605-2.674-.245-.074-.282-.305-.282-1.743v-1.657l.881-.608c1.214-.837 2.972-2.73 3.762-4.05.363-.606.863-1.74 1.112-2.522l.453-1.422 1.03-.004c1.527-.006 2.237-.277 3.169-1.21 1.631-1.632 1.631-3.704 0-5.337-.9-.901-1.65-1.206-2.967-1.206-.456 0-.828-.029-.828-.065s.337-.852.749-1.816c.909-2.125 1.153-2.998 1.277-4.576.22-2.796-.968-5.877-3.082-7.993-1.074-1.075-1.436-1.313-3.611-2.371l-2.418-1.176-.53-1.131c-.476-1.017-.53-1.279-.53-2.584 0-1.347.04-1.527.55-2.468.655-1.21 1.378-1.882 2.588-2.41 1.613-.702 1.846-.838 3.394-1.98 1.6-1.183 3.317-1.977 4.875-2.256 1.119-.2 3.226-.09 4.477.235zM42.772 17.114c1.434.374 5.929 2.51 6.83 3.244 2.759 2.25 3.71 6.1 2.273 9.205l-.369.797-.75-1.487c-1.122-2.23-1.48-2.305-3.579-.755-2.682 1.98-4.048 2.564-6.435 2.748-2.704.208-4.924-.532-7.638-2.546-2.418-1.793-2.728-1.741-3.896.65-.395.808-.764 1.47-.82 1.47-.055 0-.421-.672-.813-1.493-.679-1.423-.712-1.561-.712-2.946 0-1.347.04-1.527.55-2.468.645-1.192 1.355-1.861 2.587-2.44.746-.35 1.122-.419 2.265-.417 1.19.003 1.51.068 2.42.498 1.063.501 1.848 1.153 2.592 2.15l.41.55.999-.678c.549-.373.997-.741.997-.819 0-.24-1.217-1.696-1.923-2.302-.753-.645-2.42-1.58-2.816-1.58-.672 0-.105-.455 1.236-.992 1.945-.778 4.52-.93 6.592-.39zm-9.864 14.212c2.329 1.534 4.211 2.088 7.098 2.088s4.77-.554 7.098-2.088c.74-.487 1.39-.886 1.444-.886.054 0 .483.783.955 1.74l.858 1.74-.065 3.386c-.061 3.159-.094 3.464-.49 4.57-.598 1.67-1.33 2.834-2.55 4.055-1.22 1.22-2.383 1.954-4.051 2.553-1.021.367-1.448.426-3.118.432-1.567.007-2.15-.06-3.064-.35-2.624-.832-4.978-2.819-6.176-5.211-.955-1.909-1.156-3.048-1.16-6.577l-.002-2.944.843-1.697c.464-.933.886-1.697.939-1.697s.7.399 1.44.886zm-5.803 6.056v1.291h-.895c-1.076 0-1.686-.467-1.686-1.291 0-.824.61-1.292 1.686-1.292h.895zm27.987-.895c.25.25.396.58.396.895 0 .824-.61 1.291-1.687 1.291h-.894V36.09h.895c.734 0 .965.071 1.29.397zM40.006 51.473c1.45 0 2.46-.08 3.024-.242l.846-.242v2.621l-1.935 1.933-1.935 1.932-1.935-1.932-1.935-1.932v-2.622l.846.242c.564.162 1.573.242 3.024.242zm-3.06 6.653c2.246 2.232 2.577 2.502 3.06 2.502.483 0 .814-.27 3.06-2.503l2.518-2.503 9.588 2.668c10.164 2.827 10.45 2.932 11.237 4.1.2.298.437.804.526 1.125.096.347.162 3.28.163 7.243v6.66h-7.74V67.084h-2.58v10.332H23.234V67.085h-2.58v10.332h-7.74v-6.659c0-3.963.067-6.896.163-7.243.09-.321.326-.827.526-1.124.785-1.166 1.082-1.275 11.163-4.088 5.233-1.46 9.548-2.66 9.59-2.667.04-.007 1.206 1.114 2.59 2.49z" fill="#1f5af6" fill-rule="evenodd"/></svg>