<svg height="80" width="80" xmlns="http://www.w3.org/2000/svg"><g fill="none"><path d="M0 0h80v80H0z"/><g fill="#ef4829"><path d="m39.5 67.879 2.121-2.122a1.5 1.5 0 0 1 2.122 2.122L41.62 70l2.122 2.121a1.5 1.5 0 0 1-2.122 2.122L39.5 72.12l-2.121 2.122a1.5 1.5 0 0 1-2.122-2.122L37.38 70l-2.122-2.121a1.5 1.5 0 0 1 2.122-2.122l2.12 2.123zM5 68.5h27a1.5 1.5 0 0 1 0 3H5a1.5 1.5 0 0 1 0-3zm43 0h27a1.5 1.5 0 0 1 0 3H48a1.5 1.5 0 0 1 0-3zM6.5 7.5v19h67v-19zm-1-3h69a2 2 0 0 1 2 2v21a2 2 0 0 1-2 2h-69a2 2 0 0 1-2-2v-21a2 2 0 0 1 2-2z"/><path d="M10 28.667h3v5.666h-3zM20.4 16v3h-7.8v-3zm8.933 0v3h-5.666v-3zM64.4 16v3H50.6v-3zM67 28.667h3v5.666h-3zM20.4 44v3h-7.8v-3zm8.933 0v3h-5.666v-3zM64.4 44v3H50.6v-3z"/><path d="M6.5 36.5v19h67v-19zm35 22V62a1.5 1.5 0 0 1-3 0v-3.5h-33a2 2 0 0 1-2-2v-21a2 2 0 0 1 2-2h69a2 2 0 0 1 2 2v21a2 2 0 0 1-2 2z"/></g></g></svg>