<svg xmlns="http://www.w3.org/2000/svg" width="80" height="80" viewBox="0 0 80 80">
    <g fill="none" fill-rule="nonzero">
        <path fill="#D8D8D8" fill-opacity="0" d="M0 0h80v80H0z"/>
        <path fill="#EF4829" d="M39.5 67.879l2.121-2.122a1.5 1.5 0 0 1 2.122 2.122L41.62 70l2.122 2.121a1.5 1.5 0 0 1-2.122 2.122L39.5 72.12l-2.121 2.122a1.5 1.5 0 0 1-2.122-2.122L37.38 70l-2.122-2.121a1.5 1.5 0 0 1 2.122-2.122l2.12 2.123v-.001zM5 68.5h27a1.5 1.5 0 0 1 0 3H5a1.5 1.5 0 0 1 0-3zm43 0h27a1.5 1.5 0 0 1 0 3H48a1.5 1.5 0 0 1 0-3zM6.5 7.5v19h67v-19h-67zm-1-3h69a2 2 0 0 1 2 2v21a2 2 0 0 1-2 2h-69a2 2 0 0 1-2-2v-21a2 2 0 0 1 2-2z"/>
        <path fill="#EF4829" d="M10 28.667h3v5.666h-3v-5.666zM20.4 16v3h-7.8v-3h7.8zm8.933 0v3h-5.666v-3h5.666zM64.4 16v3H50.6v-3h13.8zM67 28.667h3v5.666h-3v-5.666zM20.4 44v3h-7.8v-3h7.8zm8.933 0v3h-5.666v-3h5.666zM64.4 44v3H50.6v-3h13.8z"/>
        <path fill="#EF4829" d="M6.5 36.5v19h67v-19h-67zm35 22V62a1.5 1.5 0 0 1-3 0v-3.5h-33a2 2 0 0 1-2-2v-21a2 2 0 0 1 2-2h69a2 2 0 0 1 2 2v21a2 2 0 0 1-2 2h-33z"/>
    </g>
</svg>
