<svg height="80" width="80" xmlns="http://www.w3.org/2000/svg"><g fill="none" fill-rule="evenodd"><path d="M0 0h80v80H0z"/><g fill="#5a81ea" fill-rule="nonzero"><path d="M78.5 13v3h-77v-3zm-70-2.5a1.5 1.5 0 1 1 0-3 1.5 1.5 0 0 1 0 3zm5 0a1.5 1.5 0 1 1 0-3 1.5 1.5 0 0 1 0 3zm5 0a1.5 1.5 0 1 1 0-3 1.5 1.5 0 0 1 0 3zm-8.406 12v14h59.812v-14zm-1.031-3h61.874c1.14 0 2.063.895 2.063 2v16c0 1.105-.923 2-2.063 2H9.063c-1.14 0-2.063-.895-2.063-2v-16c0-1.105.923-2 2.063-2zm.937 28v7h13v-7zm-1-3h15a2 2 0 0 1 2 2v9a2 2 0 0 1-2 2H9a2 2 0 0 1-2-2v-9a2 2 0 0 1 2-2zm25 3v7h13v-7zm-1-3h15a2 2 0 0 1 2 2v9a2 2 0 0 1-2 2H33a2 2 0 0 1-2-2v-9a2 2 0 0 1 2-2z"/><rect height="3" rx="1.5" width="19" x="55" y="44.5"/><rect height="7" rx="1.5" width="3" x="55" y="44.5"/><rect height="3" rx="1.5" width="49" y="63.5"/><rect height="46" rx="1.5" width="3" x="77" y="1.5"/><rect height="65" rx="1.5" width="3" y="1.5"/><rect height="3" rx="1.5" width="80" y="1.5"/><path d="M66.5 78.5C59.044 78.5 53 72.456 53 65s6.044-13.5 13.5-13.5S80 57.544 80 65s-6.044 13.5-13.5 13.5zm0-3C72.299 75.5 77 70.799 77 65s-4.701-10.5-10.5-10.5S56 59.201 56 65s4.701 10.5 10.5 10.5z"/><path d="m69.44 59.818 4.213 4.213-.539 1.677a.984.984 0 0 1-1.632.395l-4.164-4.164a1.5 1.5 0 1 1 2.121-2.121z"/><path d="m67.318 68.06 3.851-3.85a1.251 1.251 0 0 1 2.077.504l.402 1.26-4.209 4.208a1.5 1.5 0 1 1-2.121-2.121z"/><rect height="3" rx="1.5" width="15" x="59" y="63.5"/></g></g></svg>