<svg xmlns="http://www.w3.org/2000/svg" width="280" height="280" viewBox="0 0 280 280">
    <g fill="none" fill-rule="evenodd">
        <path fill="#FFF" d="M-409-147h800v768h-800z"/>
        <g fill="#EF4829">
            <path d="M140 177c20.435 0 37-16.565 37-37s-16.565-37-37-37-37 16.565-37 37 16.565 37 37 37zm0 3c-22.091 0-40-17.909-40-40s17.909-40 40-40 40 17.909 40 40-17.909 40-40 40z"/>
            <path d="M142.121 140l13.435 13.435a1.5 1.5 0 0 1-2.121 2.121L140 142.121l-13.435 13.435a1.5 1.5 0 0 1-2.121-2.121L137.879 140l-13.435-13.435a1.5 1.5 0 0 1 2.121-2.121L140 137.879l13.435-13.435a1.5 1.5 0 0 1 2.121 2.121L142.121 140z"/>
        </g>
    </g>
</svg>
