<svg height="80" width="80" xmlns="http://www.w3.org/2000/svg"><g fill="none"><path d="M0 0h80v80H0z"/><circle cx="40" cy="42" fill="#eef5fe" r="38"/><path d="M19.311 61.598V33.863l21.164-7.288 21.058 7.287v27.733l-20.992-6.476z" fill="#eef5fe" stroke="#eef5fe" stroke-width=".842"/><path d="M40.001 27.79h.842v27.789h-.842z" fill="#7995b9" fill-opacity=".2"/><path d="M19.311 34.402v27.735l21.164 7.288 21.058-7.287V34.405l-20.992 6.476z" fill="#fff" stroke="#7995b9" stroke-width=".842"/><path d="M40.001 40.421h.842v29.152h-.842z" fill="#7995b9"/><g fill="#fff" stroke="#7995b9" stroke-width=".842"><path d="m19.156 33.956-6.178 8.991 20.266 7.158 5.987-9.62zm42.482.082 6.304 8.91-20.266 7.157-5.987-9.62z" stroke-linecap="square"/><path d="m19.505 33.777-7.082-10.833 20.95-7.235 7.05 10.881z"/><path d="m61.206 33.777 7.083-10.833-20.95-7.235-7.05 10.881z"/></g><path d="m47.734 5.65-.005-.422.842-.01.005.421c.004.344 0 .684-.01 1.019l-.013.42-.842-.026.013-.42c.01-.324.014-.651.01-.983zm-.238 3.447.066-.416.832.13-.066.417c-.053.34-.116.675-.187 1.006l-.088.411-.824-.177.089-.411c.068-.315.127-.635.178-.96zm-.608 2.536.154-.392.784.308-.154.392a8.338 8.338 0 0 1-.458.95l-.203.369-.737-.407.203-.369c.178-.323.317-.611.411-.85zm-1.77 2.927.252-.337.675.503-.251.337c-.201.27-.41.54-.624.803l-.266.327-.654-.53.266-.327c.207-.255.408-.515.603-.776zm-1.688 2.017.289-.305.612.578-.29.306c-.24.254-.48.496-.722.725l-.306.29-.579-.612.306-.29c.23-.218.46-.449.69-.692zm-2.622 2.2.362-.215.43.724-.362.215a6.35 6.35 0 0 1-.961.473l-.393.15-.302-.786.393-.15c.266-.103.545-.24.833-.411zm-2.287.576.409.099-.198.818-.409-.098a2.515 2.515 0 0 1-1.063-.553l-.319-.276.55-.637.32.275c.217.188.453.31.71.372zm-1.798-2.394.11.406-.813.22-.11-.406a5.299 5.299 0 0 1-.184-1.071l-.024-.42.84-.05.025.42c.016.273.067.573.156.9zm.192-2.225-.267.326-.651-.534.266-.326a2.46 2.46 0 0 1 .975-.707l.39-.161.323.777-.389.162a1.624 1.624 0 0 0-.647.463zm3.002-.577-.414-.075.15-.828.414.075c.336.06.677.144 1.02.248l.402.123-.246.806-.402-.123a8.135 8.135 0 0 0-.924-.226zm2.416.831-.374-.192.384-.75.374.193c.317.162.62.34.905.529l.35.233-.467.7-.35-.232a8.382 8.382 0 0 0-.822-.481zm2.476 2.147-.202-.369.739-.404.202.37c.195.358.32.725.367 1.097l.053.417-.836.106-.052-.418a2.261 2.261 0 0 0-.271-.799zm.467 2.584-.07-.415.83-.14.07.414c.046.266.098.555.176.979l.076.414-.828.153-.076-.414c-.08-.428-.132-.72-.178-.99zm.62 3.47-.068-.416.831-.135.068.415c.056.345.107.675.153.997l.059.417-.834.119-.059-.417a51.137 51.137 0 0 0-.15-.98zm.345 2.632-.038-.42.839-.074.037.419c.032.35.055.688.07 1.016l.02.42-.841.04-.02-.421a22.902 22.902 0 0 0-.067-.98zm-.015 3.444.058-.417.834.116-.058.417c-.05.366-.119.71-.206 1.033l-.11.406-.813-.22.11-.406c.078-.287.14-.597.185-.929zm-.824 2.34.247-.34.682.493-.248.341a3.633 3.633 0 0 1-.794.805l-.34.249-.497-.68.34-.248c.23-.17.433-.376.61-.62zm-2.865 2.022.32-.275.549.638-.32.275a5.67 5.67 0 0 0-.653.663l-.27.323-.646-.54.27-.323c.227-.273.478-.527.75-.761zm-1.745 2.382.168-.386.772.335-.168.387a6.643 6.643 0 0 0-.208.542l-.133.4-.799-.268.134-.4a7.4 7.4 0 0 1 .234-.61z" fill="#7995b9"/><g transform="translate(43.378)"><path d="M1.055 7.51c-1.102 0 0-1.536 0-2.548 0-1.013-1.31-2.447-.144-2.447s3.316 1.027 3.316 2.19c0 1.162-2.07 2.805-3.172 2.805zm7.282 0c1.101 0 0-1.536 0-2.548 0-1.013 1.31-2.447.144-2.447S5.068 3.58 5.068 4.743 7.235 7.51 8.337 7.51z" fill="#fff" stroke="#7995b9" stroke-width=".842"/><rect fill="#fff" height="5.895" rx=".842" stroke="#7995b9" stroke-width=".842" width="1.689" x="3.8" y="2.105"/><path d="m5.669 2.673-.748-.388L5.996.214 6.743.6zM3.332.248l-.751.38 1.033 2.043.752-.38z" fill="#7995b9"/></g></g></svg>