<svg width="80" height="80" fill="none" xmlns="http://www.w3.org/2000/svg"><path fill-rule="evenodd" clip-rule="evenodd" d="M13.988 11.524c.604.604.58 1.589-.028 2.19C7.192 20.42 3 29.72 3 40c0 20.435 16.565 37 37 37s37-16.565 37-37S60.435 3 40 3a.242.242 0 0 1-.243-.242V.243C39.757.11 39.866 0 40 0c22.091 0 40 17.909 40 40S62.091 80 40 80 0 62.091 0 40c0-11.157 4.568-21.247 11.935-28.502.571-.562 1.486-.54 2.053.026Z" fill="#FFAF00"/><rect width="3" height="31.558" rx="1.5" transform="scale(-1 1) rotate(45 -31.45 -15.548)" fill="#FFAF00"/><path d="M39.1 1.012a1 1 0 0 1 1-1h.92l1.089.526v16.214a1.504 1.504 0 1 1-3.008 0V1.012Z" fill="#FFAF00"/><rect x="9.948" y="38.479" width="6.049" height="3.042" rx="1.521" fill="#FFAF00"/><rect x="64.024" y="38.479" width="6.037" height="3.042" rx="1.521" fill="#FFAF00"/><rect x="41.521" y="63.995" width="6.047" height="3.042" rx="1.521" transform="rotate(90 41.52 63.995)" fill="#FFAF00"/></svg>