<svg xmlns="http://www.w3.org/2000/svg" width="28" height="28" viewBox="0 0 28 28">
    <g fill="none" fill-rule="nonzero">
        <path fill="#000" fill-opacity="0" d="M0 0h28v28H0z"/>
        <path fill="#1F5AF6" d="M27.411 14.022a13.411 13.411 0 1 0-13.3 13.39.967.967 0 1 0-.016-1.934 11.478 11.478 0 1 1 11.383-11.46.967.967 0 0 0 1.933.004z"/>
        <path fill="#1F5AF6" d="M10.088 14L14 10.088 17.912 14 14 17.912 10.088 14zm4.595-5.963a.967.967 0 0 0-1.366 0l-5.28 5.28a.967.967 0 0 0 0 1.366l5.28 5.28a.967.967 0 0 0 1.366 0l5.28-5.28a.967.967 0 0 0 0-1.366l-5.28-5.28zM26.444 21.66h-2.852v-2.85c0-1.29-1.933-1.29-1.933 0v3.817c0 .533.433.966.967.966h3.818c1.29 0 1.29-1.933 0-1.933zm-7.637 1.933h2.852v2.852c0 1.29 1.933 1.29 1.933 0v-3.818a.967.967 0 0 0-.966-.967h-3.82c-1.288 0-1.288 1.933 0 1.933z"/>
    </g>
</svg>
