<svg height="18" width="18" xmlns="http://www.w3.org/2000/svg"><g fill="none"><path d="M0 0h18v18H0z"/><path d="M17.346 15H.676A.666.666 0 0 1 0 14.32V7.49c0-.136.045-.272.113-.385l2.433-3.788A.669.669 0 0 1 3.109 3H14.89a.64.64 0 0 1 .563.318l2.433 3.788A.707.707 0 0 1 18 7.49v6.828a.635.635 0 0 1-.653.681zM1.352 13.639H16.67V8.172H13.2c-.45 1.293-1.711 3.085-4.19 3.085-2.477 0-3.739-1.792-4.19-3.085H1.353v5.467zm.563-6.828h3.424c.315 0 .608.227.653.544.023.091.563 2.541 2.996 2.541s2.996-2.427 2.996-2.54a.674.674 0 0 1 .653-.545h3.424l-1.576-2.427H3.447L1.915 6.81z" fill="#000"/></g></svg>