<svg xmlns="http://www.w3.org/2000/svg" width="18" height="18" viewBox="0 0 18 18">
    <g fill="none" fill-rule="nonzero">
        <path fill="#D8D8D8" fill-opacity="0" d="M0 0h18v18H0z"/>
        <path fill="#000" d="M17.346 15H.676A.666.666 0 0 1 0 14.32V7.49c0-.136.045-.272.113-.385l2.433-3.788A.669.669 0 0 1 3.109 3H14.89c.225 0 .45.113.563.318l2.433 3.788A.707.707 0 0 1 18 7.49v6.828a.635.635 0 0 1-.653.681zM1.352 13.639H16.67V8.172H13.2c-.45 1.293-1.711 3.085-4.19 3.085-2.477 0-3.739-1.792-4.19-3.085H1.353v5.467zm.563-6.828h3.424c.315 0 .608.227.653.544.023.091.563 2.541 2.996 2.541s2.996-2.427 2.996-2.54a.674.674 0 0 1 .653-.545h3.424l-1.576-2.427H3.447L1.915 6.81z"/>
    </g>
</svg>
