<svg height="14" width="14" xmlns="http://www.w3.org/2000/svg"><g fill="none" fill-rule="evenodd"><path d="M0 0h14v14H0z"/><path d="M12.686 5.813V3.637c0-.461-.3-.79-.79-.844-.083-.013-.15-.013-.233-.026-.314-.04-.6-.066-.873-.132-1.023-.224-2.005-.66-3.097-1.398C7.53 1.105 7.353 1 7.107 1c-.26 0-.423.119-.6.224-1.46.976-2.77 1.464-4.134 1.543-.396.013-.873.185-.873.897v3.943c0 .343.04.712.136 1.107.205.87.669 1.662 1.446 2.414.955.936 2.156 1.661 3.684 2.215.013 0 .013 0 .027.013.096.027.205.053.3.053.137 0 .273-.026.396-.079s.245-.106.382-.158c.314-.132.655-.277.982-.435 1.214-.62 2.142-1.359 2.837-2.269.614-.778.942-1.608.983-2.479.027-.58.027-1.173.027-1.754-.014-.145-.014-.277-.014-.422z" fill="#5a81ea" fill-rule="nonzero"/><path d="M11.445 7.936c-.027.633-.273 1.227-.737 1.82-.586.765-1.378 1.398-2.414 1.926-.3.145-.614.277-.914.395l-.287.119c-1.296-.488-2.319-1.108-3.124-1.886-.614-.606-.968-1.2-1.132-1.846a3.512 3.512 0 0 1-.11-.87c-.013-.87 0-1.768 0-2.625V3.928c1.46-.132 2.866-.673 4.38-1.662 1.187.791 2.278 1.266 3.424 1.516.314.066.641.106.941.146v2.32c0 .554 0 1.121-.027 1.688z" fill="#eef5fe"/><path d="M8.858 5.316a.569.569 0 0 1 .895.153c.093.2.042.432-.116.574l-3.052 3.06a.578.578 0 0 1-.753.01L4.617 7.89a.503.503 0 0 1-.207-.502.527.527 0 0 1 .37-.4.58.58 0 0 1 .555.124l.853.9z" fill="#5a81ea"/></g></svg>