<svg xmlns="http://www.w3.org/2000/svg" width="80" height="80" viewBox="0 0 80 80">
    <g fill="none" fill-rule="evenodd">
        <path fill="none" d="M0 0h80v80H0z"/>
        <g transform="translate(9 10)">
            <path fill="#1F5AF6" fill-rule="nonzero" d="M58.212 1.555l-.002-.005-.02-.064a1.374 1.374 0 0 0-.074-.2.774.774 0 0 0-.029-.054l-.02-.036a1.385 1.385 0 0 0-.11-.164l-.01-.013a1.103 1.103 0 0 0-.22-.218 1.62 1.62 0 0 1-.057-.05L57.666.75a1.383 1.383 0 0 0-.25-.139c-.026-.007-.026-.007-.064-.02a1.372 1.372 0 0 0-.238-.065.669.669 0 0 0-.052-.005l-.048-.004-.082-.01h-.006A.543.543 0 0 0 56.882.5H29.198c-.759 0-1.374.616-1.374 1.375v14.686a1.374 1.374 0 1 0 2.747 0V3.25h17.994l-2.864.973-8.587 2.92c-.557.19-.932.712-.932 1.302v8.116a1.374 1.374 0 1 0 2.746 0V9.43l16.581-5.636V50.57l-16.581 5.636V42.268a1.374 1.374 0 1 0-2.746 0v7.912H30.57v-7.912a1.374 1.374 0 1 0-2.747 0v9.287c0 .76.615 1.375 1.374 1.375h6.984v5.195a1.375 1.375 0 0 0 1.814 1.302l19.327-6.57c.557-.19.932-.713.932-1.302V1.875a1.365 1.365 0 0 0-.043-.32z"/>
            <path fill="#BACAF4" fill-rule="nonzero" d="M44.47 24.957a1.372 1.372 0 0 0-.964-.396l-20.158.002-.143-.261a11.938 11.938 0 0 0-10.5-6.229C6.112 18.073.746 23.424.746 30c-.001 3.188 1.242 6.182 3.503 8.436a11.896 11.896 0 0 0 8.454 3.491c4.401 0 8.408-2.387 10.499-6.224l.142-.261h4.72c.317 0 .624-.11.869-.31l2.446-2.001.252.073 3.5 1.011c.123.036.252.054.38.054h7.995c.281 0 .557-.087.789-.25l4.116-2.892.029-.026.003-.003.061-.055.064-.051.004-.003.021-.016.015-.017a.97.97 0 0 0 .071-.089l.028-.037.045-.056a3.98 3.98 0 0 0 .028-.034.672.672 0 0 0 .03-.06l.004-.009.025-.05.03-.06.003-.005a.634.634 0 0 0 .03-.057l.007-.03.021-.078.012-.037.004-.014a.86.86 0 0 0 .026-.095l.003-.04.001-.02.004-.053.007-.063v-.012a.657.657 0 0 0 .007-.075l-.003-.026-.003-.023-.01-.073-.004-.056v-.006a.74.74 0 0 0-.009-.075l-.012-.039-.024-.075-.013-.045a.898.898 0 0 0-.031-.099c0 .003.003.006-.014-.023l-.036-.065-.016-.032a1.286 1.286 0 0 0-.078-.139 1.9 1.9 0 0 0-.023-.024l-.002-.003-.053-.06c-.03-.036-.03-.036-.05-.063l-.003-.003a.65.65 0 0 0-.024-.03l-.032-.032-4.084-4.033zm-22.967 8.141l-.001.001-.05.06-.022.025c-.054.061-.074.085-.091.11-.051.076-.094.155-.13.24a9.198 9.198 0 0 1-8.506 5.642 9.175 9.175 0 0 1-6.518-2.69A9.096 9.096 0 0 1 3.491 30c.001-5.06 4.136-9.177 9.215-9.177a9.207 9.207 0 0 1 8.463 5.565c.192.55.705.925 1.29.925l20.484-.002 2.542 2.511-2.414 1.697h-7.295l-.139-.02-4.19-1.211c-.434-.126-.9-.03-1.249.256l-2.624 2.146h-5.092c-.093 0-.187.01-.268.026l.025-.007a1.925 1.925 0 0 1-.052.014c-.083.018-.16.041-.231.07l-.01.006-.065.034a1.627 1.627 0 0 0-.16.084l-.005.004c-.021.019-.021.019-.06.049-.082.062-.118.09-.147.12.004-.005.009-.01-.006.008z"/>
            <ellipse cx="9.507" cy="30.004" fill="#BACAF4" rx="2.041" ry="2.036"/>
        </g>
    </g>
</svg>
