<svg xmlns="http://www.w3.org/2000/svg" width="48" height="48" viewBox="0 0 48 48">
    <g fill="#00AEF9" fill-rule="evenodd">
        <circle cx="24" cy="24" r="24" fill-opacity=".1"/>
        <path fill-rule="nonzero" d="M24 13.8a5.4 5.4 0 1 0 0 10.8 5.4 5.4 0 0 0 0-10.8zm0 9.6a4.2 4.2 0 1 1 0-8.4 4.2 4.2 0 0 1 0 8.4zM24 9a14.986 14.986 0 0 0-8.998 26.98 14.919 14.919 0 0 0 17.998 0c.4-.3.783-.62 1.15-.958A14.984 14.984 0 0 0 24 9zm0 28.8a13.732 13.732 0 0 1-8.87-3.245 8.986 8.986 0 0 1 17.743 0A13.732 13.732 0 0 1 24 37.8zm9.9-4.207a10.185 10.185 0 0 0-19.8 0c-5.272-5.43-5.187-14.094.19-19.42 5.379-5.326 14.043-5.326 19.421 0s5.463 13.99.19 19.42z"/>
    </g>
</svg>
