<svg height="48" width="48" xmlns="http://www.w3.org/2000/svg"><g fill="none" fill-rule="evenodd"><path d="M24 0c13.255 0 24 10.745 24 24S37.255 48 24 48 0 37.255 0 24 10.745 0 24 0z" fill="#ef4829" fill-opacity=".1"/><path d="M9 9h30v30H9z"/><g fill="#ef4829"><path d="M37.99 29.423a6.187 6.187 0 0 1-8.567 8.567A14.963 14.963 0 0 1 24 39c-8.284 0-15-6.716-15-15 0-8.284 6.716-15 15-15a15 15 0 0 1 15 15c0 1.912-.358 3.741-1.01 5.423zm-.893-1.075A13.83 13.83 0 0 0 37.8 24c0-7.622-6.178-13.8-13.8-13.8-7.622 0-13.8 6.178-13.8 13.8 0 7.622 6.178 13.8 13.8 13.8a13.802 13.802 0 0 0 4.348-.703 6.187 6.187 0 0 1 8.749-8.749zm-4.285 9.527a5.063 5.063 0 1 0 0-10.125 5.063 5.063 0 0 0 0 10.125z"/><path d="m32.814 32.018 1.59-1.59a.562.562 0 1 1 .796.795l-1.59 1.59 1.59 1.592a.562.562 0 0 1-.795.795l-1.591-1.59-1.591 1.59a.563.563 0 0 1-.796-.795l1.591-1.591-1.59-1.591a.563.563 0 0 1 .795-.796zM28.2 27.593a.6.6 0 0 1-.6.6H15.848l2.576 2.575a.6.6 0 1 1-.848.849l-3.6-3.6a.6.6 0 0 1 0-.849l3.6-3.6a.6.6 0 0 1 .848.849l-2.576 2.576H27.6a.6.6 0 0 1 .6.6zm6-7.2a.599.599 0 0 1-.176.424l-3.6 3.6a.6.6 0 0 1-.848-.849l2.576-2.575H20.4a.6.6 0 1 1 0-1.2h11.752l-2.576-2.576a.6.6 0 0 1 .848-.849l3.6 3.6a.598.598 0 0 1 .176.425z"/></g></g></svg>