<svg xmlns="http://www.w3.org/2000/svg" width="48" height="48"><g fill="none" fill-rule="evenodd"><circle cx="24" cy="24" r="24" fill="#EF4829" fill-opacity=".1"/><path fill="#EF4829" fill-rule="nonzero" d="M23.999 9C15.715 9 9 15.716 9 24c0 8.284 6.715 15 14.999 15a.6.6 0 0 0 .6-.6v-8.43a6.598 6.598 0 0 0 5.999-6.57v-1.8a1.2 1.2 0 0 0-1.2-1.2h-1.2v-3a.6.6 0 1 0-1.2 0v3h-6v-3a.6.6 0 1 0-1.199 0v3h-1.2a1.2 1.2 0 0 0-1.2 1.2v1.8a6.598 6.598 0 0 0 6 6.57v7.8c-7.128-.342-12.808-6.083-13.074-13.214-.267-7.132 4.97-13.28 12.052-14.153 7.082-.872 13.654 3.823 15.125 10.806 1.472 6.983-2.646 13.93-9.478 15.991a.6.6 0 0 0 .349 1.148 15 15 0 0 0 10.462-16.56A14.999 14.999 0 0 0 23.999 9zm-5.4 14.4v-1.8h10.8v1.8a5.4 5.4 0 1 1-10.8 0z"/><path stroke="#EF4829" stroke-linecap="square" stroke-width="1.3" d="M33.092 14 14 33.092"/></g></svg>