<svg height="48" width="48" xmlns="http://www.w3.org/2000/svg"><g fill="none" fill-rule="evenodd"><rect fill="#c4d0ef" fill-opacity=".25" height="48" rx="24" width="48"/><g stroke="#5a81ea"><circle cx="24" cy="24" r="14.4" stroke-width="1.2"/><path d="m33.509 30.248-3.406-2.022.076-6.182v-.068c0-.015-.008-.038-.008-.053 0-.008 0-.008-.008-.016-.007-.015-.007-.03-.015-.045 0-.008 0-.008-.007-.015-.008-.016-.016-.038-.023-.054-.008-.015-.023-.03-.03-.045 0-.008-.008-.008-.008-.015-.008-.016-.015-.023-.03-.038l-.008-.008-.038-.038a.16.16 0 0 0-.046-.03h-.007l-5.323-3.156v-3.969a.493.493 0 1 0-.988 0v3.962l-5.39 3.026h-.008c-.016.007-.03.022-.054.03h-.007a.092.092 0 0 0-.038.038l-.008.008-.03.03c0 .008-.008.008-.008.015a.16.16 0 0 0-.03.046c-.008.015-.016.038-.03.053 0 .008 0 .008-.008.015-.008.016-.008.03-.016.046 0 .008 0 .008-.007.015-.008.015-.008.038-.015.053 0 .023-.008.038-.008.061v.008l-.076 6.227-3.406 1.908a.497.497 0 0 0-.19.67c.09.16.258.25.433.25a.549.549 0 0 0 .243-.06l3.445-1.932 5.276 3.133h.008c.015.007.038.023.053.03h.008c.015.008.03.015.053.015.008 0 .008 0 .015.008.015.008.03.008.046.008h.015c.015 0 .038.007.053.007h.084c.015 0 .03-.007.045-.007h.016c.015-.008.03-.008.045-.016h.008l.053-.022 5.39-3.027 3.407 2.023a.499.499 0 0 0 .251.068.487.487 0 0 0 .426-.243.518.518 0 0 0-.175-.692zm-14.614-2.16.069-5.329 4.577 2.722-.068 5.33zm5.216-8.78 4.577 2.721-4.645 2.608-4.577-2.722zm.418 6.188 4.646-2.608-.068 5.33-4.646 2.608z" fill="#5a81ea" fill-rule="nonzero" stroke-width=".2"/></g></g></svg>