<?xml version="1.0" encoding="UTF-8"?>
<svg width="48px" height="48px" viewBox="0 0 48 48" version="1.1" xmlns="http://www.w3.org/2000/svg" xmlns:xlink="http://www.w3.org/1999/xlink">
    <!-- Generator: Sketch 52.1 (67048) - http://www.bohemiancoding.com/sketch -->
    <title>Icon/enable-sponsor-48</title>
    <desc>Created with Sketch.</desc>
    <g id="Icon/enable-sponsor-48" stroke="none" stroke-width="1" fill="none" fill-rule="evenodd">
        <rect id="ico-zone" fill-opacity="0" fill="#D8D8D8" x="0" y="0" width="48" height="48"></rect>
        <circle id="Oval" fill-opacity="0.1" fill="#81C926" cx="24" cy="24" r="24"></circle>
        <g id="Icon/80/Sponsored-Enable-80-mixLime" transform="translate(9.000000, 9.000000)" fill-rule="nonzero">
            <rect id="ico-zone" fill="#D8D8D8" opacity="0" x="0" y="0" width="30" height="30"></rect>
            <path d="M15,30 C6.71572875,30 0,23.2842712 0,15 C0,6.71572875 6.71572875,0 15,0 C23.2842712,0 30,6.71572875 30,15 C30,23.2842712 23.2842712,30 15,30 Z M15,28.875 C22.6629509,28.875 28.875,22.6629509 28.875,15 C28.875,7.3370491 22.6629509,1.125 15,1.125 C7.3370491,1.125 1.125,7.3370491 1.125,15 C1.125,22.6629509 7.3370491,28.875 15,28.875 Z M9.9375,14.4375 C7.86643219,14.4375 6.1875,12.7585678 6.1875,10.6875 C6.1875,8.61643219 7.86643219,6.9375 9.9375,6.9375 C12.0085678,6.9375 13.6875,8.61643219 13.6875,10.6875 C13.6875,12.7585678 12.0085678,14.4375 9.9375,14.4375 Z M9.9375,13.3125 C11.3872475,13.3125 12.5625,12.1372475 12.5625,10.6875 C12.5625,9.23775253 11.3872475,8.0625 9.9375,8.0625 C8.48775253,8.0625 7.3125,9.23775253 7.3125,10.6875 C7.3125,12.1372475 8.48775253,13.3125 9.9375,13.3125 Z M20.0625,23.0625 C17.9914322,23.0625 16.3125,21.3835678 16.3125,19.3125 C16.3125,17.2414322 17.9914322,15.5625 20.0625,15.5625 C22.1335678,15.5625 23.8125,17.2414322 23.8125,19.3125 C23.8125,21.3835678 22.1335678,23.0625 20.0625,23.0625 Z M20.0625,21.9375 C21.5122475,21.9375 22.6875,20.7622475 22.6875,19.3125 C22.6875,17.8627525 21.5122475,16.6875 20.0625,16.6875 C18.6127525,16.6875 17.4375,17.8627525 17.4375,19.3125 C17.4375,20.7622475 18.6127525,21.9375 20.0625,21.9375 Z M21.1078395,8.91024756 L21.1078395,8.91024756 C21.3275095,9.12991748 21.3275095,9.48607278 21.1078395,9.70574269 L9.70574269,21.1078395 C9.48607278,21.3275095 9.12991748,21.3275095 8.91024756,21.1078395 L8.91024756,21.1078395 C8.69057765,20.8881696 8.69057765,20.5320143 8.91024756,20.3123444 L20.3123444,8.91024756 C20.5320143,8.69057765 20.8881696,8.69057765 21.1078395,8.91024756 Z" id="Oval-2" fill="#81C926"></path>
        </g>
    </g>
</svg>