<svg height="48" width="48" xmlns="http://www.w3.org/2000/svg"><g fill="none" fill-rule="evenodd"><path d="M0 0h48v48H0z"/><circle cx="24" cy="24" fill="#81c926" fill-opacity=".1" r="24"/><path d="M24 39c-8.284 0-15-6.716-15-15 0-8.284 6.716-15 15-15 8.284 0 15 6.716 15 15 0 8.284-6.716 15-15 15zm0-1.125c7.663 0 13.875-6.212 13.875-13.875S31.663 10.125 24 10.125 10.125 16.337 10.125 24 16.337 37.875 24 37.875zm-5.063-14.438a3.75 3.75 0 1 1 0-7.5 3.75 3.75 0 0 1 0 7.5zm0-1.125a2.625 2.625 0 1 0 0-5.25 2.625 2.625 0 0 0 0 5.25zm10.125 9.75a3.75 3.75 0 1 1 0-7.5 3.75 3.75 0 0 1 0 7.5zm0-1.124a2.625 2.625 0 1 0 0-5.25 2.625 2.625 0 0 0 0 5.25zm1.046-13.028c.22.22.22.576 0 .796L18.706 30.108a.562.562 0 1 1-.796-.796L29.312 17.91c.22-.22.576-.22.796 0z" fill="#81c926" fill-rule="nonzero"/></g></svg>