<svg xmlns="http://www.w3.org/2000/svg" width="248" height="248" viewBox="0 0 248 248">
    <g fill="none" fill-rule="evenodd">
        <path fill="#FFF" d="M-1041-623H879V817h-1920z"/>
        <g fill="#AB7DF6" transform="translate(100 100)">
            <circle cx="24" cy="24" r="24" fill-opacity=".1"/>
            <path fill-rule="nonzero" d="M24 9C15.716 9 9 15.716 9 24c0 8.284 6.716 15 15 15 8.284 0 15-6.716 15-15A15 15 0 0 0 24 9zm0 28.8c-7.622 0-13.8-6.178-13.8-13.8 0-7.622 6.178-13.8 13.8-13.8 7.622 0 13.8 6.178 13.8 13.8-.009 7.618-6.182 13.791-13.8 13.8zm4.2-10.2a.6.6 0 0 1-.6.6H15.848l2.576 2.576a.6.6 0 1 1-.848.848l-3.6-3.6a.6.6 0 0 1 0-.848l3.6-3.6a.6.6 0 0 1 .848.848L15.848 27H27.6a.6.6 0 0 1 .6.6zm6-7.2c0 .16-.063.312-.176.424l-3.6 3.6a.6.6 0 0 1-.848-.848L32.152 21H20.4a.6.6 0 0 1 0-1.2h11.752l-2.576-2.576a.6.6 0 0 1 .848-.848l3.6 3.6a.598.598 0 0 1 .176.424z"/>
        </g>
    </g>
</svg>
