<svg height="248" width="248" xmlns="http://www.w3.org/2000/svg"><g fill="none" fill-rule="evenodd"><path d="M-1041-623H879V817h-1920z" fill="#fff"/><g fill="#ab7df6" transform="translate(100 100)"><circle cx="24" cy="24" fill-opacity=".1" r="24"/><path d="M24 9C15.716 9 9 15.716 9 24s6.716 15 15 15 15-6.716 15-15A15 15 0 0 0 24 9zm0 28.8c-7.622 0-13.8-6.178-13.8-13.8S16.378 10.2 24 10.2 37.8 16.378 37.8 24c-.009 7.618-6.182 13.791-13.8 13.8zm4.2-10.2a.6.6 0 0 1-.6.6H15.848l2.576 2.576a.6.6 0 1 1-.848.848l-3.6-3.6a.6.6 0 0 1 0-.848l3.6-3.6a.6.6 0 0 1 .848.848L15.848 27H27.6a.6.6 0 0 1 .6.6zm6-7.2c0 .16-.063.312-.176.424l-3.6 3.6a.6.6 0 0 1-.848-.848L32.152 21H20.4a.6.6 0 0 1 0-1.2h11.752l-2.576-2.576a.6.6 0 0 1 .848-.848l3.6 3.6a.598.598 0 0 1 .176.424z" fill-rule="nonzero"/></g></g></svg>