<svg xmlns="http://www.w3.org/2000/svg" width="48" height="48" viewBox="0 0 48 48">
    <g fill="none" fill-rule="evenodd">
        <circle cx="24" cy="24" r="24" fill="#C4D0EF" fill-opacity=".25"/>
        <path fill="#5A81EA" fill-rule="nonzero" d="M23.681 24.65a.705.705 0 0 0 .671 0l12.12-6.542a.722.722 0 0 0 .377-.636.721.721 0 0 0-.377-.635l-12.12-6.543a.705.705 0 0 0-.67 0l-12.12 6.543a.722.722 0 0 0-.377.635c0 .266.145.51.377.636l12.12 6.543zm.288-12.878h.095l10.397 5.612v.176l-10.492 5.613-10.396-5.613v-.176l10.396-5.612z"/>
        <path fill="#5A81EA" fill-rule="nonzero" d="M32.939 21.476a.709.709 0 0 0-.964.296.724.724 0 0 0 .293.975l2.193 1.184v.176l-10.492 5.612-10.396-5.612v-.176l2.219-1.198a.724.724 0 0 0 .292-.975.709.709 0 0 0-.964-.295l-3.558 1.92a.722.722 0 0 0-.377.636c0 .266.145.51.377.636l12.12 6.542a.705.705 0 0 0 .67 0l12.12-6.542a.722.722 0 0 0 .377-.636.721.721 0 0 0-.377-.635l-3.533-1.908z"/>
        <path fill="#5A81EA" fill-rule="nonzero" d="M33.05 28.08a.709.709 0 0 0-.963.295.724.724 0 0 0 .293.975l2.08 1.124v.176l-10.49 5.612-10.397-5.612v-.176l2.059-1.111a.724.724 0 0 0 .292-.976.709.709 0 0 0-.964-.295l-3.398 1.835a.722.722 0 0 0-.377.635c0 .266.145.51.377.635l12.12 6.543a.705.705 0 0 0 .67 0l12.12-6.543a.722.722 0 0 0 .377-.635.722.722 0 0 0-.377-.636L33.05 28.08z"/>
    </g>
</svg>
