<svg height="48" width="48" xmlns="http://www.w3.org/2000/svg"><g fill="#ffaf00" fill-rule="evenodd"><circle cx="24" cy="24" fill-opacity=".1" r="24"/><path d="M24 9C15.716 9 9 15.716 9 24s6.716 15 15 15 15-6.716 15-15A15 15 0 0 0 24 9zm0 28.8c-7.622 0-13.8-6.178-13.8-13.8S16.378 10.2 24 10.2 37.8 16.378 37.8 24c-.009 7.618-6.182 13.791-13.8 13.8zm3.113-20a.599.599 0 0 1-.007.842.603.603 0 0 1-.844.007l-1.613-1.976v8.602a.6.6 0 0 1-1.204 0v-8.602l-1.613 1.976a.603.603 0 0 1-.843-.007.599.599 0 0 1-.008-.841l2.64-3a.603.603 0 0 1 .852 0l2.64 3zm7.226 5.822a.599.599 0 0 1-.6.59.603.603 0 0 1-.602-.592l.257-2.537-4.757 4.756a.6.6 0 0 1-.851-.851l4.756-4.757-2.537.257a.603.603 0 0 1-.592-.602.6.6 0 0 1 .59-.6l3.988-.254c.332 0 .601.27.602.602zM17.95 19.24a.6.6 0 0 1 .59.6.603.603 0 0 1-.592.602l-2.538-.257 4.757 4.756a.6.6 0 0 1-.852.852l-4.756-4.757.257 2.538a.603.603 0 0 1-.602.591.599.599 0 0 1-.6-.59l-.254-3.988c0-.331.27-.6.601-.601zM24 33.188a2.812 2.812 0 1 1 0-5.625 2.812 2.812 0 0 1 0 5.625zm0-1.126a1.688 1.688 0 1 0 0-3.375 1.688 1.688 0 0 0 0 3.375z" fill-rule="nonzero"/></g></svg>