<svg fill="none" height="48" width="48" xmlns="http://www.w3.org/2000/svg"><g fill="#81c926"><circle fill-opacity=".1" r="24" transform="matrix(1 0 0 -1 24 24)"/><path clip-rule="evenodd" d="M24 39c-8.284 0-15-6.716-15-15S15.716 9 24 9s15 6.716 15 15a15 15 0 0 1-15 15zm0-28.8c-7.622 0-13.8 6.178-13.8 13.8S16.378 37.8 24 37.8 37.8 31.622 37.8 24c-.009-7.618-6.182-13.792-13.8-13.8zm3.106 19.158a.599.599 0 0 1 .007.841l-2.64 3a.603.603 0 0 1-.851 0l-2.64-3a.599.599 0 0 1 .007-.84.603.603 0 0 1 .844-.008l1.612 1.976v-8.602a.601.601 0 0 1 1.204 0v8.602l1.613-1.976a.603.603 0 0 1 .844.007zm7.233-4.98a.6.6 0 0 0-1.202.002l.256 2.537-4.756-4.756a.6.6 0 0 0-.851.851l4.756 4.756-2.537-.256c-.328.006-.591.274-.592.602s.262.594.59.6l3.988.254c.332 0 .601-.27.602-.602zM18.54 28.16a.599.599 0 0 1-.59.6l-3.988.254a.603.603 0 0 1-.601-.601l.254-3.989a.599.599 0 0 1 .6-.59.605.605 0 0 1 .602.592l-.257 2.538 4.756-4.757a.601.601 0 0 1 .852.852l-4.757 4.756 2.538-.257c.328.007.59.274.591.602zM24 14.812a2.813 2.813 0 1 0 0 5.626 2.813 2.813 0 0 0 0-5.625zm1.688 2.813a1.687 1.687 0 1 0-3.375 0 1.687 1.687 0 0 0 3.375 0z" fill-rule="evenodd"/></g></svg>