<svg fill="none" height="48" width="48" xmlns="http://www.w3.org/2000/svg"><g fill="#81c926"><circle fill-opacity=".1" r="24" transform="matrix(1 0 0 -1 24 24)"/><path clip-rule="evenodd" d="M24 39c-8.284 0-15-6.716-15-15S15.716 9 24 9s15 6.716 15 15a15 15 0 0 1-15 15zm0-28.8c-7.622 0-13.8 6.178-13.8 13.8S16.378 37.8 24 37.8 37.8 31.622 37.8 24c-.009-7.618-6.182-13.792-13.8-13.8zm6.417 15.783a.6.6 0 0 1 .007.841l-6 6a.6.6 0 0 1-.848 0l-6-6a.6.6 0 0 1 .848-.848l4.976 4.976V15.6a.6.6 0 1 1 1.2 0v15.352l4.976-4.976a.6.6 0 0 1 .84.007z" fill-rule="evenodd"/></g></svg>