<svg xmlns="http://www.w3.org/2000/svg" width="48" height="48"><g fill="none" fill-rule="evenodd"><circle cx="24" cy="24" r="24" fill="#C4D0EF" fill-opacity=".25"/><rect width="1" height="13.65" x="23.589" y="17.175" fill="#5A81EA" stroke="#5A81EA" stroke-width=".3" rx=".5" transform="rotate(25 24.076 24)"/><path fill="#5A81EA" stroke="#5A81EA" stroke-width=".3" d="M36.124 28.7a5.362 5.362 0 0 1-7.425 7.425A12.968 12.968 0 0 1 24 37c-7.18 0-13-5.82-13-13s5.82-13 13-13 13 5.82 13 13c0 1.657-.31 3.242-.876 4.7zm-.719-.879c.402-1.2.62-2.485.62-3.821 0-6.641-5.384-12.025-12.025-12.025S11.975 17.359 11.975 24 17.359 36.025 24 36.025c1.336 0 2.62-.218 3.821-.62a5.362 5.362 0 0 1 7.584-7.584zm-3.768 8.204a4.388 4.388 0 1 0 0-8.775 4.388 4.388 0 0 0 0 8.775z"/><path fill="#5A81EA" stroke="#5A81EA" stroke-width=".3" d="m16.405 23.996 2.87 2.87a.487.487 0 1 1-.69.689l-3.217-3.217a.488.488 0 0 1 .05-.734l3.172-3.172a.487.487 0 1 1 .69.69l-2.875 2.874zm14.941 1.629 1.288-1.287a.488.488 0 0 0-.05-.734l-3.173-3.172a.487.487 0 1 0-.689.69l2.874 2.874-1.866 1.866a5.361 5.361 0 0 1 1.616-.237z"/><path fill="#5A81EA" fill-rule="nonzero" d="m31.199 32.612 1.46-.975-1.46-.974v1.949zm-.217-3.265 2.827 1.885c.29.193.29.618 0 .811l-2.827 1.885a.487.487 0 0 1-.758-.405v-3.77c0-.39.434-.622.758-.406z"/></g></svg>