<svg height="48" width="48" xmlns="http://www.w3.org/2000/svg"><g fill="#ef4829" fill-rule="evenodd"><path d="M24 0c13.255 0 24 10.745 24 24S37.255 48 24 48 0 37.255 0 24 10.745 0 24 0z" fill-opacity=".1"/><path d="M37.99 29.423a6.187 6.187 0 0 1-8.567 8.567A14.963 14.963 0 0 1 24 39c-8.284 0-15-6.716-15-15 0-8.284 6.716-15 15-15 8.284 0 15 6.716 15 15 0 1.912-.358 3.741-1.01 5.423zm-.83-1.014A13.86 13.86 0 0 0 37.875 24c0-7.663-6.212-13.875-13.875-13.875S10.125 16.337 10.125 24 16.337 37.875 24 37.875a13.86 13.86 0 0 0 4.41-.715 6.187 6.187 0 0 1 8.75-8.75zm-4.347 9.466a5.063 5.063 0 1 0 0-10.125 5.063 5.063 0 0 0 0 10.125z"/><path d="m32.784 31.989 1.591-1.591a.562.562 0 0 1 .796.795l-1.591 1.591 1.59 1.591a.562.562 0 1 1-.795.796l-1.59-1.591-1.592 1.59a.562.562 0 1 1-.795-.795l1.59-1.59-1.59-1.592a.562.562 0 0 1 .795-.795z" fill-rule="nonzero"/><path d="M27.416 16.863a.562.562 0 0 1 .272.747l-6.18 13.255a.562.562 0 1 1-1.02-.475l6.18-13.255a.563.563 0 0 1 .748-.272zm-12.179 7.132 3.31 3.311a.563.563 0 0 1-.795.796l-3.712-3.713a.563.563 0 0 1 .058-.846l3.66-3.66a.563.563 0 0 1 .795.796zm17.239 1.88 1.486-1.486a.563.563 0 0 0-.058-.846l-3.66-3.66a.562.562 0 0 0-.795.796l3.316 3.316-2.153 2.154a6.186 6.186 0 0 1 1.864-.274z"/></g></svg>