<?xml version="1.0" encoding="UTF-8"?>
<svg width="48px" height="48px" viewBox="0 0 48 48" version="1.1" xmlns="http://www.w3.org/2000/svg" xmlns:xlink="http://www.w3.org/1999/xlink">
    <!-- Generator: Sketch 52.1 (67048) - http://www.bohemiancoding.com/sketch -->
    <title>Icon/t-script-canc-48</title>
    <desc>Created with Sketch.</desc>
    <g id="Icon/t-script-canc-48" stroke="none" stroke-width="1" fill="none" fill-rule="evenodd">
        <rect id="fon-fon-fon" fill="#D8D8D8" fill-rule="nonzero" opacity="0" x="0" y="0" width="48" height="48"></rect>
        <path d="M24,0 L24,0 C37.254834,-2.4348735e-15 48,10.745166 48,24 L48,24 C48,37.254834 37.254834,48 24,48 L24,48 C10.745166,48 1.623249e-15,37.254834 0,24 L0,24 C-1.623249e-15,10.745166 10.745166,2.4348735e-15 24,0 Z" id="krug" fill-opacity="0.1" fill="#EF4829"></path>
        <g id="Icon/80/SetScriptTransaction-Cancel-80-error500" transform="translate(9.000000, 9.000000)">
            <g>
                <rect id="ico-zone" fill="#D8D8D8" fill-rule="nonzero" opacity="0" x="0" y="0" width="30" height="30"></rect>
                <path d="M28.9897711,20.4228518 C29.6285007,21.3964536 30,22.5610926 30,23.8125 C30,27.2297619 27.2297619,30 23.8125,30 C22.5610926,30 21.3964536,29.6285007 20.4228518,28.9897711 C18.741021,29.6421536 16.9123003,30 15,30 C6.71572875,30 0,23.2842712 0,15 C0,6.71572875 6.71572875,0 15,0 C23.2842712,0 30,6.71572875 30,15 C30,16.9123003 29.6421536,18.741021 28.9897711,20.4228518 Z M28.1596827,19.4094137 C28.6236435,18.0241513 28.875,16.5414294 28.875,15 C28.875,7.3370491 22.6629509,1.125 15,1.125 C7.3370491,1.125 1.125,7.3370491 1.125,15 C1.125,22.6629509 7.3370491,28.875 15,28.875 C16.5414294,28.875 18.0241513,28.6236435 19.4094137,28.1596827 C18.3060817,27.0422512 17.625,25.5069132 17.625,23.8125 C17.625,20.3952381 20.3952381,17.625 23.8125,17.625 C25.5069132,17.625 27.0422512,18.3060817 28.1596827,19.4094137 Z M23.8125,28.875 C26.6084415,28.875 28.875,26.6084415 28.875,23.8125 C28.875,21.0165585 26.6084415,18.75 23.8125,18.75 C21.0165585,18.75 18.75,21.0165585 18.75,23.8125 C18.75,26.6084415 21.0165585,28.875 23.8125,28.875 Z" id="Combined-Shape" fill="#EF4829"></path>
                <path d="M23.784233,22.9887378 L25.3752232,21.3977476 C25.5948931,21.1780777 25.9510484,21.1780777 26.1707183,21.3977476 C26.3903883,21.6174175 26.3903883,21.9735728 26.1707183,22.1932427 L24.5797281,23.784233 L26.1707183,25.3752232 C26.3903883,25.5948931 26.3903883,25.9510484 26.1707183,26.1707183 C25.9510484,26.3903883 25.5948931,26.3903883 25.3752232,26.1707183 L23.784233,24.5797281 L22.1932427,26.1707183 C21.9735728,26.3903883 21.6174175,26.3903883 21.3977476,26.1707183 C21.1780777,25.9510484 21.1780777,25.5948931 21.3977476,25.3752232 L22.9887378,23.784233 L21.3977476,22.1932427 C21.1780777,21.9735728 21.1780777,21.6174175 21.3977476,21.3977476 C21.6174175,21.1780777 21.9735728,21.1780777 22.1932427,21.3977476 L23.784233,22.9887378 Z" id="Combined-Shape" fill="#EF4829" fill-rule="nonzero"></path>
                <path d="M15.0879169,7.125 L15.0879169,7.125 C15.3985771,7.125 15.6504169,7.37683983 15.6504169,7.6875 L15.6504169,22.3125 C15.6504169,22.6231602 15.3985771,22.875 15.0879169,22.875 L15.0879169,22.875 C14.7772568,22.875 14.5254169,22.6231602 14.5254169,22.3125 L14.5254169,7.6875 C14.5254169,7.37683983 14.7772568,7.125 15.0879169,7.125 Z" id="Rectangle" fill="#EF4829" transform="translate(15.087917, 15.000000) rotate(25.000000) translate(-15.087917, -15.000000) "></path>
                <path d="M6.23671818,14.9954295 L9.54755817,18.3062695 C9.76722808,18.5259394 9.76722808,18.8820947 9.54755817,19.1017647 C9.32788825,19.3214346 8.97173295,19.3214346 8.75206304,19.1017647 L5.03975244,15.3894541 C4.82008252,15.1697841 4.82008252,14.8136288 5.03975244,14.5939589 C5.0582915,14.5754199 5.07780269,14.5584454 5.09812191,14.5430356 L8.75778508,10.8833724 C8.977455,10.6637025 9.3336103,10.6637025 9.55328021,10.8833724 C9.77295013,11.1030423 9.77295013,11.4591976 9.55328021,11.6788675 L6.23671818,14.9954295 Z" id="Oval-2" fill="#EF4829"></path>
                <path d="M21.9341679,16.8751195 L20.4485024,15.3894541 C20.2288325,15.1697841 20.2288325,14.8136288 20.4485024,14.5939589 C20.4670415,14.5754199 20.4865527,14.5584454 20.5068719,14.5430356 L24.1665351,10.8833724 C24.386205,10.6637025 24.7423603,10.6637025 24.9620302,10.8833724 C25.1817001,11.1030423 25.1817001,11.4591976 24.9620302,11.6788675 L21.6454682,14.9954295 L23.7988242,17.1487856 C23.2217105,16.9708143 22.6085609,16.875 21.9730326,16.875 C21.9600684,16.875 21.9471134,16.8750399 21.9341679,16.8751195 Z" id="Oval-2" fill="#EF4829" transform="translate(22.705266, 13.933703) scale(-1, 1) translate(-22.705266, -13.933703) "></path>
            </g>
        </g>
    </g>
</svg>