<svg height="248" width="248" xmlns="http://www.w3.org/2000/svg"><g fill="none" fill-rule="evenodd"><path d="M-424-42h800v768h-800z" fill="#fff"/><g fill="#81c926" transform="translate(100 100)"><circle cx="24" cy="24" fill-opacity=".1" r="24"/><g stroke="#81c926" stroke-width=".3"><path d="M24 37c-7.18 0-13-5.82-13-13s5.82-13 13-13 13 5.82 13 13-5.82 13-13 13zm0-.975c6.641 0 12.025-5.384 12.025-12.025S30.641 11.975 24 11.975 11.975 17.359 11.975 24 17.359 36.025 24 36.025z" fill-rule="nonzero"/><rect height="13.65" rx=".487" transform="rotate(25 24.076 24)" width="1" x="23.589" y="17.175"/><path d="M19.28 20.432a.487.487 0 0 1 0 .69l-3.218 3.217a.488.488 0 0 1-.69-.689l3.218-3.218c.19-.19.499-.19.69 0zm-3.912 3.216a.487.487 0 0 1 .69 0l3.217 3.218a.488.488 0 0 1-.69.689l-3.217-3.218a.487.487 0 0 1 0-.689zm13.354-3.216a.487.487 0 0 0 0 .69l3.217 3.217a.488.488 0 0 0 .69-.689l-3.218-3.218a.487.487 0 0 0-.689 0zm3.912 3.216a.487.487 0 0 0-.69 0l-3.217 3.218a.488.488 0 0 0 .69.689l3.217-3.218a.487.487 0 0 0 0-.689z" fill-rule="nonzero"/></g></g></g></svg>