<svg xmlns="http://www.w3.org/2000/svg" width="48" height="48" viewBox="0 0 48 48">
    <g fill="#FFAF00" fill-rule="evenodd">
        <circle cx="24" cy="24" r="24" fill-opacity=".1"/>
        <path fill-rule="nonzero" d="M24 9C15.716 9 9 15.716 9 24c0 8.284 6.716 15 15 15 8.284 0 15-6.716 15-15A15 15 0 0 0 24 9zm0 28.8c-7.622 0-13.8-6.178-13.8-13.8 0-7.622 6.178-13.8 13.8-13.8 7.622 0 13.8 6.178 13.8 13.8-.009 7.618-6.182 13.791-13.8 13.8zm6.424-16.624a.6.6 0 0 1-.848.848L24.6 17.048V32.4a.6.6 0 0 1-1.2 0V17.048l-4.976 4.976a.6.6 0 0 1-.848-.848l6-6a.6.6 0 0 1 .848 0l6 6z"/>
    </g>
</svg>
