<svg fill="none" height="48" width="48" xmlns="http://www.w3.org/2000/svg"><g fill="#ef4829"><circle cx="24" cy="24" fill-opacity=".1" r="24"/><path clip-rule="evenodd" d="M36.124 28.7a5.362 5.362 0 0 1-7.425 7.425c-1.498.58-3.092.877-4.699.875-7.18 0-13-5.82-13-13s5.82-13 13-13 13 5.82 13 13c0 1.657-.31 3.242-.875 4.7zm-.72-.879A12.01 12.01 0 0 0 36.026 24c0-6.641-5.384-12.025-12.025-12.025S11.975 17.359 11.975 24 17.359 36.025 24 36.025c1.336 0 2.62-.218 3.821-.62a5.362 5.362 0 0 1 7.584-7.584zm-3.767 8.204a4.387 4.387 0 1 0 0-8.775 4.387 4.387 0 0 0 0 8.775z" fill-rule="evenodd"/><path d="m36.124 28.7-.14-.055-.027.072.042.065zM37 31.637h-.15zm-8.3 4.486.082-.125-.065-.042-.072.028zM24 37v-.15zm11.405-9.179-.106.107.172.17.076-.23zm.62-3.821h-.15zm-8.204 11.405.048.142.228-.076-.169-.172zm-1.546-3.768h.15zm9.724-2.855a5.18 5.18 0 0 1 .851 2.855h.3a5.487 5.487 0 0 0-.9-3.02zm.851 2.856a5.212 5.212 0 0 1-5.213 5.212v.3a5.512 5.512 0 0 0 5.513-5.513zm-5.213 5.212a5.187 5.187 0 0 1-2.855-.851l-.165.25c.868.57 1.906.901 3.02.901zm-2.992-.865A12.818 12.818 0 0 1 24 36.85v.3a13.118 13.118 0 0 0 4.754-.886zM24 36.85c-7.097 0-12.85-5.753-12.85-12.85h-.3c0 7.262 5.888 13.15 13.15 13.15zM11.15 24c0-7.097 5.753-12.85 12.85-12.85v-.3c-7.262 0-13.15 5.888-13.15 13.15zM24 11.15c7.097 0 12.85 5.753 12.85 12.85h.3c0-7.262-5.888-13.15-13.15-13.15zM36.85 24c0 1.639-.306 3.205-.865 4.645l.28.109A13.14 13.14 0 0 0 37.15 24zm-1.303 3.869c.417-1.247.63-2.554.628-3.87l-.3.001a11.858 11.858 0 0 1-.612 3.774zM36.175 24c0-6.724-5.45-12.175-12.175-12.175v.3c6.559 0 11.875 5.316 11.875 11.875zM24 11.825c-6.724 0-12.175 5.45-12.175 12.175h.3c0-6.559 5.317-11.875 11.875-11.875zM11.825 24c0 6.724 5.45 12.175 12.175 12.175v-.3c-6.558 0-11.875-5.316-11.875-11.875zM24 36.175c1.352 0 2.653-.22 3.869-.628l-.095-.284a11.857 11.857 0 0 1-3.774.612zm3.928-.876a5.195 5.195 0 0 1-1.503-3.661h-.3a5.495 5.495 0 0 0 1.59 3.872zm-1.503-3.662a5.212 5.212 0 0 1 5.213-5.212v-.3a5.512 5.512 0 0 0-5.513 5.512zm5.213-5.212c1.427 0 2.72.573 3.662 1.503l.21-.213a5.495 5.495 0 0 0-3.872-1.59zm0 9.75a4.537 4.537 0 0 0 4.537-4.537h-.3a4.237 4.237 0 0 1-4.237 4.237zm4.537-4.537a4.537 4.537 0 0 0-4.537-4.538v.3a4.237 4.237 0 0 1 4.237 4.237zM31.638 27.1a4.537 4.537 0 0 0-4.538 4.537h.3a4.237 4.237 0 0 1 4.238-4.237zM27.1 31.637a4.537 4.537 0 0 0 4.537 4.538v-.3a4.237 4.237 0 0 1-4.237-4.237z"/><path clip-rule="evenodd" d="m31.613 30.924 1.379-1.38a.488.488 0 1 1 .69.69l-1.38 1.38 1.38 1.378a.488.488 0 0 1-.69.69l-1.379-1.38-1.379 1.38a.488.488 0 0 1-.69-.69l1.38-1.379-1.38-1.379a.488.488 0 1 1 .69-.69z" fill-rule="evenodd" stroke="#ef4829" stroke-width=".3"/><rect height="13.65" rx=".487" stroke="#ef4829" stroke-width=".3" transform="rotate(25 26.519 17.608)" width=".975" x="26.519" y="17.608"/><path clip-rule="evenodd" d="m16.405 23.996 2.87 2.87a.488.488 0 0 1-.69.689l-3.217-3.218a.488.488 0 0 1 .05-.733l3.172-3.172a.488.488 0 0 1 .69.69zm14.941 1.629 1.288-1.287a.488.488 0 0 0-.05-.734l-3.173-3.172a.488.488 0 0 0-.689.69l2.875 2.874-1.867 1.866a5.362 5.362 0 0 1 1.616-.237z" fill-rule="evenodd"/><path d="m19.275 26.866.106-.106zm-.69.689.106-.106zm-3.217-3.218-.106.106zm.05-.733.09.12.01-.007.007-.007zm3.172-3.172-.104-.108-.002.002zm.69.69.106.106.001-.002zm13.354 3.216-.106-.107zm-.05-.734-.107.106.008.007.008.007zm-3.173-3.172.106-.106-.001-.002zm-.689.69-.108.104.002.002zm2.875 2.874.106.106.106-.106-.106-.106zm-1.867 1.866-.106-.106.15.25zm-13.43-1.76 2.869 2.87.212-.213-2.87-2.869zm2.869 2.87a.338.338 0 0 1 0 .477l.212.212a.638.638 0 0 0 0-.902zm0 .477a.338.338 0 0 1-.478 0l-.212.212c.25.249.653.249.902 0zm-.478 0-3.217-3.218-.212.212 3.217 3.218zm-3.217-3.218a.338.338 0 0 1-.098-.262l-.3-.02a.637.637 0 0 0 .186.494zm-.098-.262a.337.337 0 0 1 .133-.246l-.181-.239a.637.637 0 0 0-.251.465zm.149-.26 3.172-3.17-.213-.213-3.172 3.172zm3.17-3.169a.338.338 0 0 1 .473.004l.212-.212a.637.637 0 0 0-.894-.008zm.473.004c.13.13.132.341.004.474l.215.208a.638.638 0 0 0-.007-.894zm.005.472L16.3 23.89l.212.212 2.875-2.874zm12.28 4.715 1.287-1.287-.212-.212-1.288 1.287zm1.287-1.287a.638.638 0 0 0 .185-.495l-.299.02a.337.337 0 0 1-.098.262zm.185-.495a.638.638 0 0 0-.251-.465l-.181.24a.337.337 0 0 1 .133.246zm-.236-.451-3.172-3.172-.212.212 3.172 3.172zm-3.173-3.174a.638.638 0 0 0-.894.008l.212.212c.13-.13.34-.132.473-.004zm-.894.008a.638.638 0 0 0-.007.894l.215-.208a.338.338 0 0 1 .004-.474zm-.006.896 2.875 2.874.212-.212-2.875-2.874zm2.875 2.662-1.867 1.866.212.212 1.867-1.866zm-1.717 2.116a5.214 5.214 0 0 1 1.571-.231l.002-.3a5.512 5.512 0 0 0-1.661.244z"/></g></svg>