<?xml version="1.0" encoding="UTF-8"?>
<svg width="48px" height="48px" viewBox="0 0 48 48" version="1.1" xmlns="http://www.w3.org/2000/svg" xmlns:xlink="http://www.w3.org/1999/xlink">
    <!-- Generator: Sketch 52.1 (67048) - http://www.bohemiancoding.com/sketch -->
    <title>Icon/t-set-script-48</title>
    <desc>Created with Sketch.</desc>
    <g id="Icon/t-set-script-48" stroke="none" stroke-width="1" fill="none" fill-rule="evenodd">
        <rect id="ico-zone" fill-opacity="0" fill="#D8D8D8" x="0" y="0" width="48" height="48"></rect>
        <circle id="Oval" fill-opacity="0.1" fill="#81C926" cx="24" cy="24" r="24"></circle>
        <g id="Icon/80/SetScriptTransaction-80-mixLime" transform="translate(9.000000, 9.000000)" fill-rule="nonzero">
            <rect id="ico-zone" fill="#D8D8D8" opacity="0" x="0" y="0" width="30" height="30"></rect>
            <path d="M15,30 C6.71572875,30 0,23.2842712 0,15 C0,6.71572875 6.71572875,0 15,0 C23.2842712,0 30,6.71572875 30,15 C30,23.2842712 23.2842712,30 15,30 Z M15,28.875 C22.6629509,28.875 28.875,22.6629509 28.875,15 C28.875,7.3370491 22.6629509,1.125 15,1.125 C7.3370491,1.125 1.125,7.3370491 1.125,15 C1.125,22.6629509 7.3370491,28.875 15,28.875 Z" id="Combined-Shape" fill="#81C926"></path>
            <path d="M15.0879169,7.125 L15.0879169,7.125 C15.3985771,7.125 15.6504169,7.37683983 15.6504169,7.6875 L15.6504169,22.3125 C15.6504169,22.6231602 15.3985771,22.875 15.0879169,22.875 L15.0879169,22.875 C14.7772568,22.875 14.5254169,22.6231602 14.5254169,22.3125 L14.5254169,7.6875 C14.5254169,7.37683983 14.7772568,7.125 15.0879169,7.125 Z" id="Rectangle" fill="#81C926" transform="translate(15.087917, 15.000000) rotate(25.000000) translate(-15.087917, -15.000000) "></path>
            <path d="M9.55328021,10.8833724 L9.55328021,10.8833724 C9.77295013,11.1030423 9.77295013,11.4591976 9.55328021,11.6788675 L5.84096961,15.3911781 C5.6212997,15.610848 5.2651444,15.610848 5.04547448,15.3911781 L5.04547448,15.3911781 C4.82580457,15.1715082 4.82580457,14.8153529 5.04547448,14.595683 L8.75778508,10.8833724 C8.977455,10.6637025 9.3336103,10.6637025 9.55328021,10.8833724 Z M5.03975244,14.5939589 L5.03975244,14.5939589 C5.25942235,14.374289 5.61557765,14.374289 5.83524756,14.5939589 L9.54755817,18.3062695 C9.76722808,18.5259394 9.76722808,18.8820947 9.54755817,19.1017647 L9.54755817,19.1017647 C9.32788825,19.3214346 8.97173295,19.3214346 8.75206304,19.1017647 L5.03975244,15.3894541 C4.82008252,15.1697841 4.82008252,14.8136288 5.03975244,14.5939589 Z" id="Oval-2" fill="#81C926"></path>
            <path d="M24.9620302,10.8833724 L24.9620302,10.8833724 C25.1817001,11.1030423 25.1817001,11.4591976 24.9620302,11.6788675 L21.2497196,15.3911781 C21.0300497,15.610848 20.6738944,15.610848 20.4542245,15.3911781 L20.4542245,15.3911781 C20.2345546,15.1715082 20.2345546,14.8153529 20.4542245,14.595683 L24.1665351,10.8833724 C24.386205,10.6637025 24.7423603,10.6637025 24.9620302,10.8833724 Z M20.4485024,14.5939589 L20.4485024,14.5939589 C20.6681723,14.374289 21.0243277,14.374289 21.2439976,14.5939589 L24.9563082,18.3062695 C25.1759781,18.5259394 25.1759781,18.8820947 24.9563082,19.1017647 L24.9563082,19.1017647 C24.7366383,19.3214346 24.380483,19.3214346 24.160813,19.1017647 L20.4485024,15.3894541 C20.2288325,15.1697841 20.2288325,14.8136288 20.4485024,14.5939589 Z" id="Oval-2" fill="#81C926" transform="translate(22.705266, 14.992569) scale(-1, 1) translate(-22.705266, -14.992569) "></path>
        </g>
    </g>
</svg>