<svg height="48" width="48" xmlns="http://www.w3.org/2000/svg"><g fill="none" fill-rule="evenodd"><path d="M0 0h48v48H0z"/><circle cx="24" cy="24" fill="#81c926" fill-opacity=".1" r="24"/><g fill="#81c926" fill-rule="nonzero"><path d="M24 39c-8.284 0-15-6.716-15-15 0-8.284 6.716-15 15-15 8.284 0 15 6.716 15 15 0 8.284-6.716 15-15 15zm0-1.125c7.663 0 13.875-6.212 13.875-13.875S31.663 10.125 24 10.125 10.125 16.337 10.125 24 16.337 37.875 24 37.875z"/><path d="M27.416 16.863a.562.562 0 0 1 .272.747l-6.18 13.255a.562.562 0 1 1-1.02-.475l6.18-13.255a.563.563 0 0 1 .748-.272zm-8.863 3.02c.22.22.22.576 0 .796l-3.712 3.712a.563.563 0 0 1-.796-.795l3.713-3.713c.22-.22.576-.22.795 0zm-4.513 3.711c.22-.22.576-.22.795 0l3.713 3.712a.563.563 0 0 1-.796.796l-3.712-3.713a.563.563 0 0 1 0-.795zm15.409-3.711a.562.562 0 0 0 0 .796l3.712 3.712a.562.562 0 0 0 .795-.795l-3.712-3.713a.562.562 0 0 0-.795 0zm4.513 3.711a.563.563 0 0 0-.795 0l-3.713 3.712a.563.563 0 0 0 .796.796l3.712-3.713a.563.563 0 0 0 0-.795z"/></g></g></svg>