<svg fill="none" height="48" width="48" xmlns="http://www.w3.org/2000/svg"><g fill="#ef4829"><circle cx="24" cy="24" fill-opacity=".1" r="24"/><path clip-rule="evenodd" d="M33.375 20.25a.625.625 0 0 1 0-1.25h3.304C34.41 14.822 30.457 10.25 24 10.25c-7.581 0-13.75 6.169-13.75 13.75S16.419 37.75 24 37.75 37.75 31.581 37.75 24A.625.625 0 0 1 39 24c0 8.271-6.729 15-15 15S9 32.271 9 24 15.729 9 24 9c5.685 0 10.419 3.237 13.75 9.365v-3.687a.625.625 0 0 1 1.25 0v4.947c0 .345-.28.625-.625.625zM17.75 24A6.257 6.257 0 0 0 24 30.25 6.257 6.257 0 0 0 30.25 24 6.257 6.257 0 0 0 24 17.75 6.257 6.257 0 0 0 17.75 24zM29 24c0 2.757-2.243 5-5 5s-5-2.243-5-5 2.243-5 5-5 5 2.243 5 5z" fill-rule="evenodd"/><path d="M36.679 19v.05h.084l-.04-.074zm1.071-.635-.044.024.094-.024zm-5.05 1.26c0 .373.302.675.675.675v-.1a.575.575 0 0 1-.575-.575zm.675-.675a.675.675 0 0 0-.675.675h.1c0-.317.258-.575.575-.575zm3.304 0h-3.304v.1h3.304zM24 10.3c6.43 0 10.37 4.552 12.635 8.724l.088-.048C34.453 14.793 30.485 10.2 24 10.2zM10.3 24c0-7.554 6.146-13.7 13.7-13.7v-.1c-7.609 0-13.8 6.191-13.8 13.8zM24 37.7c-7.554 0-13.7-6.146-13.7-13.7h-.1c0 7.609 6.191 13.8 13.8 13.8zM37.7 24c0 7.554-6.146 13.7-13.7 13.7v.1c7.609 0 13.8-6.191 13.8-13.8zm.675-.675A.675.675 0 0 0 37.7 24h.1c0-.317.258-.575.575-.575zm.675.675a.675.675 0 0 0-.675-.675v.1c.317 0 .575.258.575.575zM24 39.05c8.299 0 15.05-6.751 15.05-15.05h-.1c0 8.244-6.706 14.95-14.95 14.95zM8.95 24c0 8.299 6.751 15.05 15.05 15.05v-.1c-8.244 0-14.95-6.706-14.95-14.95zM24 8.95C15.701 8.95 8.95 15.701 8.95 24h.1c0-8.244 6.706-14.95 14.95-14.95zm13.794 9.391C34.456 12.202 29.708 8.95 24 8.95v.1c5.662 0 10.381 3.223 13.706 9.339zm-.094-3.663v3.687h.1v-3.687zm.675-.675a.675.675 0 0 0-.675.675h.1c0-.318.258-.575.575-.575zm.675.675a.675.675 0 0 0-.675-.675v.1c.317 0 .575.257.575.575zm0 4.947v-4.947h-.1v4.947zm-.675.675a.675.675 0 0 0 .675-.675h-.1a.575.575 0 0 1-.575.575zm-5 0h5v-.1h-5zM24 30.2a6.207 6.207 0 0 1-6.2-6.2h-.1c0 3.474 2.826 6.3 6.3 6.3zm6.2-6.2c0 3.419-2.781 6.2-6.2 6.2v.1c3.474 0 6.3-2.826 6.3-6.3zM24 17.8c3.419 0 6.2 2.781 6.2 6.2h.1c0-3.474-2.826-6.3-6.3-6.3zM17.8 24c0-3.419 2.781-6.2 6.2-6.2v-.1a6.307 6.307 0 0 0-6.3 6.3zm6.2 5.05A5.055 5.055 0 0 0 29.05 24h-.1c0 2.73-2.22 4.95-4.95 4.95zM18.95 24A5.055 5.055 0 0 0 24 29.05v-.1c-2.73 0-4.95-2.22-4.95-4.95zM24 18.95A5.055 5.055 0 0 0 18.95 24h.1c0-2.73 2.22-4.95 4.95-4.95zM29.05 24A5.055 5.055 0 0 0 24 18.95v.1c2.73 0 4.95 2.22 4.95 4.95z"/></g></svg>