<svg height="48" width="48" xmlns="http://www.w3.org/2000/svg"><g fill="#ffaf00" fill-rule="evenodd"><circle cx="24" cy="24" fill-opacity=".1" r="24"/><path d="M24 9C15.716 9 9 15.716 9 24s6.716 15 15 15 15-6.716 15-15A15 15 0 0 0 24 9zm0 28.8c-7.622 0-13.8-6.178-13.8-13.8S16.378 10.2 24 10.2 37.8 16.378 37.8 24c-.009 7.618-6.182 13.791-13.8 13.8zm6.424-16.624a.6.6 0 0 1-.848.848L24.6 17.048V32.4a.6.6 0 0 1-1.2 0V17.048l-4.976 4.976a.6.6 0 0 1-.848-.848l6-6a.6.6 0 0 1 .848 0z" fill-rule="nonzero"/></g></svg>