<svg height="48" width="48" xmlns="http://www.w3.org/2000/svg"><g fill="#ef4829" fill-rule="evenodd"><path d="M24 0c13.255 0 24 10.745 24 24S37.255 48 24 48 0 37.255 0 24 10.745 0 24 0z" fill-opacity=".1"/><g fill-rule="nonzero"><path d="M37.99 29.423A14.963 14.963 0 0 0 39 24c0-8.284-6.716-15-15-15-8.284 0-15 6.716-15 15 0 8.284 6.716 15 15 15 1.912 0 3.741-.358 5.423-1.01a6.217 6.217 0 0 1-1.014-.83 13.86 13.86 0 0 1-4.409.715c-7.663 0-13.875-6.212-13.875-13.875S16.337 10.125 24 10.125 37.875 16.337 37.875 24a13.86 13.86 0 0 1-.715 4.41c.31.306.59.646.83 1.013zm-19.053-5.985a3.75 3.75 0 1 1 0-7.5 3.75 3.75 0 0 1 0 7.5zm0-1.125a2.625 2.625 0 1 0 0-5.25 2.625 2.625 0 0 0 0 5.25zm11.17-4.403c.22.22.22.576 0 .796l-11.4 11.402a.562.562 0 1 1-.796-.796L29.312 17.91c.22-.22.576-.22.796 0z"/><path d="M26.06 30.558a3.75 3.75 0 0 1 5.855-4.682 6.187 6.187 0 0 0-1.461.21 2.625 2.625 0 0 0-3.869 3.096 6.145 6.145 0 0 0-.526 1.376z"/><path d="m32.784 31.989 1.591-1.591a.562.562 0 0 1 .796.795l-1.591 1.591 1.59 1.591a.562.562 0 1 1-.795.796l-1.59-1.591-1.592 1.59a.562.562 0 1 1-.795-.795l1.59-1.59-1.59-1.592a.562.562 0 0 1 .795-.795zM32.813 39a6.187 6.187 0 1 1 0-12.375 6.187 6.187 0 0 1 0 12.375zm0-1.125a5.063 5.063 0 1 0 0-10.125 5.063 5.063 0 0 0 0 10.125z"/></g></g></svg>