<svg xmlns="http://www.w3.org/2000/svg" width="48" height="48"><g fill="#81C926" fill-rule="evenodd"><circle cx="24" cy="24" r="24" fill-opacity=".1"/><path fill-rule="nonzero" d="M24 9C15.716 9 9 15.716 9 24c0 8.284 6.716 15 15 15a.6.6 0 0 0 .6-.6v-8.43c3.398-.31 6-3.158 6-6.57v-1.8a1.2 1.2 0 0 0-1.2-1.2h-1.2v-3a.6.6 0 0 0-1.2 0v3h-6v-3a.6.6 0 0 0-1.2 0v3h-1.2a1.2 1.2 0 0 0-1.2 1.2v1.8a6.598 6.598 0 0 0 6 6.57v7.8c-7.128-.342-12.81-6.083-13.075-13.214-.267-7.132 4.97-13.28 12.053-14.153 7.083-.872 13.655 3.823 15.127 10.806 1.471 6.983-2.647 13.93-9.48 15.991a.6.6 0 0 0 .35 1.148A15 15 0 0 0 24 9zm-5.4 14.4v-1.8h10.8v1.8a5.4 5.4 0 0 1-10.8 0z"/></g></svg>