<svg width="48" height="48" fill="none" xmlns="http://www.w3.org/2000/svg"><circle cx="24" cy="24" r="24" fill="#C4D0EF" fill-opacity=".25"/><path fill-rule="evenodd" clip-rule="evenodd" d="M24 37c-7.18 0-13-5.82-13-13s5.82-13 13-13 13 5.82 13 13c0 1.657-.31 3.242-.876 4.7a5.363 5.363 0 0 1-7.425 7.425A12.968 12.968 0 0 1 24 37Zm3.822-1.595c-1.201.402-2.486.62-3.822.62-6.641 0-12.025-5.384-12.025-12.025S17.359 11.975 24 11.975 36.025 17.359 36.025 24c0 1.336-.218 2.62-.62 3.822a5.363 5.363 0 0 0-7.584 7.584Zm3.816.62a4.388 4.388 0 1 0 0-8.775 4.388 4.388 0 0 0 0 8.775Z" fill="#5A81EA"/><path d="m36.124 28.7-.14-.054-.027.072.042.064.125-.082ZM28.7 36.124l.082-.125-.064-.042-.072.028.054.14Zm-.878-.719.047.142.228-.076-.169-.171-.107.105Zm7.583-7.584-.105.107.17.17.077-.229-.142-.047ZM10.85 24c0 7.262 5.888 13.15 13.15 13.15v-.3c-7.097 0-12.85-5.753-12.85-12.85h-.3ZM24 10.85c-7.262 0-13.15 5.888-13.15 13.15h.3c0-7.097 5.753-12.85 12.85-12.85v-.3ZM37.15 24c0-7.262-5.887-13.15-13.15-13.15v.3c7.097 0 12.85 5.753 12.85 12.85h.3Zm-.886 4.754c.572-1.475.886-3.078.886-4.754h-.3c0 1.639-.307 3.205-.865 4.646l.28.108Zm-.265.028c.538.82.851 1.801.851 2.855h.3a5.488 5.488 0 0 0-.9-3.02l-.251.165Zm.851 2.855a5.212 5.212 0 0 1-5.213 5.213v.3a5.512 5.512 0 0 0 5.513-5.512h-.3Zm-5.213 5.213a5.187 5.187 0 0 1-2.855-.851l-.165.25c.868.57 1.906.901 3.02.901v-.3Zm-7.637.3c1.676 0 3.28-.314 4.754-.886l-.108-.28c-1.441.56-3.008.866-4.646.866v.3Zm3.774-1.887a11.863 11.863 0 0 1-3.774.612v.3c1.352 0 2.653-.22 3.87-.628l-.096-.284ZM24 35.875c-6.558 0-11.875-5.317-11.875-11.875h-.3c0 6.724 5.45 12.175 12.175 12.175v-.3ZM12.125 24c0-6.558 5.317-11.875 11.875-11.875v-.3c-6.724 0-12.175 5.45-12.175 12.175h.3ZM24 12.125c6.558 0 11.875 5.317 11.875 11.875h.3c0-6.724-5.45-12.175-12.175-12.175v.3ZM35.875 24c0 1.32-.215 2.588-.612 3.774l.284.095c.408-1.216.628-2.517.628-3.869h-.3Zm-4.238 2.425c1.428 0 2.721.574 3.663 1.503l.21-.213a5.495 5.495 0 0 0-3.872-1.59v.3Zm-5.212 5.212a5.212 5.212 0 0 1 5.212-5.212v-.3a5.512 5.512 0 0 0-5.512 5.512h.3Zm1.503 3.663a5.195 5.195 0 0 1-1.503-3.662h-.3c0 1.509.607 2.877 1.59 3.872l.213-.21Zm3.71.875a4.537 4.537 0 0 0 4.537-4.537h-.3a4.238 4.238 0 0 1-4.238 4.237v.3Zm4.537-4.537a4.537 4.537 0 0 0-4.537-4.538v.3a4.238 4.238 0 0 1 4.237 4.238h.3ZM31.638 27.1a4.537 4.537 0 0 0-4.538 4.537h.3a4.238 4.238 0 0 1 4.238-4.237v-.3ZM27.1 31.637a4.537 4.537 0 0 0 4.537 4.538v-.3a4.238 4.238 0 0 1-4.237-4.238h-.3Z" fill="#5A81EA"/><path fill-rule="evenodd" clip-rule="evenodd" d="m33.81 31.232-2.828-1.885a.487.487 0 0 0-.758.405v3.77c0 .39.434.622.758.406l2.827-1.885a.487.487 0 0 0 0-.811Zm-1.15.405-1.461.975v-1.949l1.46.974ZM28.986 17.628a.487.487 0 1 0-.689.69l2.382 2.381H21.92a.49.49 0 1 0 0 .98h8.763l-2.382 2.382a.487.487 0 1 0 .69.69l3.19-3.19a.487.487 0 0 0-.026-.762l-3.17-3.17Z" fill="#5A81EA"/><path d="m28.297 17.628-.106-.106.106.106Zm.69 0-.107.106.107-.106Zm-.69.69.106-.106-.106.106Zm2.382 2.381.106-.106.256.256h-.362v-.15Zm.005.98v-.15h.362l-.256.257-.106-.107Zm-2.382 2.382-.106-.106.106.106Zm0 .69-.106.106.106-.106Zm.69 0 .105.106-.106-.106Zm3.19-3.19-.106-.107.008-.007.098.113Zm.17-.372h-.15.15Zm-.096-.29-.12.089.12-.09Zm-.1-.1-.09.119-.008-.006-.008-.008.106-.106Zm-3.965-3.277a.638.638 0 0 1 .902 0l-.213.212a.338.338 0 0 0-.477 0l-.212-.212Zm0 .902a.637.637 0 0 1 0-.902l.212.212a.338.338 0 0 0 0 .478l-.212.212Zm2.382 2.382-2.382-2.382.212-.212 2.382 2.381-.212.213Zm-8.652-.257h8.758v.3H21.92v-.3Zm-.64.64a.64.64 0 0 1 .64-.64v.3a.34.34 0 0 0-.34.34h-.3Zm.64.64a.64.64 0 0 1-.64-.64h.3c0 .188.152.34.34.34v.3Zm8.763 0H21.92v-.3h8.763v.3Zm-2.488 2.126 2.382-2.381.212.212-2.382 2.381-.212-.212Zm0 .902a.638.638 0 0 1 0-.902l.212.212a.338.338 0 0 0 0 .478l-.212.212Zm.901 0a.638.638 0 0 1-.901 0l.212-.212a.338.338 0 0 0 .477 0l.212.212Zm3.191-3.19-3.19 3.19-.213-.212 3.191-3.19.212.211Zm.214-.478a.639.639 0 0 1-.222.485l-.196-.227a.34.34 0 0 0 .118-.258h.3Zm0 0h-.3.3Zm-.126-.38a.637.637 0 0 1 .126.38h-.3a.337.337 0 0 0-.067-.201l.241-.179Zm-.13-.13c.05.037.094.08.13.13l-.24.179a.346.346 0 0 0-.07-.07l.18-.24Zm-3.154-3.157 3.17 3.17-.212.212-3.17-3.17.213-.212Z" fill="#5A81EA"/><path fill-rule="evenodd" clip-rule="evenodd" d="M19.014 23.25a.487.487 0 1 1 .69.689L17.32 26.32h8.758a.49.49 0 0 1 0 .98h-8.763l2.382 2.382a.487.487 0 1 1-.69.69l-3.19-3.19a.489.489 0 0 1-.17-.372v-.012a.486.486 0 0 1 .196-.379l3.17-3.17Z" fill="#5A81EA"/><path d="m19.014 23.25.106.105-.106-.106Zm.69.689-.107-.107.106.107ZM17.32 26.32l-.106-.106-.256.256h.362v-.15Zm-.005.98v-.15h-.362l.256.257.106-.107Zm2.382 2.382.106-.106-.106.106Zm0 .69.106.106-.106-.106Zm-.69 0-.105.106.106-.106Zm-3.19-3.19.107-.107-.009-.007-.098.113Zm-.17-.384.15.003-.15-.003Zm.093-.274.121.088-.121-.088Zm.103-.105.09.12.008-.007.008-.007-.106-.106Zm3.965-3.276a.638.638 0 0 0-.901 0l.212.212a.338.338 0 0 1 .477 0l.212-.212Zm0 .902a.638.638 0 0 0 0-.902l-.212.212a.338.338 0 0 1 0 .477l.212.213Zm-2.382 2.381 2.382-2.381-.212-.213-2.382 2.382.212.213Zm-.106.044h8.758v-.3h-8.758v.3Zm8.758 0a.34.34 0 0 1 .34.34h.3a.64.64 0 0 0-.64-.64v.3Zm.34.34a.34.34 0 0 1-.34.34v.3a.64.64 0 0 0 .64-.64h-.3Zm-.34.34h-8.763v.3h8.764v-.3Zm-6.275 2.426-2.382-2.382-.212.213 2.382 2.381.212-.212Zm0 .902a.637.637 0 0 0 0-.902l-.212.212a.337.337 0 0 1 0 .478l.212.212Zm-.901 0a.638.638 0 0 0 .901 0l-.212-.212a.337.337 0 0 1-.477 0l-.212.212Zm-3.19-3.19 3.19 3.19.212-.212-3.19-3.19-.213.211Zm.203-.22a.339.339 0 0 1-.117-.258h-.3c0 .194.086.367.221.485l.196-.227Zm-.117-.258v-.009l-.3-.007v.016h.3Zm-.18-.374a.636.636 0 0 0-.12.358l.3.007a.335.335 0 0 1 .063-.189l-.243-.176Zm.244.176a.345.345 0 0 1 .071-.073l-.18-.24a.643.643 0 0 0-.135.137l.244.176Zm3.045-3.469-3.17 3.17.212.212 3.17-3.17-.212-.212Z" fill="#5A81EA"/></svg>