<svg height="48" width="48" xmlns="http://www.w3.org/2000/svg"><g fill="#ffaf00" fill-rule="evenodd"><circle cx="24" cy="24" fill-opacity=".1" r="24"/><g fill-rule="nonzero" stroke="#ffaf00" stroke-width=".1"><path d="m20.323 33.88-.002.001zm-.651.956c-.04.134-.231.595-.232.595a3.115 3.115 0 0 0-.164.579l-.098.546-1.069-.201.099-.547a4.23 4.23 0 0 1 .22-.782c.02-.05.184-.446.205-.516.064-.213.27-.56.523-.917a5.13 5.13 0 0 1 .32-.413 1.46 1.46 0 0 1 .17-.17.694.694 0 0 1 .159-.1.534.534 0 0 1 .49.013.601.601 0 0 1 .275.287c.028.05.055.107.086.18.028.063.137.33.164.39.073.17.13.288.173.35.03.027.146.085.287.141-.06-.272-.08-.398-.08-.552v-1.396c0-.606.155-1.447.421-1.9.039-.066.074-.139.125-.255.298-.685.421-.91.835-1.39.818-.949 1.494-1.627 1.827-1.627.19 0 .337.09.435.216a.606.606 0 0 1 .095.175c.02.057.033.112.043.178.012.079.021.175.032.318l.032.483c.015.212.03.392.048.566.01.092.019.183.028.287l.022.244c.022.242.039.375.067.504.031.144.078.282.152.446.128.279.353.587.71.99.06.069.124.139.207.23l.204.224c.117.129.201.22.485.525.475.51.675.733.815.913-.01-.011.097.126.128.167.054.07.1.131.144.193.23.321.398.619.512.95.127.367.216.847.274 1.447l.054.553-1.081.11-.053-.553c-.05-.52-.125-.917-.218-1.186a2.576 2.576 0 0 0-.363-.663 6.998 6.998 0 0 0-.125-.167 63.841 63.841 0 0 0-.125-.163c-.109-.14-.306-.36-.743-.828a49.268 49.268 0 0 1-.92-1.007c-.424-.478-.705-.861-.89-1.266a3.256 3.256 0 0 1-.227-.673 4.931 4.931 0 0 1-.089-.644l-.022-.244c-.008-.1-.017-.184-.026-.27-.011-.11-.022-.221-.031-.34-.2.212-.405.437-.587.648-.32.372-.4.518-.657 1.107a3.36 3.36 0 0 1-.186.375c-.144.245-.266.904-.266 1.327v1.396c0 .05.021.164.078.415.059.258.08.364.096.495.042.346.012.584-.276.78-.408.277-1.49-.078-1.901-.435a1.067 1.067 0 0 1-.181-.209 2.45 2.45 0 0 1-.189-.341 3.053 3.053 0 0 0-.241.412zm1.32-.704-.006-.005.002.002.005.004z"/><path d="M29.995 21.141a18.577 18.577 0 0 1-.003.006zm-.034.193c.003-.14.003-.14.142-.378.268-.188.268-.188.482-.177.212.07.212.07.264.115a.9.9 0 0 1 .115.11c.052.057.122.141.213.255.172.217.426.55.781 1.026a9.18 9.18 0 0 1 1.136 2.405c.192.62.282.956.346 1.303.04.223.07.446.1.757.011.109.022.23.036.393l.041.48c.089 1.022.045 1.672-.12 2.713a52.294 52.294 0 0 0-.072.465c-.114.8-.603 2.08-1.068 2.963-.35.665-1.179 1.625-1.987 2.364-.397.363-.97.776-1.592 1.141a9.849 9.849 0 0 1-2.193.97c-1.401.406-2.52.503-3.844.389-1.304-.113-2.431-.403-3.48-.946-.955-.495-2.077-1.434-2.927-2.326-.64-.672-.945-1.073-1.436-1.912-.507-.865-.966-1.867-1.201-2.618-.2-.639-.357-1.96-.357-2.583 0-.718.043-1.75.12-2.24.109-.678.506-1.843.926-2.66.373-.726.942-1.564 1.468-2.234a9.262 9.262 0 0 1 .242-.296c.128-.15.261-.299.47-.526a472.002 472.002 0 0 1 .642-.697 33.647 33.647 0 0 1 .705-.751l.4-.418c.275-.29.428-.458.494-.545l.106-.14.14-.187a12.702 12.702 0 0 0 .543-.783c.136-.217.238-.404.3-.55a19.7 19.7 0 0 1 .157-.37l.172-.4.034-.081c.23-.537.366-.88.43-1.092.15-.496.257-1.11.348-2.084.02-.218.036-.462.049-.729a34.17 34.17 0 0 0 .032-1.793l-.001-.113c.065-.337.065-.337.403-.538.222-.021.222-.021.304.006.097.039.097.039.133.061.031.02.062.041.099.07.055.041.128.101.216.176.18.154.416.364.66.591.618.573 1.191 1.151 1.58 1.614.895 1.06 1.234 1.544 1.703 2.45.435.838.953 2.296 1.19 3.244.177.71.27 2.068.27 3.301 0 .554-.075 1.46-.194 2.164a14.803 14.803 0 0 1-.21 1.027l-.025.107c.131-.037.27-.086.393-.14.499-.221.72-.386 1.18-.92.24-.274.537-.669.812-1.064a11.418 11.418 0 0 0 .361-.556c-.031.058-.031.06-.031.187zm-7.79-9.82c-.014.282-.031.544-.053.78-.097 1.044-.218 1.73-.391 2.306-.08.267-.226.632-.472 1.21l-.036.082-.172.4-.153.36c-.089.213-.219.45-.385.715-.072.114-.15.232-.233.355a16.305 16.305 0 0 1-.504.693l-.106.14a8.604 8.604 0 0 1-.575.64l-.4.42a58.582 58.582 0 0 0-1.044 1.12l-.29.314c-.2.217-.325.357-.442.494a8.466 8.466 0 0 0-.214.261c-.486.62-1.018 1.404-1.354 2.057-.367.714-.726 1.766-.814 2.32-.066.414-.106 1.403-.106 2.062 0 .518.143 1.73.304 2.244.209.665.632 1.59 1.098 2.386.448.763.7 1.096 1.283 1.707.774.812 1.812 1.682 2.64 2.11.913.474 1.907.729 3.08.83 1.198.104 2.186.019 3.456-.35a8.794 8.794 0 0 0 1.95-.865 8.748 8.748 0 0 0 1.408-1.006c.723-.66 1.476-1.533 1.755-2.062.41-.78.857-1.95.95-2.597a16.898 16.898 0 0 1 .074-.482c.152-.957.19-1.521.11-2.438l-.04-.479-.035-.38a7.627 7.627 0 0 0-.087-.662c-.055-.293-.135-.593-.315-1.175a8.038 8.038 0 0 0-.98-2.088 70.14 70.14 0 0 0-.506-.67 13.18 13.18 0 0 1-.939 1.239c-.566.654-.917.916-1.563 1.201a3.775 3.775 0 0 1-.973.285c-.576.075-1.05-.053-1.05-.69 0-.147.252-1.216.253-1.223a13.622 13.622 0 0 0 .29-2.549c0-1.145-.09-2.431-.238-3.026-.216-.869-.706-2.246-1.096-2.998-.427-.824-.72-1.243-1.566-2.246-.355-.421-.9-.97-1.487-1.516-.012.252-.02.513-.032.77zm8.876 9.824a.85.85 0 0 1-.102.3c.098-.17.1-.184.102-.3z"/></g></g></svg>