<svg xmlns="http://www.w3.org/2000/svg" width="48" height="48" viewBox="0 0 48 48">
    <g fill="#81C926" fill-rule="evenodd">
        <circle cx="24" cy="24" r="24" fill-opacity=".1"/>
        <path fill-rule="nonzero" stroke="#81C926" stroke-width=".4" d="M36.5 24.198v.968a.492.492 0 0 1-.5.484.492.492 0 0 1-.5-.484v-.967c.004-5.289-3.842-9.849-9.197-10.906-5.355-1.056-10.738 1.682-12.874 6.55H19c.276 0 .5.217.5.484a.492.492 0 0 1-.5.484h-7a.492.492 0 0 1-.5-.484v-6.774c0-.267.224-.484.5-.484s.5.217.5.484v5.919c2.32-5.294 8.173-8.275 13.996-7.128 5.823 1.147 10.006 6.103 10.004 11.854zm-.5 3.387h-7c-.276 0-.5.217-.5.484s.224.484.5.484h5.572c-2.137 4.868-7.52 7.606-12.875 6.55-5.355-1.057-9.2-5.616-9.197-10.905v-.968a.492.492 0 0 0-.5-.484c-.276 0-.5.217-.5.484v.968c-.002 5.75 4.181 10.707 10.004 11.854 5.823 1.147 11.675-1.834 13.996-7.128v5.92c0 .266.224.483.5.483s.5-.217.5-.484V28.07a.492.492 0 0 0-.5-.484z"/>
    </g>
</svg>
