<svg xmlns="http://www.w3.org/2000/svg" width="48" height="48" viewBox="0 0 48 48">
    <g fill="#26C1C9" fill-rule="evenodd">
        <circle cx="24" cy="24" r="24" fill-opacity=".1"/>
        <path fill-rule="nonzero" stroke="#26C1C9" stroke-width=".2" d="M32.31 16.197a3.657 3.657 0 0 1 .454 4.611 3.642 3.642 0 0 1-4.427 1.346 3.653 3.653 0 0 1 1.396-7.027c.966 0 1.894.385 2.577 1.07zm-5.182 2.582a2.603 2.603 0 1 0 5.01.998 2.611 2.611 0 0 0-.959-3.167 2.6 2.6 0 0 0-3.288.325 2.594 2.594 0 0 0-.763 1.844zm2.236-.369a.522.522 0 0 0 .737.738.52.52 0 1 0-.736-.738zm5.156-4.427a6.77 6.77 0 0 0-9.575 0L13.896 25.051a.522.522 0 0 0 .737.738L25.68 14.72a5.722 5.722 0 0 1 8.103 0 5.746 5.746 0 0 1 0 8.117l-6.63 6.64a.522.522 0 0 0 .737.738l6.63-6.64a6.799 6.799 0 0 0 0-9.593zM18.282 25.338l-6.63 6.64a.522.522 0 0 0 .737.739l6.63-6.641a.522.522 0 0 0-.737-.738zm6.912-2.75l-7.366 7.378a.522.522 0 0 0 .737.738l7.366-7.379a.522.522 0 0 0-.737-.737zM16.86 35.109a.522.522 0 0 0 .736.738l8.102-8.116a.522.522 0 1 0-.736-.738l-8.102 8.116zm6.123-.917a.522.522 0 0 0 .737.738l2.21-2.213a.522.522 0 0 0-.737-.738l-2.21 2.213zm-2.261-9.823l1.473-1.476a.522.522 0 0 0-.737-.738l-1.473 1.476a.522.522 0 0 0 .737.738z"/>
    </g>
</svg>
